<svg xmlns="http://www.w3.org/2000/svg" xmlns:xlink="http://www.w3.org/1999/xlink" contentStyleType="text/css" height="776px" preserveAspectRatio="none" style="width:475px;height:776px;background:#FFFFFF;" version="1.1" viewBox="0 0 475 776" width="475px" zoomAndPan="magnify"><defs/><g><!--class User--><g id="elem_User"><rect codeLine="4" fill="#F1F1F1" height="113.9531" id="User" rx="2.5" ry="2.5" style="stroke:#181818;stroke-width:0.5;" width="176.4111" x="86.77" y="7"/><ellipse cx="155.5429" cy="23" fill="#ADD1B2" rx="11" ry="11" style="stroke:#181818;stroke-width:1.0;"/><path d="M158.0161,29.1431 Q157.435,29.4419 156.7959,29.5913 Q156.1567,29.7407 155.4512,29.7407 Q152.9443,29.7407 151.6245,28.0889 Q150.3047,26.437 150.3047,23.3159 Q150.3047,20.1865 151.6245,18.5347 Q152.9443,16.8828 155.4512,16.8828 Q156.1567,16.8828 156.8042,17.0322 Q157.4516,17.1816 158.0161,17.4805 L158.0161,20.2031 Q157.3852,19.6221 156.7917,19.3523 Q156.1982,19.0825 155.5674,19.0825 Q154.2226,19.0825 153.5378,20.1492 Q152.853,21.2158 152.853,23.3159 Q152.853,25.4077 153.5378,26.4744 Q154.2226,27.541 155.5674,27.541 Q156.1982,27.541 156.7917,27.2712 Q157.3852,27.0015 158.0161,26.4204 Z " fill="#000000"/><text fill="#000000" font-family="sans-serif" font-size="14" lengthAdjust="spacing" textLength="30.3652" x="176.0429" y="28.291">User</text><line style="stroke:#181818;stroke-width:0.5;" x1="87.77" x2="262.1811" y1="39" y2="39"/><rect fill="none" height="6" style="stroke:#C82930;stroke-width:1.0;" width="6" x="94.77" y="49.7441"/><text fill="#000000" font-family="sans-serif" font-size="14" lengthAdjust="spacing" textLength="128.126" x="106.77" y="56.5352">Fills Payment Form</text><rect fill="none" height="6" style="stroke:#C82930;stroke-width:1.0;" width="6" x="94.77" y="66.2324"/><text fill="#000000" font-family="sans-serif" font-size="14" lengthAdjust="spacing" textLength="101.0283" x="106.77" y="73.0234">Validates Form</text><rect fill="none" height="6" style="stroke:#C82930;stroke-width:1.0;" width="6" x="94.77" y="82.7207"/><text fill="#000000" font-family="sans-serif" font-size="14" lengthAdjust="spacing" textLength="114.9258" x="106.77" y="89.5117">Sends Form Data</text><rect fill="none" height="6" style="stroke:#C82930;stroke-width:1.0;" width="6" x="94.77" y="99.209"/><text fill="#000000" font-family="sans-serif" font-size="14" lengthAdjust="spacing" textLength="150.4111" x="106.77" y="106">Displays Confirmation</text><line style="stroke:#181818;stroke-width:0.5;" x1="87.77" x2="262.1811" y1="112.9531" y2="112.9531"/></g><!--class Browser--><g id="elem_Browser"><rect codeLine="11" fill="#F1F1F1" height="80.9766" id="Browser" rx="2.5" ry="2.5" style="stroke:#181818;stroke-width:0.5;" width="164.4277" x="92.76" y="197.96"/><ellipse cx="143.8074" cy="213.96" fill="#ADD1B2" rx="11" ry="11" style="stroke:#181818;stroke-width:1.0;"/><path d="M146.2805,220.1031 Q145.6995,220.4019 145.0603,220.5513 Q144.4211,220.7007 143.7156,220.7007 Q141.2087,220.7007 139.8889,219.0489 Q138.5691,217.397 138.5691,214.2759 Q138.5691,211.1465 139.8889,209.4947 Q141.2087,207.8428 143.7156,207.8428 Q144.4211,207.8428 145.0686,207.9922 Q145.7161,208.1416 146.2805,208.4405 L146.2805,211.1631 Q145.6496,210.5821 145.0561,210.3123 Q144.4626,210.0425 143.8318,210.0425 Q142.4871,210.0425 141.8022,211.1092 Q141.1174,212.1758 141.1174,214.2759 Q141.1174,216.3677 141.8022,217.4344 Q142.4871,218.501 143.8318,218.501 Q144.4626,218.501 145.0561,218.2312 Q145.6496,217.9615 146.2805,217.3804 Z " fill="#000000"/><text fill="#000000" font-family="sans-serif" font-size="14" lengthAdjust="spacing" textLength="53.833" x="164.3074" y="219.251">Browser</text><line style="stroke:#181818;stroke-width:0.5;" x1="93.76" x2="256.1877" y1="229.96" y2="229.96"/><rect fill="none" height="6" style="stroke:#C82930;stroke-width:1.0;" width="6" x="100.76" y="240.7041"/><text fill="#000000" font-family="sans-serif" font-size="14" lengthAdjust="spacing" textLength="96.9131" x="112.76" y="247.4952">Payment Form</text><rect fill="none" height="6" style="stroke:#C82930;stroke-width:1.0;" width="6" x="100.76" y="257.1924"/><text fill="#000000" font-family="sans-serif" font-size="14" lengthAdjust="spacing" textLength="138.4277" x="112.76" y="263.9834">Confirmation Screen</text><line style="stroke:#181818;stroke-width:0.5;" x1="93.76" x2="256.1877" y1="270.9366" y2="270.9366"/></g><!--class BackendService--><g id="elem_BackendService"><rect codeLine="16" fill="#F1F1F1" height="130.4414" id="BackendService" rx="2.5" ry="2.5" style="stroke:#181818;stroke-width:0.5;" width="161.4063" x="80.27" y="513.91"/><ellipse cx="106.8065" cy="529.91" fill="#ADD1B2" rx="11" ry="11" style="stroke:#181818;stroke-width:1.0;"/><path d="M109.2797,536.0531 Q108.6986,536.3519 108.0595,536.5013 Q107.4203,536.6507 106.7147,536.6507 Q104.2079,536.6507 102.8881,534.9989 Q101.5682,533.347 101.5682,530.2259 Q101.5682,527.0965 102.8881,525.4447 Q104.2079,523.7928 106.7147,523.7928 Q107.4203,523.7928 108.0678,523.9422 Q108.7152,524.0916 109.2797,524.3905 L109.2797,527.1131 Q108.6488,526.5321 108.0553,526.2623 Q107.4618,525.9925 106.8309,525.9925 Q105.4862,525.9925 104.8014,527.0592 Q104.1166,528.1258 104.1166,530.2259 Q104.1166,532.3177 104.8014,533.3844 Q105.4862,534.451 106.8309,534.451 Q107.4618,534.451 108.0553,534.1812 Q108.6488,533.9115 109.2797,533.3304 Z " fill="#000000"/><text fill="#000000" font-family="sans-serif" font-size="14" lengthAdjust="spacing" textLength="103.7695" x="123.3702" y="535.201">BackendService</text><line style="stroke:#181818;stroke-width:0.5;" x1="81.27" x2="240.6762" y1="545.91" y2="545.91"/><rect fill="none" height="6" style="stroke:#C82930;stroke-width:1.0;" width="6" x="88.27" y="556.6541"/><text fill="#000000" font-family="sans-serif" font-size="14" lengthAdjust="spacing" textLength="86.3311" x="100.27" y="563.4452">API Endpoint</text><rect fill="none" height="6" style="stroke:#C82930;stroke-width:1.0;" width="6" x="88.27" y="573.1424"/><text fill="#000000" font-family="sans-serif" font-size="14" lengthAdjust="spacing" textLength="103.708" x="100.27" y="579.9334">Data Validation</text><rect fill="none" height="6" style="stroke:#C82930;stroke-width:1.0;" width="6" x="88.27" y="589.6307"/><text fill="#000000" font-family="sans-serif" font-size="14" lengthAdjust="spacing" textLength="134.7842" x="100.27" y="596.4217">Payment Processing</text><rect fill="none" height="6" style="stroke:#C82930;stroke-width:1.0;" width="6" x="88.27" y="606.119"/><text fill="#000000" font-family="sans-serif" font-size="14" lengthAdjust="spacing" textLength="135.4063" x="100.27" y="612.91">Transaction Storage</text><rect fill="none" height="6" style="stroke:#C82930;stroke-width:1.0;" width="6" x="88.27" y="622.6073"/><text fill="#000000" font-family="sans-serif" font-size="14" lengthAdjust="spacing" textLength="88.2451" x="100.27" y="629.3983">Email Service</text><line style="stroke:#181818;stroke-width:0.5;" x1="81.27" x2="240.6762" y1="636.3514" y2="636.3514"/></g><!--class Stripe--><g id="elem_Stripe"><rect codeLine="24" fill="#F1F1F1" height="80.9766" id="Stripe" rx="2.5" ry="2.5" style="stroke:#181818;stroke-width:0.5;" width="186.6924" x="137.63" y="355.93"/><ellipse cx="207.1446" cy="371.93" fill="#ADD1B2" rx="11" ry="11" style="stroke:#181818;stroke-width:1.0;"/><path d="M209.6178,378.0731 Q209.0367,378.3719 208.3976,378.5213 Q207.7584,378.6707 207.0529,378.6707 Q204.546,378.6707 203.2262,377.0189 Q201.9064,375.367 201.9064,372.2459 Q201.9064,369.1165 203.2262,367.4647 Q204.546,365.8128 207.0529,365.8128 Q207.7584,365.8128 208.4059,365.9622 Q209.0533,366.1116 209.6178,366.4105 L209.6178,369.1331 Q208.9869,368.5521 208.3934,368.2823 Q207.7999,368.0125 207.1691,368.0125 Q205.8243,368.0125 205.1395,369.0792 Q204.4547,370.1458 204.4547,372.2459 Q204.4547,374.3377 205.1395,375.4044 Q205.8243,376.471 207.1691,376.471 Q207.7999,376.471 208.3934,376.2012 Q208.9869,375.9315 209.6178,375.3504 Z " fill="#000000"/><text fill="#000000" font-family="sans-serif" font-size="14" lengthAdjust="spacing" textLength="39.1631" x="227.6446" y="377.221">Stripe</text><line style="stroke:#181818;stroke-width:0.5;" x1="138.63" x2="323.3224" y1="387.93" y2="387.93"/><rect fill="none" height="6" style="stroke:#C82930;stroke-width:1.0;" width="6" x="145.63" y="398.6741"/><text fill="#000000" font-family="sans-serif" font-size="14" lengthAdjust="spacing" textLength="134.7842" x="157.63" y="405.4652">Payment Processing</text><rect fill="none" height="6" style="stroke:#C82930;stroke-width:1.0;" width="6" x="145.63" y="415.1624"/><text fill="#000000" font-family="sans-serif" font-size="14" lengthAdjust="spacing" textLength="160.6924" x="157.63" y="421.9534">Returns Payment Token</text><line style="stroke:#181818;stroke-width:0.5;" x1="138.63" x2="323.3224" y1="428.9066" y2="428.9066"/></g><!--class Email--><g id="elem_Email"><rect fill="#F1F1F1" height="48" id="Email" rx="2.5" ry="2.5" style="stroke:#181818;stroke-width:0.5;" width="68.4834" x="126.73" y="721.35"/><ellipse cx="141.73" cy="737.35" fill="#ADD1B2" rx="11" ry="11" style="stroke:#181818;stroke-width:1.0;"/><path d="M144.2031,743.4931 Q143.6221,743.7919 142.9829,743.9413 Q142.3438,744.0907 141.6382,744.0907 Q139.1314,744.0907 137.8115,742.4389 Q136.4917,740.787 136.4917,737.6659 Q136.4917,734.5365 137.8115,732.8847 Q139.1314,731.2328 141.6382,731.2328 Q142.3438,731.2328 142.9912,731.3822 Q143.6387,731.5316 144.2031,731.8305 L144.2031,734.5531 Q143.5723,733.9721 142.9788,733.7023 Q142.3853,733.4325 141.7544,733.4325 Q140.4097,733.4325 139.7249,734.4992 Q139.0401,735.5658 139.0401,737.6659 Q139.0401,739.7577 139.7249,740.8244 Q140.4097,741.891 141.7544,741.891 Q142.3853,741.891 142.9788,741.6212 Q143.5723,741.3515 144.2031,740.7704 Z " fill="#000000"/><text fill="#000000" font-family="sans-serif" font-size="14" lengthAdjust="spacing" textLength="36.4834" x="155.73" y="742.641">Email</text><line style="stroke:#181818;stroke-width:0.5;" x1="127.73" x2="194.2134" y1="753.35" y2="753.35"/><line style="stroke:#181818;stroke-width:0.5;" x1="127.73" x2="194.2134" y1="761.35" y2="761.35"/></g><!--link User to Browser--><g id="link_User_Browser"><path codeLine="29" d="M112.06,121.46 C105.11,130.6 99.08,140.52 94.97,150.96 C88.16,168.28 92.0621,179.9626 105.3821,193.3126 " fill="none" id="User-to-Browser" style="stroke:#181818;stroke-width:1.0;"/><polygon fill="#181818" points="109.62,197.56,106.0948,188.3636,106.0884,194.0205,100.4316,194.0141,109.62,197.56" style="stroke:#181818;stroke-width:1.0;"/><text fill="#000000" font-family="sans-serif" font-size="13" lengthAdjust="spacing" textLength="112.3472" x="95.97" y="164.5284">Fill Payment Form</text></g><!--link Browser to User--><g id="link_Browser_User"><path codeLine="36" d="M201.08,197.71 C205.99,188.32 210.39,178.08 212.97,167.96 C216.91,152.54 216.2714,141.8657 210.8814,126.8857 " fill="none" id="Browser-to-User" style="stroke:#181818;stroke-width:1.0;"/><polygon fill="#181818" points="208.85,121.24,208.1333,131.0627,210.5428,125.9447,215.6608,128.3542,208.85,121.24" style="stroke:#181818;stroke-width:1.0;"/><text fill="#000000" font-family="sans-serif" font-size="13" lengthAdjust="spacing" textLength="133.0405" x="214.97" y="164.5284">Display Confirmation</text></g><!--link Browser to Stripe--><g id="link_Browser_Stripe"><path codeLine="30" d="M109.06,279.03 C94.38,292.94 85.81,309.27 95.97,325.93 C105.86,342.13 115.6936,351.6691 132.1536,361.3891 " fill="none" id="Browser-to-Stripe" style="stroke:#181818;stroke-width:1.0;"/><polygon fill="#181818" points="137.32,364.44,131.6043,356.4194,133.0146,361.8976,127.5364,363.3079,137.32,364.44" style="stroke:#181818;stroke-width:1.0;"/><text fill="#000000" font-family="sans-serif" font-size="13" lengthAdjust="spacing" textLength="111.1602" x="96.97" y="322.4984">Initialize Payment</text></g><!--link Stripe to Browser--><g id="link_Stripe_Browser"><path codeLine="31" d="M225.22,355.55 C222.41,340.65 218.43,323.76 212.97,308.93 C209.32,299 207.2476,294.042 202.1876,284.572 " fill="none" id="Stripe-to-Browser" style="stroke:#181818;stroke-width:1.0;"/><polygon fill="#181818" points="199.36,279.28,200.0734,289.103,201.7163,283.69,207.1294,285.3329,199.36,279.28" style="stroke:#181818;stroke-width:1.0;"/><text fill="#000000" font-family="sans-serif" font-size="13" lengthAdjust="spacing" textLength="96.6938" x="218.97" y="322.4984">Payment Token</text></g><!--link Browser to BackendService--><g id="link_Browser_BackendService"><path codeLine="32" d="M95.93,279.36 C67.16,298.32 37.83,323.92 21.97,355.93 C6,388.18 9.55,403.13 21.97,436.91 C33.5,468.23 51.8809,491.9671 75.6909,514.4871 " fill="none" id="Browser-to-BackendService" style="stroke:#181818;stroke-width:1.0;"/><polygon fill="#181818" points="80.05,518.61,76.26,509.5196,76.4174,515.1742,70.7628,515.3317,80.05,518.61" style="stroke:#181818;stroke-width:1.0;"/><text fill="#000000" font-family="sans-serif" font-size="13" lengthAdjust="spacing" textLength="96.6938" x="22.97" y="401.4884">Payment Token</text></g><!--link BackendService to Browser--><g id="link_BackendService_Browser"><path codeLine="35" d="M241.9,552.73 C275.86,537.98 312.6,515.84 334.97,483.91 C347.09,466.61 340.41,457.97 341.97,436.91 C346.22,379.63 363.13,350.96 323.97,308.93 C305.98,289.62 287.0174,277.6166 263.1374,267.0566 " fill="none" id="BackendService-to-Browser" style="stroke:#181818;stroke-width:1.0;"/><polygon fill="#181818" points="257.65,264.63,264.2634,271.9282,262.2228,266.6522,267.4988,264.6116,257.65,264.63" style="stroke:#181818;stroke-width:1.0;"/><text fill="#000000" font-family="sans-serif" font-size="13" lengthAdjust="spacing" textLength="117.7744" x="349.97" y="401.4884">Payment Response</text></g><!--link BackendService to Stripe--><g id="link_BackendService_Stripe"><path codeLine="33" d="M189.95,513.56 C194.13,503.68 198.26,493.57 201.97,483.91 C207.77,468.83 211.6723,457.7386 216.5323,442.9886 " fill="none" id="BackendService-to-Stripe" style="stroke:#181818;stroke-width:1.0;"/><polygon fill="#181818" points="218.41,437.29,211.7944,444.5862,216.8453,442.0389,219.3926,447.0897,218.41,437.29" style="stroke:#181818;stroke-width:1.0;"/><text fill="#000000" font-family="sans-serif" font-size="13" lengthAdjust="spacing" textLength="117.9839" x="208.97" y="480.4784">Complete Payment</text></g><!--link Stripe to BackendService--><g id="link_Stripe_BackendService"><path codeLine="34" d="M137.2,429.36 C108.87,441.02 83.09,454.41 74.97,466.91 C64.34,483.29 65.2795,495.3956 76.3695,511.0356 " fill="none" id="Stripe-to-BackendService" style="stroke:#181818;stroke-width:1.0;"/><polygon fill="#181818" points="79.84,515.93,77.8971,506.2747,76.9479,511.8513,71.3712,510.9021,79.84,515.93" style="stroke:#181818;stroke-width:1.0;"/><text fill="#000000" font-family="sans-serif" font-size="13" lengthAdjust="spacing" textLength="117.7744" x="75.97" y="480.4784">Payment Response</text></g><!--link BackendService to Email--><g id="link_BackendService_Email"><path codeLine="37" d="M160.97,644.56 C160.97,671.52 160.97,695.15 160.97,715.06 " fill="none" id="BackendService-to-Email" style="stroke:#181818;stroke-width:1.0;"/><polygon fill="#181818" points="160.97,721.06,164.97,712.06,160.97,716.06,156.97,712.06,160.97,721.06" style="stroke:#181818;stroke-width:1.0;"/><text fill="#000000" font-family="sans-serif" font-size="13" lengthAdjust="spacing" textLength="155.4922" x="161.97" y="687.9184">Send Confirmation Email</text></g><!--SRC=[TL91ReCm4BppYkq3-027IYaXLQIgGa1wNvbDj8gnaUssIgl-lSH0mK2Fp8vdPeTzgEdCYg38qcht-loIWP1eRHHDmCcIWUy888O3IsaXnrj3oi51cyR3RoYvHaTsWafITVy9UtJeiJtRLkBDGghLcKs3ZhMAVkPUJqP_JdOhe_b3A8KXMhv7SUsSIp8VB6YGsUL7o5JTQbQk3z8b6aFV8yozSgC5MSlguk7AeB8eUaEd3Lx8urc3B67m2JEKpd1BYnKMiWMvTwEcAYjzxLVnPSVnuryJYIyzh6AStNc3Mm97nOwxdRve94V3B9GBBUTIY_9Mr70ScAUwQIMvRUl_P0kohLQMjfJNUIVsBFAfvmoN5HxMXch_rn9_dU4n-Sal]--></g></svg>