<svg xmlns="http://www.w3.org/2000/svg" xmlns:xlink="http://www.w3.org/1999/xlink" contentStyleType="text/css" height="651px" preserveAspectRatio="none" style="width:427px;height:651px;background:#FFFFFF;" version="1.1" viewBox="0 0 427 651" width="427px" zoomAndPan="magnify"><defs/><g><!--class User--><g id="elem_User"><rect codeLine="4" fill="#F1F1F1" height="113.9531" id="User" rx="2.5" ry="2.5" style="stroke:#181818;stroke-width:0.5;" width="176.4111" x="68.19" y="7"/><ellipse cx="136.9629" cy="23" fill="#ADD1B2" rx="11" ry="11" style="stroke:#181818;stroke-width:1.0;"/><path d="M139.4361,29.1431 Q138.855,29.4419 138.2159,29.5913 Q137.5767,29.7407 136.8712,29.7407 Q134.3643,29.7407 133.0445,28.0889 Q131.7247,26.437 131.7247,23.3159 Q131.7247,20.1865 133.0445,18.5347 Q134.3643,16.8828 136.8712,16.8828 Q137.5767,16.8828 138.2242,17.0322 Q138.8716,17.1816 139.4361,17.4805 L139.4361,20.2031 Q138.8052,19.6221 138.2117,19.3523 Q137.6182,19.0825 136.9874,19.0825 Q135.6426,19.0825 134.9578,20.1492 Q134.273,21.2158 134.273,23.3159 Q134.273,25.4077 134.9578,26.4744 Q135.6426,27.541 136.9874,27.541 Q137.6182,27.541 138.2117,27.2712 Q138.8052,27.0015 139.4361,26.4204 Z " fill="#000000"/><text fill="#000000" font-family="sans-serif" font-size="14" lengthAdjust="spacing" textLength="30.3652" x="157.4629" y="28.291">User</text><line style="stroke:#181818;stroke-width:0.5;" x1="69.19" x2="243.6011" y1="39" y2="39"/><rect fill="none" height="6" style="stroke:#C82930;stroke-width:1.0;" width="6" x="76.19" y="49.7441"/><text fill="#000000" font-family="sans-serif" font-size="14" lengthAdjust="spacing" textLength="128.126" x="88.19" y="56.5352">Fills Payment Form</text><rect fill="none" height="6" style="stroke:#C82930;stroke-width:1.0;" width="6" x="76.19" y="66.2324"/><text fill="#000000" font-family="sans-serif" font-size="14" lengthAdjust="spacing" textLength="101.0283" x="88.19" y="73.0234">Validates Form</text><rect fill="none" height="6" style="stroke:#C82930;stroke-width:1.0;" width="6" x="76.19" y="82.7207"/><text fill="#000000" font-family="sans-serif" font-size="14" lengthAdjust="spacing" textLength="114.9258" x="88.19" y="89.5117">Sends Form Data</text><rect fill="none" height="6" style="stroke:#C82930;stroke-width:1.0;" width="6" x="76.19" y="99.209"/><text fill="#000000" font-family="sans-serif" font-size="14" lengthAdjust="spacing" textLength="150.4111" x="88.19" y="106">Displays Confirmation</text><line style="stroke:#181818;stroke-width:0.5;" x1="69.19" x2="243.6011" y1="112.9531" y2="112.9531"/></g><!--class Browser--><g id="elem_Browser"><rect codeLine="11" fill="#F1F1F1" height="80.9766" id="Browser" rx="2.5" ry="2.5" style="stroke:#181818;stroke-width:0.5;" width="164.4277" x="74.18" y="197.96"/><ellipse cx="125.2274" cy="213.96" fill="#ADD1B2" rx="11" ry="11" style="stroke:#181818;stroke-width:1.0;"/><path d="M127.7005,220.1031 Q127.1195,220.4019 126.4803,220.5513 Q125.8411,220.7007 125.1356,220.7007 Q122.6287,220.7007 121.3089,219.0489 Q119.9891,217.397 119.9891,214.2759 Q119.9891,211.1465 121.3089,209.4947 Q122.6287,207.8428 125.1356,207.8428 Q125.8411,207.8428 126.4886,207.9922 Q127.1361,208.1416 127.7005,208.4405 L127.7005,211.1631 Q127.0696,210.5821 126.4761,210.3123 Q125.8826,210.0425 125.2518,210.0425 Q123.9071,210.0425 123.2222,211.1092 Q122.5374,212.1758 122.5374,214.2759 Q122.5374,216.3677 123.2222,217.4344 Q123.9071,218.501 125.2518,218.501 Q125.8826,218.501 126.4761,218.2312 Q127.0696,217.9615 127.7005,217.3804 Z " fill="#000000"/><text fill="#000000" font-family="sans-serif" font-size="14" lengthAdjust="spacing" textLength="53.833" x="145.7274" y="219.251">Browser</text><line style="stroke:#181818;stroke-width:0.5;" x1="75.18" x2="237.6077" y1="229.96" y2="229.96"/><rect fill="none" height="6" style="stroke:#C82930;stroke-width:1.0;" width="6" x="82.18" y="240.7041"/><text fill="#000000" font-family="sans-serif" font-size="14" lengthAdjust="spacing" textLength="96.9131" x="94.18" y="247.4952">Payment Form</text><rect fill="none" height="6" style="stroke:#C82930;stroke-width:1.0;" width="6" x="82.18" y="257.1924"/><text fill="#000000" font-family="sans-serif" font-size="14" lengthAdjust="spacing" textLength="138.4277" x="94.18" y="263.9834">Confirmation Screen</text><line style="stroke:#181818;stroke-width:0.5;" x1="75.18" x2="237.6077" y1="270.9366" y2="270.9366"/></g><!--class BackendService--><g id="elem_BackendService"><rect codeLine="16" fill="#F1F1F1" height="130.4414" id="BackendService" rx="2.5" ry="2.5" style="stroke:#181818;stroke-width:0.5;" width="161.4063" x="75.69" y="355.93"/><ellipse cx="102.2265" cy="371.93" fill="#ADD1B2" rx="11" ry="11" style="stroke:#181818;stroke-width:1.0;"/><path d="M104.6997,378.0731 Q104.1186,378.3719 103.4795,378.5213 Q102.8403,378.6707 102.1347,378.6707 Q99.6279,378.6707 98.3081,377.0189 Q96.9882,375.367 96.9882,372.2459 Q96.9882,369.1165 98.3081,367.4647 Q99.6279,365.8128 102.1347,365.8128 Q102.8403,365.8128 103.4878,365.9622 Q104.1352,366.1116 104.6997,366.4105 L104.6997,369.1331 Q104.0688,368.5521 103.4753,368.2823 Q102.8818,368.0125 102.2509,368.0125 Q100.9062,368.0125 100.2214,369.0792 Q99.5366,370.1458 99.5366,372.2459 Q99.5366,374.3377 100.2214,375.4044 Q100.9062,376.471 102.2509,376.471 Q102.8818,376.471 103.4753,376.2012 Q104.0688,375.9315 104.6997,375.3504 Z " fill="#000000"/><text fill="#000000" font-family="sans-serif" font-size="14" lengthAdjust="spacing" textLength="103.7695" x="118.7902" y="377.221">BackendService</text><line style="stroke:#181818;stroke-width:0.5;" x1="76.69" x2="236.0963" y1="387.93" y2="387.93"/><rect fill="none" height="6" style="stroke:#C82930;stroke-width:1.0;" width="6" x="83.69" y="398.6741"/><text fill="#000000" font-family="sans-serif" font-size="14" lengthAdjust="spacing" textLength="86.3311" x="95.69" y="405.4652">API Endpoint</text><rect fill="none" height="6" style="stroke:#C82930;stroke-width:1.0;" width="6" x="83.69" y="415.1624"/><text fill="#000000" font-family="sans-serif" font-size="14" lengthAdjust="spacing" textLength="103.708" x="95.69" y="421.9534">Data Validation</text><rect fill="none" height="6" style="stroke:#C82930;stroke-width:1.0;" width="6" x="83.69" y="431.6507"/><text fill="#000000" font-family="sans-serif" font-size="14" lengthAdjust="spacing" textLength="134.7842" x="95.69" y="438.4417">Payment Processing</text><rect fill="none" height="6" style="stroke:#C82930;stroke-width:1.0;" width="6" x="83.69" y="448.139"/><text fill="#000000" font-family="sans-serif" font-size="14" lengthAdjust="spacing" textLength="135.4063" x="95.69" y="454.93">Transaction Storage</text><rect fill="none" height="6" style="stroke:#C82930;stroke-width:1.0;" width="6" x="83.69" y="464.6273"/><text fill="#000000" font-family="sans-serif" font-size="14" lengthAdjust="spacing" textLength="88.2451" x="95.69" y="471.4183">Email Service</text><line style="stroke:#181818;stroke-width:0.5;" x1="76.69" x2="236.0963" y1="478.3714" y2="478.3714"/></g><!--class Stripe--><g id="elem_Stripe"><rect codeLine="24" fill="#F1F1F1" height="80.9766" id="Stripe" rx="2.5" ry="2.5" style="stroke:#181818;stroke-width:0.5;" width="160.7842" x="7" y="563.37"/><ellipse cx="63.5605" cy="579.37" fill="#ADD1B2" rx="11" ry="11" style="stroke:#181818;stroke-width:1.0;"/><path d="M66.0337,585.5131 Q65.4526,585.8119 64.8135,585.9613 Q64.1743,586.1107 63.4688,586.1107 Q60.9619,586.1107 59.6421,584.4589 Q58.3223,582.807 58.3223,579.6859 Q58.3223,576.5565 59.6421,574.9047 Q60.9619,573.2528 63.4688,573.2528 Q64.1743,573.2528 64.8218,573.4022 Q65.4692,573.5516 66.0337,573.8505 L66.0337,576.5731 Q65.4028,575.9921 64.8093,575.7223 Q64.2158,575.4525 63.585,575.4525 Q62.2402,575.4525 61.5554,576.5192 Q60.8706,577.5858 60.8706,579.6859 Q60.8706,581.7777 61.5554,582.8444 Q62.2402,583.911 63.585,583.911 Q64.2158,583.911 64.8093,583.6412 Q65.4028,583.3715 66.0337,582.7904 Z " fill="#000000"/><text fill="#000000" font-family="sans-serif" font-size="14" lengthAdjust="spacing" textLength="39.1631" x="84.0605" y="584.661">Stripe</text><line style="stroke:#181818;stroke-width:0.5;" x1="8" x2="166.7842" y1="595.37" y2="595.37"/><rect fill="none" height="6" style="stroke:#C82930;stroke-width:1.0;" width="6" x="15" y="606.1141"/><text fill="#000000" font-family="sans-serif" font-size="14" lengthAdjust="spacing" textLength="134.7842" x="27" y="612.9052">Payment Processing</text><rect fill="none" height="6" style="stroke:#C82930;stroke-width:1.0;" width="6" x="15" y="622.6024"/><text fill="#000000" font-family="sans-serif" font-size="14" lengthAdjust="spacing" textLength="121.3857" x="27" y="629.3934">Returns Response</text><line style="stroke:#181818;stroke-width:0.5;" x1="8" x2="166.7842" y1="636.3466" y2="636.3466"/></g><!--class Email--><g id="elem_Email"><rect fill="#F1F1F1" height="48" id="Email" rx="2.5" ry="2.5" style="stroke:#181818;stroke-width:0.5;" width="68.4834" x="281.15" y="579.86"/><ellipse cx="296.15" cy="595.86" fill="#ADD1B2" rx="11" ry="11" style="stroke:#181818;stroke-width:1.0;"/><path d="M298.6231,602.0031 Q298.0421,602.3019 297.4029,602.4513 Q296.7638,602.6007 296.0582,602.6007 Q293.5514,602.6007 292.2315,600.9489 Q290.9117,599.297 290.9117,596.1759 Q290.9117,593.0465 292.2315,591.3947 Q293.5514,589.7428 296.0582,589.7428 Q296.7638,589.7428 297.4112,589.8922 Q298.0587,590.0416 298.6231,590.3405 L298.6231,593.0631 Q297.9923,592.4821 297.3988,592.2123 Q296.8053,591.9425 296.1744,591.9425 Q294.8297,591.9425 294.1449,593.0092 Q293.4601,594.0758 293.4601,596.1759 Q293.4601,598.2677 294.1449,599.3344 Q294.8297,600.401 296.1744,600.401 Q296.8053,600.401 297.3988,600.1312 Q297.9923,599.8615 298.6231,599.2804 Z " fill="#000000"/><text fill="#000000" font-family="sans-serif" font-size="14" lengthAdjust="spacing" textLength="36.4834" x="310.15" y="601.151">Email</text><line style="stroke:#181818;stroke-width:0.5;" x1="282.15" x2="348.6334" y1="611.86" y2="611.86"/><line style="stroke:#181818;stroke-width:0.5;" x1="282.15" x2="348.6334" y1="619.86" y2="619.86"/></g><!--link User to Browser--><g id="link_User_Browser"><path codeLine="29" d="M93.47,121.46 C86.53,130.6 80.5,140.52 76.39,150.96 C69.58,168.28 73.4821,179.9626 86.8021,193.3126 " fill="none" id="User-to-Browser" style="stroke:#181818;stroke-width:1.0;"/><polygon fill="#181818" points="91.04,197.56,87.5148,188.3636,87.5084,194.0205,81.8516,194.0141,91.04,197.56" style="stroke:#181818;stroke-width:1.0;"/><text fill="#000000" font-family="sans-serif" font-size="13" lengthAdjust="spacing" textLength="112.3472" x="77.39" y="164.5284">Fill Payment Form</text></g><!--link Browser to User--><g id="link_Browser_User"><path codeLine="34" d="M182.5,197.71 C187.4,188.32 191.8,178.08 194.39,167.96 C198.33,152.54 197.6914,141.8657 192.3014,126.8857 " fill="none" id="Browser-to-User" style="stroke:#181818;stroke-width:1.0;"/><polygon fill="#181818" points="190.27,121.24,189.5533,131.0627,191.9628,125.9447,197.0808,128.3542,190.27,121.24" style="stroke:#181818;stroke-width:1.0;"/><text fill="#000000" font-family="sans-serif" font-size="13" lengthAdjust="spacing" textLength="133.0405" x="196.39" y="164.5284">Display Confirmation</text></g><!--link Browser to BackendService--><g id="link_Browser_BackendService"><path codeLine="30" d="M116.94,279.23 C110.16,288.31 104.1,298.41 100.39,308.93 C94.93,324.43 95.2455,335.0185 101.7655,349.9985 " fill="none" id="Browser-to-BackendService" style="stroke:#181818;stroke-width:1.0;"/><polygon fill="#181818" points="104.16,355.5,104.2359,345.6514,102.1646,350.9154,96.9006,348.8441,104.16,355.5" style="stroke:#181818;stroke-width:1.0;"/><text fill="#000000" font-family="sans-serif" font-size="13" lengthAdjust="spacing" textLength="65.4824" x="101.39" y="322.4984">Form Data</text></g><!--link BackendService to Browser--><g id="link_BackendService_Browser"><path codeLine="33" d="M170.4,355.53 C172.24,340.27 173,324.04 171.39,308.93 C170.36,299.24 169.7651,294.7815 167.7351,285.1315 " fill="none" id="BackendService-to-Browser" style="stroke:#181818;stroke-width:1.0;"/><polygon fill="#181818" points="166.5,279.26,164.4384,288.8907,167.5293,284.1529,172.267,287.2438,166.5,279.26" style="stroke:#181818;stroke-width:1.0;"/><text fill="#000000" font-family="sans-serif" font-size="13" lengthAdjust="spacing" textLength="117.7744" x="172.39" y="322.4984">Payment Response</text></g><!--link BackendService to Stripe--><g id="link_BackendService_Stripe"><path codeLine="31" d="M75.25,457.58 C51.63,472.17 28.65,491.58 15.39,516.37 C6.55,532.91 10.317,544.8796 23.657,558.7896 " fill="none" id="BackendService-to-Stripe" style="stroke:#181818;stroke-width:1.0;"/><polygon fill="#181818" points="27.81,563.12,24.4675,553.8557,24.3492,559.5113,18.6936,559.393,27.81,563.12" style="stroke:#181818;stroke-width:1.0;"/><text fill="#000000" font-family="sans-serif" font-size="13" lengthAdjust="spacing" textLength="96.6938" x="16.39" y="529.9384">Payment Token</text></g><!--link Stripe to BackendService--><g id="link_Stripe_BackendService"><path codeLine="32" d="M105.17,563.01 C109.31,553.36 113.61,543.04 117.39,533.37 C123.24,518.41 127.1633,507.828 132.5733,492.498 " fill="none" id="Stripe-to-BackendService" style="stroke:#181818;stroke-width:1.0;"/><polygon fill="#181818" points="134.57,486.84,127.8029,493.9959,132.9061,491.555,135.3469,496.6582,134.57,486.84" style="stroke:#181818;stroke-width:1.0;"/><text fill="#000000" font-family="sans-serif" font-size="13" lengthAdjust="spacing" textLength="117.7744" x="124.39" y="529.9384">Payment Response</text></g><!--link BackendService to Email--><g id="link_BackendService_Email"><path codeLine="35" d="M223.09,486.66 C232.48,496.41 241.84,506.51 250.39,516.37 C268.11,536.81 282.9806,556.7319 295.6506,574.5319 " fill="none" id="BackendService-to-Email" style="stroke:#181818;stroke-width:1.0;"/><polygon fill="#181818" points="299.13,579.42,297.1697,569.7682,296.2305,575.3465,290.6522,574.4074,299.13,579.42" style="stroke:#181818;stroke-width:1.0;"/><text fill="#000000" font-family="sans-serif" font-size="13" lengthAdjust="spacing" textLength="155.4922" x="264.39" y="529.9384">Send Confirmation Email</text></g><!--SRC=[RLBBReCm4Bpp5TiFu0SuL4eJKbMg8XH8xokpYQmQ6-swYQAg_rvYteGJyknuPZpiIqbdRGcEwRRO7Du_Kr06HQ9e14v23ByHG0nxROn0XlUAh8Uzuoh0NsXqYPvaX7AoPNk47NeCs4vBRV0ki7NshBb2hvsD_gPUR-nkezsJqVGYv8g9blTHVJVEEV5LA-faDja7fBQidRQ-3T8awaC_8aozCdQAHBIz1BXWj8AgDVIEyK81JolK1ZgVUORSiwvfyOI5x97y3rjflb8xAq4Xz1p7hqC9IUXxta8_2xpvOvD9tOlHWzt5IWQzmZMKg8DNzNhca795TWpxp9vaFRMSRWNc6x2YsjQRX3MQ__Km-GS0]--></g></svg>