<svg xmlns="http://www.w3.org/2000/svg" xmlns:xlink="http://www.w3.org/1999/xlink" contentStyleType="text/css" height="792px" preserveAspectRatio="none" style="width:927px;height:792px;background:#FFFFFF;" version="1.1" viewBox="0 0 927 792" width="927px" zoomAndPan="magnify"><defs/><g><!--class User--><g id="elem_User"><rect codeLine="4" fill="#F1F1F1" height="113.9531" id="User" rx="2.5" ry="2.5" style="stroke:#181818;stroke-width:0.5;" width="176.4111" x="307.43" y="7"/><ellipse cx="376.2029" cy="23" fill="#ADD1B2" rx="11" ry="11" style="stroke:#181818;stroke-width:1.0;"/><path d="M378.6761,29.1431 Q378.095,29.4419 377.4559,29.5913 Q376.8167,29.7407 376.1112,29.7407 Q373.6043,29.7407 372.2845,28.0889 Q370.9647,26.437 370.9647,23.3159 Q370.9647,20.1865 372.2845,18.5347 Q373.6043,16.8828 376.1112,16.8828 Q376.8167,16.8828 377.4642,17.0322 Q378.1116,17.1816 378.6761,17.4805 L378.6761,20.2031 Q378.0452,19.6221 377.4517,19.3523 Q376.8582,19.0825 376.2274,19.0825 Q374.8826,19.0825 374.1978,20.1492 Q373.513,21.2158 373.513,23.3159 Q373.513,25.4077 374.1978,26.4744 Q374.8826,27.541 376.2274,27.541 Q376.8582,27.541 377.4517,27.2712 Q378.0452,27.0015 378.6761,26.4204 Z " fill="#000000"/><text fill="#000000" font-family="sans-serif" font-size="14" lengthAdjust="spacing" textLength="30.3652" x="396.7029" y="28.291">User</text><line style="stroke:#181818;stroke-width:0.5;" x1="308.43" x2="482.8411" y1="39" y2="39"/><rect fill="none" height="6" style="stroke:#C82930;stroke-width:1.0;" width="6" x="315.43" y="49.7441"/><text fill="#000000" font-family="sans-serif" font-size="14" lengthAdjust="spacing" textLength="128.126" x="327.43" y="56.5352">Fills Payment Form</text><rect fill="none" height="6" style="stroke:#C82930;stroke-width:1.0;" width="6" x="315.43" y="66.2324"/><text fill="#000000" font-family="sans-serif" font-size="14" lengthAdjust="spacing" textLength="101.0283" x="327.43" y="73.0234">Validates Form</text><rect fill="none" height="6" style="stroke:#C82930;stroke-width:1.0;" width="6" x="315.43" y="82.7207"/><text fill="#000000" font-family="sans-serif" font-size="14" lengthAdjust="spacing" textLength="114.9258" x="327.43" y="89.5117">Sends Form Data</text><rect fill="none" height="6" style="stroke:#C82930;stroke-width:1.0;" width="6" x="315.43" y="99.209"/><text fill="#000000" font-family="sans-serif" font-size="14" lengthAdjust="spacing" textLength="150.4111" x="327.43" y="106">Displays Confirmation</text><line style="stroke:#181818;stroke-width:0.5;" x1="308.43" x2="482.8411" y1="112.9531" y2="112.9531"/></g><!--class Browser--><g id="elem_Browser"><rect codeLine="11" fill="#F1F1F1" height="80.9766" id="Browser" rx="2.5" ry="2.5" style="stroke:#181818;stroke-width:0.5;" width="164.4277" x="313.42" y="197.96"/><ellipse cx="364.4674" cy="213.96" fill="#ADD1B2" rx="11" ry="11" style="stroke:#181818;stroke-width:1.0;"/><path d="M366.9405,220.1031 Q366.3595,220.4019 365.7203,220.5513 Q365.0811,220.7007 364.3756,220.7007 Q361.8687,220.7007 360.5489,219.0489 Q359.2291,217.397 359.2291,214.2759 Q359.2291,211.1465 360.5489,209.4947 Q361.8687,207.8428 364.3756,207.8428 Q365.0811,207.8428 365.7286,207.9922 Q366.3761,208.1416 366.9405,208.4405 L366.9405,211.1631 Q366.3096,210.5821 365.7161,210.3123 Q365.1226,210.0425 364.4918,210.0425 Q363.1471,210.0425 362.4622,211.1092 Q361.7774,212.1758 361.7774,214.2759 Q361.7774,216.3677 362.4622,217.4344 Q363.1471,218.501 364.4918,218.501 Q365.1226,218.501 365.7161,218.2312 Q366.3096,217.9615 366.9405,217.3804 Z " fill="#000000"/><text fill="#000000" font-family="sans-serif" font-size="14" lengthAdjust="spacing" textLength="53.833" x="384.9674" y="219.251">Browser</text><line style="stroke:#181818;stroke-width:0.5;" x1="314.42" x2="476.8477" y1="229.96" y2="229.96"/><rect fill="none" height="6" style="stroke:#C82930;stroke-width:1.0;" width="6" x="321.42" y="240.7041"/><text fill="#000000" font-family="sans-serif" font-size="14" lengthAdjust="spacing" textLength="96.9131" x="333.42" y="247.4952">Payment Form</text><rect fill="none" height="6" style="stroke:#C82930;stroke-width:1.0;" width="6" x="321.42" y="257.1924"/><text fill="#000000" font-family="sans-serif" font-size="14" lengthAdjust="spacing" textLength="138.4277" x="333.42" y="263.9834">Confirmation Screen</text><line style="stroke:#181818;stroke-width:0.5;" x1="314.42" x2="476.8477" y1="270.9366" y2="270.9366"/></g><!--class BackendService--><g id="elem_BackendService"><rect codeLine="16" fill="#F1F1F1" height="146.9297" id="BackendService" rx="2.5" ry="2.5" style="stroke:#181818;stroke-width:0.5;" width="161.4063" x="312.93" y="513.91"/><ellipse cx="339.4665" cy="529.91" fill="#ADD1B2" rx="11" ry="11" style="stroke:#181818;stroke-width:1.0;"/><path d="M341.9397,536.0531 Q341.3586,536.3519 340.7195,536.5013 Q340.0803,536.6507 339.3747,536.6507 Q336.8679,536.6507 335.5481,534.9989 Q334.2282,533.347 334.2282,530.2259 Q334.2282,527.0965 335.5481,525.4447 Q336.8679,523.7928 339.3747,523.7928 Q340.0803,523.7928 340.7278,523.9422 Q341.3752,524.0916 341.9397,524.3905 L341.9397,527.1131 Q341.3088,526.5321 340.7153,526.2623 Q340.1218,525.9925 339.4909,525.9925 Q338.1462,525.9925 337.4614,527.0592 Q336.7766,528.1258 336.7766,530.2259 Q336.7766,532.3177 337.4614,533.3844 Q338.1462,534.451 339.4909,534.451 Q340.1218,534.451 340.7153,534.1812 Q341.3088,533.9115 341.9397,533.3304 Z " fill="#000000"/><text fill="#000000" font-family="sans-serif" font-size="14" lengthAdjust="spacing" textLength="103.7695" x="356.0302" y="535.201">BackendService</text><line style="stroke:#181818;stroke-width:0.5;" x1="313.93" x2="473.3363" y1="545.91" y2="545.91"/><rect fill="none" height="6" style="stroke:#C82930;stroke-width:1.0;" width="6" x="320.93" y="556.6541"/><text fill="#000000" font-family="sans-serif" font-size="14" lengthAdjust="spacing" textLength="86.3311" x="332.93" y="563.4452">API Endpoint</text><rect fill="none" height="6" style="stroke:#C82930;stroke-width:1.0;" width="6" x="320.93" y="573.1424"/><text fill="#000000" font-family="sans-serif" font-size="14" lengthAdjust="spacing" textLength="103.708" x="332.93" y="579.9334">Data Validation</text><rect fill="none" height="6" style="stroke:#C82930;stroke-width:1.0;" width="6" x="320.93" y="589.6307"/><text fill="#000000" font-family="sans-serif" font-size="14" lengthAdjust="spacing" textLength="129.4111" x="332.93" y="596.4217">Invoice Verification</text><rect fill="none" height="6" style="stroke:#C82930;stroke-width:1.0;" width="6" x="320.93" y="606.119"/><text fill="#000000" font-family="sans-serif" font-size="14" lengthAdjust="spacing" textLength="134.7842" x="332.93" y="612.91">Payment Processing</text><rect fill="none" height="6" style="stroke:#C82930;stroke-width:1.0;" width="6" x="320.93" y="622.6073"/><text fill="#000000" font-family="sans-serif" font-size="14" lengthAdjust="spacing" textLength="135.4063" x="332.93" y="629.3983">Transaction Storage</text><rect fill="none" height="6" style="stroke:#C82930;stroke-width:1.0;" width="6" x="320.93" y="639.0955"/><text fill="#000000" font-family="sans-serif" font-size="14" lengthAdjust="spacing" textLength="88.2451" x="332.93" y="645.8866">Email Service</text><line style="stroke:#181818;stroke-width:0.5;" x1="313.93" x2="473.3363" y1="652.8397" y2="652.8397"/></g><!--class Stripe--><g id="elem_Stripe"><rect codeLine="25" fill="#F1F1F1" height="80.9766" id="Stripe" rx="2.5" ry="2.5" style="stroke:#181818;stroke-width:0.5;" width="160.7842" x="468.24" y="355.93"/><ellipse cx="524.8005" cy="371.93" fill="#ADD1B2" rx="11" ry="11" style="stroke:#181818;stroke-width:1.0;"/><path d="M527.2737,378.0731 Q526.6926,378.3719 526.0535,378.5213 Q525.4143,378.6707 524.7088,378.6707 Q522.2019,378.6707 520.8821,377.0189 Q519.5623,375.367 519.5623,372.2459 Q519.5623,369.1165 520.8821,367.4647 Q522.2019,365.8128 524.7088,365.8128 Q525.4143,365.8128 526.0618,365.9622 Q526.7092,366.1116 527.2737,366.4105 L527.2737,369.1331 Q526.6428,368.5521 526.0493,368.2823 Q525.4558,368.0125 524.825,368.0125 Q523.4802,368.0125 522.7954,369.0792 Q522.1106,370.1458 522.1106,372.2459 Q522.1106,374.3377 522.7954,375.4044 Q523.4802,376.471 524.825,376.471 Q525.4558,376.471 526.0493,376.2012 Q526.6428,375.9315 527.2737,375.3504 Z " fill="#000000"/><text fill="#000000" font-family="sans-serif" font-size="14" lengthAdjust="spacing" textLength="39.1631" x="545.3005" y="377.221">Stripe</text><line style="stroke:#181818;stroke-width:0.5;" x1="469.24" x2="628.0242" y1="387.93" y2="387.93"/><rect fill="none" height="6" style="stroke:#C82930;stroke-width:1.0;" width="6" x="476.24" y="398.6741"/><text fill="#000000" font-family="sans-serif" font-size="14" lengthAdjust="spacing" textLength="134.7842" x="488.24" y="405.4652">Payment Processing</text><rect fill="none" height="6" style="stroke:#C82930;stroke-width:1.0;" width="6" x="476.24" y="415.1624"/><text fill="#000000" font-family="sans-serif" font-size="14" lengthAdjust="spacing" textLength="121.3857" x="488.24" y="421.9534">Returns Response</text><line style="stroke:#181818;stroke-width:0.5;" x1="469.24" x2="628.0242" y1="428.9066" y2="428.9066"/></g><!--class Email--><g id="elem_Email"><rect fill="#F1F1F1" height="48" id="Email" rx="2.5" ry="2.5" style="stroke:#181818;stroke-width:0.5;" width="68.4834" x="359.39" y="737.84"/><ellipse cx="374.39" cy="753.84" fill="#ADD1B2" rx="11" ry="11" style="stroke:#181818;stroke-width:1.0;"/><path d="M376.8631,759.9831 Q376.2821,760.2819 375.6429,760.4313 Q375.0038,760.5807 374.2982,760.5807 Q371.7914,760.5807 370.4715,758.9289 Q369.1517,757.277 369.1517,754.1559 Q369.1517,751.0265 370.4715,749.3747 Q371.7914,747.7228 374.2982,747.7228 Q375.0038,747.7228 375.6512,747.8722 Q376.2987,748.0216 376.8631,748.3205 L376.8631,751.0431 Q376.2323,750.4621 375.6388,750.1923 Q375.0453,749.9225 374.4144,749.9225 Q373.0697,749.9225 372.3849,750.9892 Q371.7001,752.0558 371.7001,754.1559 Q371.7001,756.2477 372.3849,757.3144 Q373.0697,758.381 374.4144,758.381 Q375.0453,758.381 375.6388,758.1112 Q376.2323,757.8415 376.8631,757.2604 Z " fill="#000000"/><text fill="#000000" font-family="sans-serif" font-size="14" lengthAdjust="spacing" textLength="36.4834" x="388.39" y="759.131">Email</text><line style="stroke:#181818;stroke-width:0.5;" x1="360.39" x2="426.8734" y1="769.84" y2="769.84"/><line style="stroke:#181818;stroke-width:0.5;" x1="360.39" x2="426.8734" y1="777.84" y2="777.84"/></g><!--link User to Browser--><g id="link_User_Browser"><path codeLine="30" d="M332.71,121.46 C325.77,130.6 319.74,140.52 315.63,150.96 C308.82,168.28 312.7221,179.9626 326.0421,193.3126 " fill="none" id="User-to-Browser" style="stroke:#181818;stroke-width:1.0;"/><polygon fill="#181818" points="330.28,197.56,326.7548,188.3636,326.7484,194.0205,321.0916,194.0141,330.28,197.56" style="stroke:#181818;stroke-width:1.0;"/><text fill="#000000" font-family="sans-serif" font-size="13" lengthAdjust="spacing" textLength="112.3472" x="316.63" y="164.5284">Fill Payment Form</text></g><!--link Browser to User--><g id="link_Browser_User"><path codeLine="40" d="M421.74,197.71 C426.64,188.32 431.04,178.08 433.63,167.96 C437.57,152.54 436.9302,141.8761 431.5402,126.8861 " fill="none" id="Browser-to-User" style="stroke:#181818;stroke-width:1.0;"/><polygon fill="#181818" points="429.51,121.24,428.7912,131.0626,431.2018,125.9451,436.3193,128.3557,429.51,121.24" style="stroke:#181818;stroke-width:1.0;"/><text fill="#000000" font-family="sans-serif" font-size="13" lengthAdjust="spacing" textLength="133.0405" x="435.63" y="164.5284">Display Confirmation</text></g><!--link Browser to BackendService--><g id="link_Browser_BackendService"><path codeLine="31" d="M313,241.31 C233.46,248.22 118.27,272.98 69.63,355.93 C6,464.45 191.3954,533.6569 306.8254,565.4469 " fill="none" id="Browser-to-BackendService" style="stroke:#181818;stroke-width:1.0;"/><polygon fill="#181818" points="312.61,567.04,304.9951,560.7939,307.7895,565.7124,302.871,568.5067,312.61,567.04" style="stroke:#181818;stroke-width:1.0;"/><text fill="#000000" font-family="sans-serif" font-size="13" lengthAdjust="spacing" textLength="65.4824" x="70.63" y="401.4884">Form Data</text></g><!--link Browser to BackendService--><g id="link_Browser_BackendService"><path codeLine="32" d="M313.34,268.03 C273.55,286.5 229.56,314.88 206.63,355.93 C189.09,387.36 191.03,404.48 206.63,436.91 C228.79,482.98 267.7566,516.061 307.5366,541.351 " fill="none" id="Browser-to-BackendService-1" style="stroke:#181818;stroke-width:1.0;"/><polygon fill="#181818" points="312.6,544.57,307.1509,536.3659,308.3805,541.8875,302.8589,543.117,312.6,544.57" style="stroke:#181818;stroke-width:1.0;"/><text fill="#000000" font-family="sans-serif" font-size="13" lengthAdjust="spacing" textLength="84.6904" x="207.63" y="401.4884">Verify Invoice</text></g><!--link BackendService to Browser--><g id="link_BackendService_Browser"><path codeLine="33" d="M474.64,577.65 C534.03,566.55 610.79,541.3 649.63,483.91 C693.57,419 685.58,361.72 627.63,308.93 C586.84,271.77 532.8096,255.4289 484.0696,247.3689 " fill="none" id="BackendService-to-Browser" style="stroke:#181818;stroke-width:1.0;"/><polygon fill="#181818" points="478.15,246.39,486.3768,251.8048,483.083,247.2058,487.682,243.912,478.15,246.39" style="stroke:#181818;stroke-width:1.0;"/><text fill="#000000" font-family="sans-serif" font-size="13" lengthAdjust="spacing" textLength="97.0811" x="678.63" y="401.4884">Invoice Verified</text></g><!--link Browser to BackendService--><g id="link_Browser_BackendService"><path codeLine="36" d="M376.87,279.43 C367.57,301.47 357.33,329.62 352.63,355.93 C343.22,408.64 352.6924,462.3635 365.7224,507.6935 " fill="none" id="Browser-to-BackendService-2" style="stroke:#181818;stroke-width:1.0;"/><polygon fill="#181818" points="367.38,513.46,368.738,503.7052,365.9987,508.6546,361.0493,505.9153,367.38,513.46" style="stroke:#181818;stroke-width:1.0;"/><text fill="#000000" font-family="sans-serif" font-size="13" lengthAdjust="spacing" textLength="96.6938" x="353.63" y="401.4884">Payment Token</text></g><!--link BackendService to Browser--><g id="link_BackendService_Browser"><path codeLine="39" d="M474.61,572.99 C612.43,546.57 869.8,479.3 784.63,355.93 C749.69,305.32 587.5548,270.5873 484.0948,252.9673 " fill="none" id="BackendService-to-Browser-1" style="stroke:#181818;stroke-width:1.0;"/><polygon fill="#181818" points="478.18,251.96,486.3807,257.4142,483.109,252.7994,487.7238,249.5278,478.18,251.96" style="stroke:#181818;stroke-width:1.0;"/><text fill="#000000" font-family="sans-serif" font-size="13" lengthAdjust="spacing" textLength="117.7744" x="801.63" y="401.4884">Payment Response</text></g><!--link Browser to Stripe--><g id="link_Browser_Stripe"><path codeLine="34" d="M384.92,279.1 C382.95,294.8 383.8,312.32 392.63,325.93 C397.5,333.42 426.7936,346.9715 462.3236,361.6315 " fill="none" id="Browser-to-Stripe" style="stroke:#181818;stroke-width:1.0;"/><polygon fill="#181818" points="467.87,363.92,461.076,356.7896,463.248,362.0129,458.0247,364.1849,467.87,363.92" style="stroke:#181818;stroke-width:1.0;"/><text fill="#000000" font-family="sans-serif" font-size="13" lengthAdjust="spacing" textLength="111.1602" x="393.63" y="322.4984">Initialize Payment</text></g><!--link Stripe to Browser--><g id="link_Stripe_Browser"><path codeLine="35" d="M536.41,355.49 C530.19,339.74 521.41,322.27 509.63,308.93 C499.81,297.82 492.7269,291.3053 480.1969,282.7053 " fill="none" id="Stripe-to-Browser" style="stroke:#181818;stroke-width:1.0;"/><polygon fill="#181818" points="475.25,279.31,480.4068,287.7009,479.3724,282.1394,484.9339,281.105,475.25,279.31" style="stroke:#181818;stroke-width:1.0;"/><text fill="#000000" font-family="sans-serif" font-size="13" lengthAdjust="spacing" textLength="96.6938" x="522.63" y="322.4984">Payment Token</text></g><!--link BackendService to Stripe--><g id="link_BackendService_Stripe"><path codeLine="37" d="M474.8,526.5 C488.97,513.55 502.66,499.14 513.63,483.91 C523.67,469.98 529.3363,458.3976 534.9463,442.9976 " fill="none" id="BackendService-to-Stripe" style="stroke:#181818;stroke-width:1.0;"/><polygon fill="#181818" points="537,437.36,530.1611,444.4472,535.2886,442.058,537.6779,447.1855,537,437.36" style="stroke:#181818;stroke-width:1.0;"/><text fill="#000000" font-family="sans-serif" font-size="13" lengthAdjust="spacing" textLength="117.9839" x="523.63" y="480.4784">Complete Payment</text></g><!--link Stripe to BackendService--><g id="link_Stripe_BackendService"><path codeLine="38" d="M468,427.48 C430.02,442.44 391.85,458.99 386.63,466.91 C377.6,480.61 374.6421,491.2424 375.1021,507.6724 " fill="none" id="Stripe-to-BackendService" style="stroke:#181818;stroke-width:1.0;"/><polygon fill="#181818" points="375.27,513.67,379.0166,504.5616,375.1301,508.672,371.0197,504.7855,375.27,513.67" style="stroke:#181818;stroke-width:1.0;"/><text fill="#000000" font-family="sans-serif" font-size="13" lengthAdjust="spacing" textLength="117.7744" x="387.63" y="480.4784">Payment Response</text></g><!--link BackendService to Email--><g id="link_BackendService_Email"><path codeLine="41" d="M393.63,661.02 C393.63,688.45 393.63,711.76 393.63,731.48 " fill="none" id="BackendService-to-Email" style="stroke:#181818;stroke-width:1.0;"/><polygon fill="#181818" points="393.63,737.48,397.63,728.48,393.63,732.48,389.63,728.48,393.63,737.48" style="stroke:#181818;stroke-width:1.0;"/><text fill="#000000" font-family="sans-serif" font-size="13" lengthAdjust="spacing" textLength="155.4922" x="394.63" y="704.4084">Send Confirmation Email</text></g><!--SRC=[VLFHRi8m37plLtWVm0_mC8b1cP2cgQB0kvKQP2rDgZXZOjF-VMtQqgOmdggSdRlpnNqgwCY6O9ikTultrxSKb4QH91c0lP23dmHW1clMMY33Iqd6mzgwCi07r5oW9ncWd4pH7c657WEsOgaqNWIMrXpPbUZPckHthFNYxDSWToCqlWYvSaJJ-wW-QkMSt9aLTJIBR0EfAIhBnhT6QaUzwSP2WstCsJPN3kJuo6eez2OoPnM9i3a5UEVG2AhMYRSEJnJmj4JMq1c8pUNUSKMJsIQqM_AVpaZzbSeQ2GpX0MQpvsiwy_0GSJnzBVJ5ASn7x_2mBSn-wQD89lNOGPmN5H5pDsdJnPxheB-fTvjqjPYj7sLdQyN79YUjjnwluajRLfhyVUd_QA_1Fvp-jdjaUT_sTEiUR_iTrdPZvk6NYJSyLFu0]--></g></svg>