<svg xmlns="http://www.w3.org/2000/svg" xmlns:xlink="http://www.w3.org/1999/xlink" contentStyleType="text/css" height="809px" preserveAspectRatio="none" style="width:927px;height:809px;background:#FFFFFF;" version="1.1" viewBox="0 0 927 809" width="927px" zoomAndPan="magnify"><defs/><g><!--class User--><g id="elem_User"><rect codeLine="4" fill="#F1F1F1" height="113.9531" id="User" rx="2.5" ry="2.5" style="stroke:#181818;stroke-width:0.5;" width="176.4111" x="307.43" y="7"/><ellipse cx="376.2029" cy="23" fill="#ADD1B2" rx="11" ry="11" style="stroke:#181818;stroke-width:1.0;"/><path d="M378.6761,29.1431 Q378.095,29.4419 377.4559,29.5913 Q376.8167,29.7407 376.1112,29.7407 Q373.6043,29.7407 372.2845,28.0889 Q370.9647,26.437 370.9647,23.3159 Q370.9647,20.1865 372.2845,18.5347 Q373.6043,16.8828 376.1112,16.8828 Q376.8167,16.8828 377.4642,17.0322 Q378.1116,17.1816 378.6761,17.4805 L378.6761,20.2031 Q378.0452,19.6221 377.4517,19.3523 Q376.8582,19.0825 376.2274,19.0825 Q374.8826,19.0825 374.1978,20.1492 Q373.513,21.2158 373.513,23.3159 Q373.513,25.4077 374.1978,26.4744 Q374.8826,27.541 376.2274,27.541 Q376.8582,27.541 377.4517,27.2712 Q378.0452,27.0015 378.6761,26.4204 Z " fill="#000000"/><text fill="#000000" font-family="sans-serif" font-size="14" lengthAdjust="spacing" textLength="30.3652" x="396.7029" y="28.291">User</text><line style="stroke:#181818;stroke-width:0.5;" x1="308.43" x2="482.8411" y1="39" y2="39"/><rect fill="none" height="6" style="stroke:#C82930;stroke-width:1.0;" width="6" x="315.43" y="49.7441"/><text fill="#000000" font-family="sans-serif" font-size="14" lengthAdjust="spacing" textLength="128.126" x="327.43" y="56.5352">Fills Payment Form</text><rect fill="none" height="6" style="stroke:#C82930;stroke-width:1.0;" width="6" x="315.43" y="66.2324"/><text fill="#000000" font-family="sans-serif" font-size="14" lengthAdjust="spacing" textLength="101.0283" x="327.43" y="73.0234">Validates Form</text><rect fill="none" height="6" style="stroke:#C82930;stroke-width:1.0;" width="6" x="315.43" y="82.7207"/><text fill="#000000" font-family="sans-serif" font-size="14" lengthAdjust="spacing" textLength="114.9258" x="327.43" y="89.5117">Sends Form Data</text><rect fill="none" height="6" style="stroke:#C82930;stroke-width:1.0;" width="6" x="315.43" y="99.209"/><text fill="#000000" font-family="sans-serif" font-size="14" lengthAdjust="spacing" textLength="150.4111" x="327.43" y="106">Displays Confirmation</text><line style="stroke:#181818;stroke-width:0.5;" x1="308.43" x2="482.8411" y1="112.9531" y2="112.9531"/></g><!--class Browser--><g id="elem_Browser"><rect codeLine="11" fill="#F1F1F1" height="80.9766" id="Browser" rx="2.5" ry="2.5" style="stroke:#181818;stroke-width:0.5;" width="164.4277" x="313.42" y="197.95"/><ellipse cx="364.4674" cy="213.95" fill="#ADD1B2" rx="11" ry="11" style="stroke:#181818;stroke-width:1.0;"/><path d="M366.9405,220.0931 Q366.3595,220.3919 365.7203,220.5413 Q365.0811,220.6907 364.3756,220.6907 Q361.8687,220.6907 360.5489,219.0389 Q359.2291,217.387 359.2291,214.2659 Q359.2291,211.1365 360.5489,209.4847 Q361.8687,207.8328 364.3756,207.8328 Q365.0811,207.8328 365.7286,207.9822 Q366.3761,208.1316 366.9405,208.4305 L366.9405,211.1531 Q366.3096,210.5721 365.7161,210.3023 Q365.1226,210.0325 364.4918,210.0325 Q363.1471,210.0325 362.4622,211.0992 Q361.7774,212.1658 361.7774,214.2659 Q361.7774,216.3577 362.4622,217.4244 Q363.1471,218.491 364.4918,218.491 Q365.1226,218.491 365.7161,218.2212 Q366.3096,217.9515 366.9405,217.3704 Z " fill="#000000"/><text fill="#000000" font-family="sans-serif" font-size="14" lengthAdjust="spacing" textLength="53.833" x="384.9674" y="219.241">Browser</text><line style="stroke:#181818;stroke-width:0.5;" x1="314.42" x2="476.8477" y1="229.95" y2="229.95"/><rect fill="none" height="6" style="stroke:#C82930;stroke-width:1.0;" width="6" x="321.42" y="240.6941"/><text fill="#000000" font-family="sans-serif" font-size="14" lengthAdjust="spacing" textLength="96.9131" x="333.42" y="247.4852">Payment Form</text><rect fill="none" height="6" style="stroke:#C82930;stroke-width:1.0;" width="6" x="321.42" y="257.1824"/><text fill="#000000" font-family="sans-serif" font-size="14" lengthAdjust="spacing" textLength="138.4277" x="333.42" y="263.9734">Confirmation Screen</text><line style="stroke:#181818;stroke-width:0.5;" x1="314.42" x2="476.8477" y1="270.9266" y2="270.9266"/></g><!--class BackendService--><g id="elem_BackendService"><rect codeLine="16" fill="#F1F1F1" height="146.9297" id="BackendService" rx="2.5" ry="2.5" style="stroke:#181818;stroke-width:0.5;" width="161.4063" x="312.93" y="513.9"/><ellipse cx="339.4665" cy="529.9" fill="#ADD1B2" rx="11" ry="11" style="stroke:#181818;stroke-width:1.0;"/><path d="M341.9397,536.0431 Q341.3586,536.3419 340.7195,536.4913 Q340.0803,536.6407 339.3747,536.6407 Q336.8679,536.6407 335.5481,534.9889 Q334.2282,533.337 334.2282,530.2159 Q334.2282,527.0865 335.5481,525.4347 Q336.8679,523.7828 339.3747,523.7828 Q340.0803,523.7828 340.7278,523.9322 Q341.3752,524.0816 341.9397,524.3805 L341.9397,527.1031 Q341.3088,526.5221 340.7153,526.2523 Q340.1218,525.9825 339.4909,525.9825 Q338.1462,525.9825 337.4614,527.0492 Q336.7766,528.1158 336.7766,530.2159 Q336.7766,532.3077 337.4614,533.3744 Q338.1462,534.441 339.4909,534.441 Q340.1218,534.441 340.7153,534.1712 Q341.3088,533.9015 341.9397,533.3204 Z " fill="#000000"/><text fill="#000000" font-family="sans-serif" font-size="14" lengthAdjust="spacing" textLength="103.7695" x="356.0302" y="535.191">BackendService</text><line style="stroke:#181818;stroke-width:0.5;" x1="313.93" x2="473.3363" y1="545.9" y2="545.9"/><rect fill="none" height="6" style="stroke:#C82930;stroke-width:1.0;" width="6" x="320.93" y="556.6441"/><text fill="#000000" font-family="sans-serif" font-size="14" lengthAdjust="spacing" textLength="86.3311" x="332.93" y="563.4352">API Endpoint</text><rect fill="none" height="6" style="stroke:#C82930;stroke-width:1.0;" width="6" x="320.93" y="573.1324"/><text fill="#000000" font-family="sans-serif" font-size="14" lengthAdjust="spacing" textLength="103.708" x="332.93" y="579.9234">Data Validation</text><rect fill="none" height="6" style="stroke:#C82930;stroke-width:1.0;" width="6" x="320.93" y="589.6207"/><text fill="#000000" font-family="sans-serif" font-size="14" lengthAdjust="spacing" textLength="129.4111" x="332.93" y="596.4117">Invoice Verification</text><rect fill="none" height="6" style="stroke:#C82930;stroke-width:1.0;" width="6" x="320.93" y="606.109"/><text fill="#000000" font-family="sans-serif" font-size="14" lengthAdjust="spacing" textLength="134.7842" x="332.93" y="612.9">Payment Processing</text><rect fill="none" height="6" style="stroke:#C82930;stroke-width:1.0;" width="6" x="320.93" y="622.5973"/><text fill="#000000" font-family="sans-serif" font-size="14" lengthAdjust="spacing" textLength="135.4063" x="332.93" y="629.3883">Transaction Storage</text><rect fill="none" height="6" style="stroke:#C82930;stroke-width:1.0;" width="6" x="320.93" y="639.0855"/><text fill="#000000" font-family="sans-serif" font-size="14" lengthAdjust="spacing" textLength="88.2451" x="332.93" y="645.8766">Email Service</text><line style="stroke:#181818;stroke-width:0.5;" x1="313.93" x2="473.3363" y1="652.8297" y2="652.8297"/></g><!--class Stripe--><g id="elem_Stripe"><rect codeLine="25" fill="#F1F1F1" height="80.9766" id="Stripe" rx="2.5" ry="2.5" style="stroke:#181818;stroke-width:0.5;" width="160.7842" x="468.24" y="355.93"/><ellipse cx="524.8005" cy="371.93" fill="#ADD1B2" rx="11" ry="11" style="stroke:#181818;stroke-width:1.0;"/><path d="M527.2737,378.0731 Q526.6926,378.3719 526.0535,378.5213 Q525.4143,378.6707 524.7088,378.6707 Q522.2019,378.6707 520.8821,377.0189 Q519.5623,375.367 519.5623,372.2459 Q519.5623,369.1165 520.8821,367.4647 Q522.2019,365.8128 524.7088,365.8128 Q525.4143,365.8128 526.0618,365.9622 Q526.7092,366.1116 527.2737,366.4105 L527.2737,369.1331 Q526.6428,368.5521 526.0493,368.2823 Q525.4558,368.0125 524.825,368.0125 Q523.4802,368.0125 522.7954,369.0792 Q522.1106,370.1458 522.1106,372.2459 Q522.1106,374.3377 522.7954,375.4044 Q523.4802,376.471 524.825,376.471 Q525.4558,376.471 526.0493,376.2012 Q526.6428,375.9315 527.2737,375.3504 Z " fill="#000000"/><text fill="#000000" font-family="sans-serif" font-size="14" lengthAdjust="spacing" textLength="39.1631" x="545.3005" y="377.221">Stripe</text><line style="stroke:#181818;stroke-width:0.5;" x1="469.24" x2="628.0242" y1="387.93" y2="387.93"/><rect fill="none" height="6" style="stroke:#C82930;stroke-width:1.0;" width="6" x="476.24" y="398.6741"/><text fill="#000000" font-family="sans-serif" font-size="14" lengthAdjust="spacing" textLength="134.7842" x="488.24" y="405.4652">Payment Processing</text><rect fill="none" height="6" style="stroke:#C82930;stroke-width:1.0;" width="6" x="476.24" y="415.1624"/><text fill="#000000" font-family="sans-serif" font-size="14" lengthAdjust="spacing" textLength="121.3857" x="488.24" y="421.9534">Returns Response</text><line style="stroke:#181818;stroke-width:0.5;" x1="469.24" x2="628.0242" y1="428.9066" y2="428.9066"/></g><!--class Email--><g id="elem_Email"><rect codeLine="30" fill="#F1F1F1" height="64.4883" id="Email" rx="2.5" ry="2.5" style="stroke:#181818;stroke-width:0.5;" width="246.0352" x="270.61" y="737.83"/><ellipse cx="371.1359" cy="753.83" fill="#ADD1B2" rx="11" ry="11" style="stroke:#181818;stroke-width:1.0;"/><path d="M373.609,759.9731 Q373.028,760.2719 372.3888,760.4213 Q371.7496,760.5707 371.0441,760.5707 Q368.5372,760.5707 367.2174,758.9189 Q365.8976,757.267 365.8976,754.1459 Q365.8976,751.0165 367.2174,749.3647 Q368.5372,747.7128 371.0441,747.7128 Q371.7496,747.7128 372.3971,747.8622 Q373.0446,748.0116 373.609,748.3105 L373.609,751.0331 Q372.9782,750.4521 372.3847,750.1823 Q371.7912,749.9125 371.1603,749.9125 Q369.8156,749.9125 369.1308,750.9792 Q368.4459,752.0458 368.4459,754.1459 Q368.4459,756.2377 369.1308,757.3044 Q369.8156,758.371 371.1603,758.371 Q371.7912,758.371 372.3847,758.1012 Q372.9782,757.8315 373.609,757.2504 Z " fill="#000000"/><text fill="#000000" font-family="sans-serif" font-size="14" lengthAdjust="spacing" textLength="36.4834" x="391.6359" y="759.121">Email</text><line style="stroke:#181818;stroke-width:0.5;" x1="271.61" x2="515.6452" y1="769.83" y2="769.83"/><rect fill="none" height="6" style="stroke:#C82930;stroke-width:1.0;" width="6" x="278.61" y="780.5741"/><text fill="#000000" font-family="sans-serif" font-size="14" lengthAdjust="spacing" textLength="220.0352" x="290.61" y="787.3652">Transaction confirmation details</text><line style="stroke:#181818;stroke-width:0.5;" x1="271.61" x2="515.6452" y1="794.3183" y2="794.3183"/></g><!--link User to Browser--><g id="link_User_Browser"><path codeLine="34" d="M332.71,121.45 C325.77,130.59 319.74,140.51 315.63,150.95 C308.82,168.27 312.7205,179.9642 326.0405,193.3042 " fill="none" id="User-to-Browser" style="stroke:#181818;stroke-width:1.0;"/><polygon fill="#181818" points="330.28,197.55,326.7514,188.355,326.7471,194.0118,321.0903,194.0076,330.28,197.55" style="stroke:#181818;stroke-width:1.0;"/><text fill="#000000" font-family="sans-serif" font-size="13" lengthAdjust="spacing" textLength="112.3472" x="316.63" y="164.5184">Fill Payment Form</text></g><!--link Browser to User--><g id="link_Browser_User"><path codeLine="44" d="M421.74,197.7 C426.64,188.31 431.04,178.07 433.63,167.95 C437.57,152.53 436.9302,141.8661 431.5402,126.8761 " fill="none" id="Browser-to-User" style="stroke:#181818;stroke-width:1.0;"/><polygon fill="#181818" points="429.51,121.23,428.7912,131.0526,431.2018,125.9351,436.3193,128.3457,429.51,121.23" style="stroke:#181818;stroke-width:1.0;"/><text fill="#000000" font-family="sans-serif" font-size="13" lengthAdjust="spacing" textLength="133.0405" x="435.63" y="164.5184">Display Confirmation</text></g><!--link Browser to BackendService--><g id="link_Browser_BackendService"><path codeLine="35" d="M313,241.3 C233.46,248.21 118.27,272.97 69.63,355.93 C6,464.45 191.3954,533.6469 306.8254,565.4369 " fill="none" id="Browser-to-BackendService" style="stroke:#181818;stroke-width:1.0;"/><polygon fill="#181818" points="312.61,567.03,304.9951,560.7839,307.7895,565.7024,302.871,568.4967,312.61,567.03" style="stroke:#181818;stroke-width:1.0;"/><text fill="#000000" font-family="sans-serif" font-size="13" lengthAdjust="spacing" textLength="65.4824" x="70.63" y="401.4784">Form Data</text></g><!--link Browser to BackendService--><g id="link_Browser_BackendService"><path codeLine="36" d="M313.34,268.03 C273.55,286.49 229.56,314.87 206.63,355.93 C189.09,387.35 191.03,404.47 206.63,436.9 C228.79,482.97 267.756,516.0619 307.536,541.3419 " fill="none" id="Browser-to-BackendService-1" style="stroke:#181818;stroke-width:1.0;"/><polygon fill="#181818" points="312.6,544.56,307.1495,536.3568,308.38,541.8782,302.8586,543.1088,312.6,544.56" style="stroke:#181818;stroke-width:1.0;"/><text fill="#000000" font-family="sans-serif" font-size="13" lengthAdjust="spacing" textLength="84.6904" x="207.63" y="401.4784">Verify Invoice</text></g><!--link BackendService to Browser--><g id="link_BackendService_Browser"><path codeLine="37" d="M474.64,577.65 C534.03,566.54 610.79,541.29 649.63,483.9 C693.57,418.99 685.58,361.71 627.63,308.93 C586.84,271.76 532.8096,255.4189 484.0696,247.3589 " fill="none" id="BackendService-to-Browser" style="stroke:#181818;stroke-width:1.0;"/><polygon fill="#181818" points="478.15,246.38,486.3768,251.7948,483.083,247.1958,487.682,243.902,478.15,246.38" style="stroke:#181818;stroke-width:1.0;"/><text fill="#000000" font-family="sans-serif" font-size="13" lengthAdjust="spacing" textLength="97.0811" x="678.63" y="401.4784">Invoice Verified</text></g><!--link Browser to BackendService--><g id="link_Browser_BackendService"><path codeLine="40" d="M376.87,279.42 C367.57,301.46 357.33,329.61 352.63,355.93 C343.22,408.63 352.6924,462.3535 365.7224,507.6835 " fill="none" id="Browser-to-BackendService-2" style="stroke:#181818;stroke-width:1.0;"/><polygon fill="#181818" points="367.38,513.45,368.738,503.6952,365.9987,508.6446,361.0493,505.9053,367.38,513.45" style="stroke:#181818;stroke-width:1.0;"/><text fill="#000000" font-family="sans-serif" font-size="13" lengthAdjust="spacing" textLength="96.6938" x="353.63" y="401.4784">Payment Token</text></g><!--link BackendService to Browser--><g id="link_BackendService_Browser"><path codeLine="43" d="M474.61,572.98 C612.43,546.56 869.8,479.29 784.63,355.93 C749.69,305.31 587.5548,270.5773 484.0948,252.9573 " fill="none" id="BackendService-to-Browser-1" style="stroke:#181818;stroke-width:1.0;"/><polygon fill="#181818" points="478.18,251.95,486.3807,257.4042,483.109,252.7894,487.7238,249.5178,478.18,251.95" style="stroke:#181818;stroke-width:1.0;"/><text fill="#000000" font-family="sans-serif" font-size="13" lengthAdjust="spacing" textLength="117.7744" x="801.63" y="401.4784">Payment Response</text></g><!--link Browser to Stripe--><g id="link_Browser_Stripe"><path codeLine="38" d="M384.92,279.09 C382.95,294.8 383.8,312.32 392.63,325.93 C397.5,333.42 426.7941,346.9602 462.3241,361.6302 " fill="none" id="Browser-to-Stripe" style="stroke:#181818;stroke-width:1.0;"/><polygon fill="#181818" points="467.87,363.92,461.0778,356.788,463.2484,362.0118,458.0246,364.1825,467.87,363.92" style="stroke:#181818;stroke-width:1.0;"/><text fill="#000000" font-family="sans-serif" font-size="13" lengthAdjust="spacing" textLength="111.1602" x="393.63" y="322.4984">Initialize Payment</text></g><!--link Stripe to Browser--><g id="link_Stripe_Browser"><path codeLine="39" d="M536.41,355.49 C530.19,339.73 521.41,322.26 509.63,308.93 C499.81,297.81 492.7269,291.3053 480.1969,282.7053 " fill="none" id="Stripe-to-Browser" style="stroke:#181818;stroke-width:1.0;"/><polygon fill="#181818" points="475.25,279.31,480.4068,287.7009,479.3724,282.1394,484.9339,281.105,475.25,279.31" style="stroke:#181818;stroke-width:1.0;"/><text fill="#000000" font-family="sans-serif" font-size="13" lengthAdjust="spacing" textLength="96.6938" x="522.63" y="322.4984">Payment Token</text></g><!--link BackendService to Stripe--><g id="link_BackendService_Stripe"><path codeLine="41" d="M474.8,526.49 C488.97,513.54 502.66,499.13 513.63,483.9 C523.67,469.97 529.3363,458.3876 534.9463,442.9876 " fill="none" id="BackendService-to-Stripe" style="stroke:#181818;stroke-width:1.0;"/><polygon fill="#181818" points="537,437.35,530.1611,444.4372,535.2886,442.048,537.6779,447.1755,537,437.35" style="stroke:#181818;stroke-width:1.0;"/><text fill="#000000" font-family="sans-serif" font-size="13" lengthAdjust="spacing" textLength="117.9839" x="523.63" y="480.4684">Complete Payment</text></g><!--link Stripe to BackendService--><g id="link_Stripe_BackendService"><path codeLine="42" d="M468,427.47 C430.02,442.43 391.85,458.98 386.63,466.9 C377.6,480.61 374.6421,491.2324 375.1021,507.6624 " fill="none" id="Stripe-to-BackendService" style="stroke:#181818;stroke-width:1.0;"/><polygon fill="#181818" points="375.27,513.66,379.0166,504.5516,375.1301,508.662,371.0197,504.7755,375.27,513.66" style="stroke:#181818;stroke-width:1.0;"/><text fill="#000000" font-family="sans-serif" font-size="13" lengthAdjust="spacing" textLength="117.7744" x="387.63" y="480.4684">Payment Response</text></g><!--link BackendService to Email--><g id="link_BackendService_Email"><path codeLine="45" d="M393.63,661.09 C393.63,687.76 393.63,710.57 393.63,731.72 " fill="none" id="BackendService-to-Email" style="stroke:#181818;stroke-width:1.0;"/><polygon fill="#181818" points="393.63,737.72,397.63,728.72,393.63,732.72,389.63,728.72,393.63,737.72" style="stroke:#181818;stroke-width:1.0;"/><text fill="#000000" font-family="sans-serif" font-size="13" lengthAdjust="spacing" textLength="155.4922" x="394.63" y="704.3984">Send Confirmation Email</text></g><!--SRC=[VLFHRi8m37plLtWVm0_mC6c3CY5D4wB0kvKQP2rDgZXZOcZ_lZPjQTCodb3FzjtbZ9zoEh8XsAQBtSl7stiAIgD8alJ0NiZ1DG6OmOgr5jZWfI3ZOMLT4U03QixHa_HGHYPlFc697WEsP2arNWGMrXpP5UZPckHtgFNgx7SlDn4Q3aAc7D5u7jLdfPoHExEYbkPbiuRKvALbuniZbQFET6sXnjRcREkH0pa-ikeBdOcDiuf4s9m2l7De15NZn5k79mfuMY1hQ0t4vZBlkAJHsqQqM_9VpaZrAwKrCc9eoAyJ0sgOIqw-wf9wCgnkDdk-vJeFAuo3xMgXByvlFjZWmxQGsgKBCHdLOmTnqfH7p6r6THTxhbRqGvtRfAt5RDrJThPIV6nor3hrU1DVsABKvEzB_qTxMzd3rq-x1vRtJKzxAF6Tt65j_WxpS6pnROJA7m00]--></g></svg>