<svg xmlns="http://www.w3.org/2000/svg" xmlns:xlink="http://www.w3.org/1999/xlink" contentStyleType="text/css" height="792px" preserveAspectRatio="none" style="width:473px;height:792px;background:#FFFFFF;" version="1.1" viewBox="0 0 473 792" width="473px" zoomAndPan="magnify"><defs/><g><!--class User--><g id="elem_User"><rect codeLine="4" fill="#F1F1F1" height="80.9766" id="User" rx="2.5" ry="2.5" style="stroke:#181818;stroke-width:0.5;" width="232.9717" x="57.44" y="7"/><ellipse cx="154.4932" cy="23" fill="#ADD1B2" rx="11" ry="11" style="stroke:#181818;stroke-width:1.0;"/><path d="M156.9664,29.1431 Q156.3853,29.4419 155.7462,29.5913 Q155.107,29.7407 154.4014,29.7407 Q151.8946,29.7407 150.5748,28.0889 Q149.2549,26.437 149.2549,23.3159 Q149.2549,20.1865 150.5748,18.5347 Q151.8946,16.8828 154.4014,16.8828 Q155.107,16.8828 155.7545,17.0322 Q156.4019,17.1816 156.9664,17.4805 L156.9664,20.2031 Q156.3355,19.6221 155.742,19.3523 Q155.1485,19.0825 154.5176,19.0825 Q153.1729,19.0825 152.4881,20.1492 Q151.8033,21.2158 151.8033,23.3159 Q151.8033,25.4077 152.4881,26.4744 Q153.1729,27.541 154.5176,27.541 Q155.1485,27.541 155.742,27.2712 Q156.3355,27.0015 156.9664,26.4204 Z " fill="#000000"/><text fill="#000000" font-family="sans-serif" font-size="14" lengthAdjust="spacing" textLength="30.3652" x="174.9932" y="28.291">User</text><line style="stroke:#181818;stroke-width:0.5;" x1="58.44" x2="289.4117" y1="39" y2="39"/><rect fill="none" height="6" style="stroke:#C82930;stroke-width:1.0;" width="6" x="65.44" y="49.7441"/><text fill="#000000" font-family="sans-serif" font-size="14" lengthAdjust="spacing" textLength="128.126" x="77.44" y="56.5352">Fills Payment Form</text><rect fill="none" height="6" style="stroke:#C82930;stroke-width:1.0;" width="6" x="65.44" y="66.2324"/><text fill="#000000" font-family="sans-serif" font-size="14" lengthAdjust="spacing" textLength="206.9717" x="77.44" y="73.0234">Displays Confirmation or Error</text><line style="stroke:#181818;stroke-width:0.5;" x1="58.44" x2="289.4117" y1="79.9766" y2="79.9766"/></g><!--class Browser--><g id="elem_Browser"><rect codeLine="9" fill="#F1F1F1" height="113.9531" id="Browser" rx="2.5" ry="2.5" style="stroke:#181818;stroke-width:0.5;" width="171.9951" x="87.93" y="164.98"/><ellipse cx="142.7611" cy="180.98" fill="#ADD1B2" rx="11" ry="11" style="stroke:#181818;stroke-width:1.0;"/><path d="M145.2342,187.1231 Q144.6531,187.4219 144.014,187.5713 Q143.3748,187.7207 142.6693,187.7207 Q140.1624,187.7207 138.8426,186.0689 Q137.5228,184.417 137.5228,181.2959 Q137.5228,178.1665 138.8426,176.5147 Q140.1624,174.8628 142.6693,174.8628 Q143.3748,174.8628 144.0223,175.0122 Q144.6697,175.1616 145.2342,175.4605 L145.2342,178.1831 Q144.6033,177.6021 144.0098,177.3323 Q143.4163,177.0625 142.7855,177.0625 Q141.4407,177.0625 140.7559,178.1292 Q140.0711,179.1958 140.0711,181.2959 Q140.0711,183.3877 140.7559,184.4544 Q141.4407,185.521 142.7855,185.521 Q143.4163,185.521 144.0098,185.2512 Q144.6033,184.9815 145.2342,184.4004 Z " fill="#000000"/><text fill="#000000" font-family="sans-serif" font-size="14" lengthAdjust="spacing" textLength="53.833" x="163.2611" y="186.271">Browser</text><line style="stroke:#181818;stroke-width:0.5;" x1="88.93" x2="258.9251" y1="196.98" y2="196.98"/><rect fill="none" height="6" style="stroke:#C82930;stroke-width:1.0;" width="6" x="95.93" y="207.7241"/><text fill="#000000" font-family="sans-serif" font-size="14" lengthAdjust="spacing" textLength="96.9131" x="107.93" y="214.5152">Payment Form</text><rect fill="none" height="6" style="stroke:#C82930;stroke-width:1.0;" width="6" x="95.93" y="224.2124"/><text fill="#000000" font-family="sans-serif" font-size="14" lengthAdjust="spacing" textLength="138.4277" x="107.93" y="231.0034">Confirmation Screen</text><rect fill="none" height="6" style="stroke:#C82930;stroke-width:1.0;" width="6" x="95.93" y="240.7007"/><text fill="#000000" font-family="sans-serif" font-size="14" lengthAdjust="spacing" textLength="101.0283" x="107.93" y="247.4917">Validates Form</text><rect fill="none" height="6" style="stroke:#C82930;stroke-width:1.0;" width="6" x="95.93" y="257.189"/><text fill="#000000" font-family="sans-serif" font-size="14" lengthAdjust="spacing" textLength="145.9951" x="107.93" y="263.98">Sends payment token</text><line style="stroke:#181818;stroke-width:0.5;" x1="88.93" x2="258.9251" y1="270.9331" y2="270.9331"/></g><!--class BackendService--><g id="elem_BackendService"><rect codeLine="16" fill="#F1F1F1" height="130.4414" id="BackendService" rx="2.5" ry="2.5" style="stroke:#181818;stroke-width:0.5;" width="161.4063" x="79.22" y="513.91"/><ellipse cx="105.7565" cy="529.91" fill="#ADD1B2" rx="11" ry="11" style="stroke:#181818;stroke-width:1.0;"/><path d="M108.2297,536.0531 Q107.6486,536.3519 107.0095,536.5013 Q106.3703,536.6507 105.6647,536.6507 Q103.1579,536.6507 101.8381,534.9989 Q100.5182,533.347 100.5182,530.2259 Q100.5182,527.0965 101.8381,525.4447 Q103.1579,523.7928 105.6647,523.7928 Q106.3703,523.7928 107.0178,523.9422 Q107.6652,524.0916 108.2297,524.3905 L108.2297,527.1131 Q107.5988,526.5321 107.0053,526.2623 Q106.4118,525.9925 105.7809,525.9925 Q104.4362,525.9925 103.7514,527.0592 Q103.0666,528.1258 103.0666,530.2259 Q103.0666,532.3177 103.7514,533.3844 Q104.4362,534.451 105.7809,534.451 Q106.4118,534.451 107.0053,534.1812 Q107.5988,533.9115 108.2297,533.3304 Z " fill="#000000"/><text fill="#000000" font-family="sans-serif" font-size="14" lengthAdjust="spacing" textLength="103.7695" x="122.3202" y="535.201">BackendService</text><line style="stroke:#181818;stroke-width:0.5;" x1="80.22" x2="239.6263" y1="545.91" y2="545.91"/><rect fill="none" height="6" style="stroke:#C82930;stroke-width:1.0;" width="6" x="87.22" y="556.6541"/><text fill="#000000" font-family="sans-serif" font-size="14" lengthAdjust="spacing" textLength="86.3311" x="99.22" y="563.4452">API Endpoint</text><rect fill="none" height="6" style="stroke:#C82930;stroke-width:1.0;" width="6" x="87.22" y="573.1424"/><text fill="#000000" font-family="sans-serif" font-size="14" lengthAdjust="spacing" textLength="103.708" x="99.22" y="579.9334">Data Validation</text><rect fill="none" height="6" style="stroke:#C82930;stroke-width:1.0;" width="6" x="87.22" y="589.6307"/><text fill="#000000" font-family="sans-serif" font-size="14" lengthAdjust="spacing" textLength="134.7842" x="99.22" y="596.4217">Payment Processing</text><rect fill="none" height="6" style="stroke:#C82930;stroke-width:1.0;" width="6" x="87.22" y="606.119"/><text fill="#000000" font-family="sans-serif" font-size="14" lengthAdjust="spacing" textLength="135.4063" x="99.22" y="612.91">Transaction Storage</text><rect fill="none" height="6" style="stroke:#C82930;stroke-width:1.0;" width="6" x="87.22" y="622.6073"/><text fill="#000000" font-family="sans-serif" font-size="14" lengthAdjust="spacing" textLength="88.2451" x="99.22" y="629.3983">Email Service</text><line style="stroke:#181818;stroke-width:0.5;" x1="80.22" x2="239.6263" y1="636.3514" y2="636.3514"/></g><!--class Stripe--><g id="elem_Stripe"><rect codeLine="24" fill="#F1F1F1" height="80.9766" id="Stripe" rx="2.5" ry="2.5" style="stroke:#181818;stroke-width:0.5;" width="186.6924" x="136.58" y="355.93"/><ellipse cx="206.0946" cy="371.93" fill="#ADD1B2" rx="11" ry="11" style="stroke:#181818;stroke-width:1.0;"/><path d="M208.5678,378.0731 Q207.9867,378.3719 207.3476,378.5213 Q206.7084,378.6707 206.0029,378.6707 Q203.496,378.6707 202.1762,377.0189 Q200.8564,375.367 200.8564,372.2459 Q200.8564,369.1165 202.1762,367.4647 Q203.496,365.8128 206.0029,365.8128 Q206.7084,365.8128 207.3559,365.9622 Q208.0033,366.1116 208.5678,366.4105 L208.5678,369.1331 Q207.9369,368.5521 207.3434,368.2823 Q206.7499,368.0125 206.1191,368.0125 Q204.7743,368.0125 204.0895,369.0792 Q203.4047,370.1458 203.4047,372.2459 Q203.4047,374.3377 204.0895,375.4044 Q204.7743,376.471 206.1191,376.471 Q206.7499,376.471 207.3434,376.2012 Q207.9369,375.9315 208.5678,375.3504 Z " fill="#000000"/><text fill="#000000" font-family="sans-serif" font-size="14" lengthAdjust="spacing" textLength="39.1631" x="226.5946" y="377.221">Stripe</text><line style="stroke:#181818;stroke-width:0.5;" x1="137.58" x2="322.2724" y1="387.93" y2="387.93"/><rect fill="none" height="6" style="stroke:#C82930;stroke-width:1.0;" width="6" x="144.58" y="398.6741"/><text fill="#000000" font-family="sans-serif" font-size="14" lengthAdjust="spacing" textLength="134.7842" x="156.58" y="405.4652">Payment Processing</text><rect fill="none" height="6" style="stroke:#C82930;stroke-width:1.0;" width="6" x="144.58" y="415.1624"/><text fill="#000000" font-family="sans-serif" font-size="14" lengthAdjust="spacing" textLength="160.6924" x="156.58" y="421.9534">Returns Payment Token</text><line style="stroke:#181818;stroke-width:0.5;" x1="137.58" x2="322.2724" y1="428.9066" y2="428.9066"/></g><!--class Email--><g id="elem_Email"><rect codeLine="29" fill="#F1F1F1" height="64.4883" id="Email" rx="2.5" ry="2.5" style="stroke:#181818;stroke-width:0.5;" width="88.3438" x="115.75" y="721.35"/><ellipse cx="139.6872" cy="737.35" fill="#ADD1B2" rx="11" ry="11" style="stroke:#181818;stroke-width:1.0;"/><path d="M142.1603,743.4931 Q141.5792,743.7919 140.9401,743.9413 Q140.3009,744.0907 139.5954,744.0907 Q137.0885,744.0907 135.7687,742.4389 Q134.4489,740.787 134.4489,737.6659 Q134.4489,734.5365 135.7687,732.8847 Q137.0885,731.2328 139.5954,731.2328 Q140.3009,731.2328 140.9484,731.3822 Q141.5958,731.5316 142.1603,731.8305 L142.1603,734.5531 Q141.5294,733.9721 140.9359,733.7023 Q140.3424,733.4325 139.7116,733.4325 Q138.3668,733.4325 137.682,734.4992 Q136.9972,735.5658 136.9972,737.6659 Q136.9972,739.7577 137.682,740.8244 Q138.3668,741.891 139.7116,741.891 Q140.3424,741.891 140.9359,741.6212 Q141.5294,741.3515 142.1603,740.7704 Z " fill="#000000"/><text fill="#000000" font-family="sans-serif" font-size="14" lengthAdjust="spacing" textLength="36.4834" x="155.6732" y="742.641">Email</text><line style="stroke:#181818;stroke-width:0.5;" x1="116.75" x2="203.0938" y1="753.35" y2="753.35"/><rect fill="none" height="6" style="stroke:#C82930;stroke-width:1.0;" width="6" x="123.75" y="764.0941"/><text fill="#000000" font-family="sans-serif" font-size="14" lengthAdjust="spacing" textLength="62.3438" x="135.75" y="770.8852">Email API</text><line style="stroke:#181818;stroke-width:0.5;" x1="116.75" x2="203.0938" y1="777.8383" y2="777.8383"/></g><!--link User to Browser--><g id="link_User_Browser"><path codeLine="33" d="M108.57,88.38 C95.25,101.72 87.11,117.66 93.92,134.98 C98.03,145.42 100.4283,150.5639 107.3783,159.7039 " fill="none" id="User-to-Browser" style="stroke:#181818;stroke-width:1.0;"/><polygon fill="#181818" points="111.01,164.48,108.7465,154.8948,107.9836,160.4999,102.3784,159.737,111.01,164.48" style="stroke:#181818;stroke-width:1.0;"/><text fill="#000000" font-family="sans-serif" font-size="13" lengthAdjust="spacing" textLength="112.3472" x="94.92" y="131.5484">Fill Payment Form</text></g><!--link Browser to User--><g id="link_Browser_User"><path codeLine="40" d="M207.8,164.7 C213.19,149.71 215.86,133.4 211.92,117.98 C209.34,107.86 207.7202,102.937 202.8102,93.547 " fill="none" id="Browser-to-User" style="stroke:#181818;stroke-width:1.0;"/><polygon fill="#181818" points="200.03,88.23,200.6557,98.059,202.3469,92.6608,207.745,94.352,200.03,88.23" style="stroke:#181818;stroke-width:1.0;"/><text fill="#000000" font-family="sans-serif" font-size="13" lengthAdjust="spacing" textLength="133.0405" x="213.92" y="131.5484">Display Confirmation</text></g><!--link Browser to Stripe--><g id="link_Browser_Stripe"><path codeLine="34" d="M100.52,279.41 C89.89,294.12 85.36,310.26 94.92,325.93 C104.81,342.14 114.6436,351.6691 131.1036,361.3891 " fill="none" id="Browser-to-Stripe" style="stroke:#181818;stroke-width:1.0;"/><polygon fill="#181818" points="136.27,364.44,130.5543,356.4194,131.9646,361.8976,126.4864,363.3079,136.27,364.44" style="stroke:#181818;stroke-width:1.0;"/><text fill="#000000" font-family="sans-serif" font-size="13" lengthAdjust="spacing" textLength="111.1602" x="95.92" y="322.4984">Initialize Payment</text></g><!--link Stripe to Browser--><g id="link_Stripe_Browser"><path codeLine="35" d="M223.5,355.79 C220.61,340.91 216.75,323.97 211.92,308.93 C208.78,299.14 207.1929,294.5063 203.1029,284.7163 " fill="none" id="Stripe-to-Browser" style="stroke:#181818;stroke-width:1.0;"/><polygon fill="#181818" points="200.79,279.18,200.5685,289.0264,202.7174,283.7936,207.9502,285.9425,200.79,279.18" style="stroke:#181818;stroke-width:1.0;"/><text fill="#000000" font-family="sans-serif" font-size="13" lengthAdjust="spacing" textLength="96.6938" x="216.92" y="322.4984">Payment Token</text></g><!--link Browser to BackendService--><g id="link_Browser_BackendService"><path codeLine="36" d="M87.77,276.21 C61.26,297.43 35.3,324.39 20.92,355.93 C6,388.68 8.5,403.13 20.92,436.91 C32.45,468.23 50.8309,491.9671 74.6409,514.4871 " fill="none" id="Browser-to-BackendService" style="stroke:#181818;stroke-width:1.0;"/><polygon fill="#181818" points="79,518.61,75.21,509.5196,75.3674,515.1742,69.7128,515.3317,79,518.61" style="stroke:#181818;stroke-width:1.0;"/><text fill="#000000" font-family="sans-serif" font-size="13" lengthAdjust="spacing" textLength="96.6938" x="21.92" y="401.4884">Payment Token</text></g><!--link BackendService to Browser--><g id="link_BackendService_Browser"><path codeLine="39" d="M240.85,552.73 C274.81,537.98 311.55,515.84 333.92,483.91 C346.04,466.61 339.36,457.97 340.92,436.91 C345.17,379.57 359.59,352.38 321.92,308.93 C304.99,289.4 287.6706,276.2124 265.3206,263.3524 " fill="none" id="BackendService-to-Browser" style="stroke:#181818;stroke-width:1.0;"/><polygon fill="#181818" points="260.12,260.36,265.9259,268.3156,264.4538,262.8536,269.9157,261.3815,260.12,260.36" style="stroke:#181818;stroke-width:1.0;"/><text fill="#000000" font-family="sans-serif" font-size="13" lengthAdjust="spacing" textLength="117.7744" x="347.92" y="401.4884">Payment Response</text></g><!--link BackendService to Stripe--><g id="link_BackendService_Stripe"><path codeLine="37" d="M188.9,513.56 C193.08,503.69 197.21,493.57 200.92,483.91 C206.72,468.83 210.6223,457.7386 215.4823,442.9886 " fill="none" id="BackendService-to-Stripe" style="stroke:#181818;stroke-width:1.0;"/><polygon fill="#181818" points="217.36,437.29,210.7444,444.5862,215.7953,442.0389,218.3426,447.0897,217.36,437.29" style="stroke:#181818;stroke-width:1.0;"/><text fill="#000000" font-family="sans-serif" font-size="13" lengthAdjust="spacing" textLength="117.9839" x="207.92" y="480.4784">Complete Payment</text></g><!--link Stripe to BackendService--><g id="link_Stripe_BackendService"><path codeLine="38" d="M136.15,429.36 C107.82,441.02 82.04,454.41 73.92,466.91 C63.29,483.29 64.2295,495.3956 75.3195,511.0356 " fill="none" id="Stripe-to-BackendService" style="stroke:#181818;stroke-width:1.0;"/><polygon fill="#181818" points="78.79,515.93,76.8471,506.2747,75.8979,511.8513,70.3212,510.9021,78.79,515.93" style="stroke:#181818;stroke-width:1.0;"/><text fill="#000000" font-family="sans-serif" font-size="13" lengthAdjust="spacing" textLength="117.7744" x="74.92" y="480.4784">Payment Response</text></g><!--link BackendService to Email--><g id="link_BackendService_Email"><path codeLine="41" d="M159.92,644.84 C159.92,670.84 159.92,693.63 159.92,714.9 " fill="none" id="BackendService-to-Email" style="stroke:#181818;stroke-width:1.0;"/><polygon fill="#181818" points="159.92,720.9,163.92,711.9,159.92,715.9,155.92,711.9,159.92,720.9" style="stroke:#181818;stroke-width:1.0;"/><text fill="#000000" font-family="sans-serif" font-size="13" lengthAdjust="spacing" textLength="155.4922" x="160.92" y="687.9184">Send Confirmation Email</text></g><!--SRC=[TP9DJiD038NtEOKvG2_G1HAK55L2g6fQzbRYLXOJJsGFe59nTz99IZ9DsTfFttl-kQjepqAmoHVRXzVdbnnAXsPPDXHsHWgd3606ItREO8t7cYJ0qciToqziZSEZmSBBdhN6m5x0A-IgNhEVCUrH_TS0dA0IGb4gaSJw6pgkC90DqeAaCcXwGl3lhJIrmhAjLGNf9vVKEpwiLv1BrNYMq8N7W1TyQvh4MgiloOpb4CjRHJ4iksp1AnuerlCQsK7lasOeWd93LzDUOJSKFbI6lMwdetGEfv5REyTP4eypczt_xNKUZvGkzj8xw_f0SrW91sx7_gQBEEjxAIvDDKPTxNSYJTk9-SBNZQDms_e_x8QiyM9qYppDEwX7aNUTfd_OvDjkKRjLp-EhfQyPExy0]--></g></svg>