<svg xmlns="http://www.w3.org/2000/svg" xmlns:xlink="http://www.w3.org/1999/xlink" contentStyleType="text/css" height="618px" preserveAspectRatio="none" style="width:848px;height:618px;background:#FFFFFF;" version="1.1" viewBox="0 0 848 618" width="848px" zoomAndPan="magnify"><defs/><g><!--class User--><g id="elem_User"><rect codeLine="4" fill="#F1F1F1" height="80.9766" id="User" rx="2.5" ry="2.5" style="stroke:#181818;stroke-width:0.5;" width="232.9717" x="291.53" y="7"/><ellipse cx="388.5832" cy="23" fill="#ADD1B2" rx="11" ry="11" style="stroke:#181818;stroke-width:1.0;"/><path d="M391.0564,29.1431 Q390.4753,29.4419 389.8362,29.5913 Q389.197,29.7407 388.4914,29.7407 Q385.9846,29.7407 384.6648,28.0889 Q383.3449,26.437 383.3449,23.3159 Q383.3449,20.1865 384.6648,18.5347 Q385.9846,16.8828 388.4914,16.8828 Q389.197,16.8828 389.8445,17.0322 Q390.4919,17.1816 391.0564,17.4805 L391.0564,20.2031 Q390.4255,19.6221 389.832,19.3523 Q389.2385,19.0825 388.6076,19.0825 Q387.2629,19.0825 386.5781,20.1492 Q385.8933,21.2158 385.8933,23.3159 Q385.8933,25.4077 386.5781,26.4744 Q387.2629,27.541 388.6076,27.541 Q389.2385,27.541 389.832,27.2712 Q390.4255,27.0015 391.0564,26.4204 Z " fill="#000000"/><text fill="#000000" font-family="sans-serif" font-size="14" lengthAdjust="spacing" textLength="30.3652" x="409.0832" y="28.291">User</text><line style="stroke:#181818;stroke-width:0.5;" x1="292.53" x2="523.5017" y1="39" y2="39"/><rect fill="none" height="6" style="stroke:#C82930;stroke-width:1.0;" width="6" x="299.53" y="49.7441"/><text fill="#000000" font-family="sans-serif" font-size="14" lengthAdjust="spacing" textLength="128.126" x="311.53" y="56.5352">Fills Payment Form</text><rect fill="none" height="6" style="stroke:#C82930;stroke-width:1.0;" width="6" x="299.53" y="66.2324"/><text fill="#000000" font-family="sans-serif" font-size="14" lengthAdjust="spacing" textLength="206.9717" x="311.53" y="73.0234">Displays Confirmation or Error</text><line style="stroke:#181818;stroke-width:0.5;" x1="292.53" x2="523.5017" y1="79.9766" y2="79.9766"/></g><!--class Browser--><g id="elem_Browser"><rect codeLine="9" fill="#F1F1F1" height="130.4414" id="Browser" rx="2.5" ry="2.5" style="stroke:#181818;stroke-width:0.5;" width="171.9951" x="322.02" y="164.98"/><ellipse cx="376.8511" cy="180.98" fill="#ADD1B2" rx="11" ry="11" style="stroke:#181818;stroke-width:1.0;"/><path d="M379.3242,187.1231 Q378.7431,187.4219 378.104,187.5713 Q377.4648,187.7207 376.7593,187.7207 Q374.2524,187.7207 372.9326,186.0689 Q371.6128,184.417 371.6128,181.2959 Q371.6128,178.1665 372.9326,176.5147 Q374.2524,174.8628 376.7593,174.8628 Q377.4648,174.8628 378.1123,175.0122 Q378.7597,175.1616 379.3242,175.4605 L379.3242,178.1831 Q378.6933,177.6021 378.0998,177.3323 Q377.5063,177.0625 376.8755,177.0625 Q375.5307,177.0625 374.8459,178.1292 Q374.1611,179.1958 374.1611,181.2959 Q374.1611,183.3877 374.8459,184.4544 Q375.5307,185.521 376.8755,185.521 Q377.5063,185.521 378.0998,185.2512 Q378.6933,184.9815 379.3242,184.4004 Z " fill="#000000"/><text fill="#000000" font-family="sans-serif" font-size="14" lengthAdjust="spacing" textLength="53.833" x="397.3511" y="186.271">Browser</text><line style="stroke:#181818;stroke-width:0.5;" x1="323.02" x2="493.0151" y1="196.98" y2="196.98"/><rect fill="none" height="6" style="stroke:#C82930;stroke-width:1.0;" width="6" x="330.02" y="207.7241"/><text fill="#000000" font-family="sans-serif" font-size="14" lengthAdjust="spacing" textLength="96.9131" x="342.02" y="214.5152">Payment Form</text><rect fill="none" height="6" style="stroke:#C82930;stroke-width:1.0;" width="6" x="330.02" y="224.2124"/><text fill="#000000" font-family="sans-serif" font-size="14" lengthAdjust="spacing" textLength="138.4277" x="342.02" y="231.0034">Confirmation Screen</text><rect fill="none" height="6" style="stroke:#C82930;stroke-width:1.0;" width="6" x="330.02" y="240.7007"/><text fill="#000000" font-family="sans-serif" font-size="14" lengthAdjust="spacing" textLength="101.0283" x="342.02" y="247.4917">Validates Form</text><rect fill="none" height="6" style="stroke:#C82930;stroke-width:1.0;" width="6" x="330.02" y="257.189"/><text fill="#000000" font-family="sans-serif" font-size="14" lengthAdjust="spacing" textLength="145.9951" x="342.02" y="263.98">Sends payment token</text><rect fill="none" height="6" style="stroke:#C82930;stroke-width:1.0;" width="6" x="330.02" y="273.6773"/><text fill="#000000" font-family="sans-serif" font-size="14" lengthAdjust="spacing" textLength="135.8574" x="342.02" y="280.4683">Payment processing</text><line style="stroke:#181818;stroke-width:0.5;" x1="323.02" x2="493.0151" y1="287.4214" y2="287.4214"/></g><!--class BackendService--><g id="elem_BackendService"><rect codeLine="17" fill="#F1F1F1" height="97.4648" id="BackendService" rx="2.5" ry="2.5" style="stroke:#181818;stroke-width:0.5;" width="155.4111" x="52.31" y="372.42"/><ellipse cx="76.1487" cy="388.42" fill="#ADD1B2" rx="11" ry="11" style="stroke:#181818;stroke-width:1.0;"/><path d="M78.6219,394.5631 Q78.0408,394.8619 77.4017,395.0113 Q76.7625,395.1607 76.0569,395.1607 Q73.5501,395.1607 72.2303,393.5089 Q70.9104,391.857 70.9104,388.7359 Q70.9104,385.6065 72.2303,383.9547 Q73.5501,382.3028 76.0569,382.3028 Q76.7625,382.3028 77.41,382.4522 Q78.0574,382.6016 78.6219,382.9005 L78.6219,385.6231 Q77.991,385.0421 77.3975,384.7723 Q76.804,384.5025 76.1731,384.5025 Q74.8284,384.5025 74.1436,385.5692 Q73.4588,386.6358 73.4588,388.7359 Q73.4588,390.8277 74.1436,391.8944 Q74.8284,392.961 76.1731,392.961 Q76.804,392.961 77.3975,392.6912 Q77.991,392.4215 78.6219,391.8404 Z " fill="#000000"/><text fill="#000000" font-family="sans-serif" font-size="14" lengthAdjust="spacing" textLength="103.7695" x="92.1129" y="393.711">BackendService</text><line style="stroke:#181818;stroke-width:0.5;" x1="53.31" x2="206.7211" y1="404.42" y2="404.42"/><rect fill="none" height="6" style="stroke:#C82930;stroke-width:1.0;" width="6" x="60.31" y="415.1641"/><text fill="#000000" font-family="sans-serif" font-size="14" lengthAdjust="spacing" textLength="86.3311" x="72.31" y="421.9552">API Endpoint</text><rect fill="none" height="6" style="stroke:#C82930;stroke-width:1.0;" width="6" x="60.31" y="431.6524"/><text fill="#000000" font-family="sans-serif" font-size="14" lengthAdjust="spacing" textLength="129.4111" x="72.31" y="438.4434">Invoice Verification</text><rect fill="none" height="6" style="stroke:#C82930;stroke-width:1.0;" width="6" x="60.31" y="448.1407"/><text fill="#000000" font-family="sans-serif" font-size="14" lengthAdjust="spacing" textLength="88.2451" x="72.31" y="454.9317">Email Service</text><line style="stroke:#181818;stroke-width:0.5;" x1="53.31" x2="206.7211" y1="461.8848" y2="461.8848"/></g><!--class Stripe--><g id="elem_Stripe"><rect codeLine="23" fill="#F1F1F1" height="80.9766" id="Stripe" rx="2.5" ry="2.5" style="stroke:#181818;stroke-width:0.5;" width="160.7842" x="483.63" y="380.66"/><ellipse cx="540.1905" cy="396.66" fill="#ADD1B2" rx="11" ry="11" style="stroke:#181818;stroke-width:1.0;"/><path d="M542.6637,402.8031 Q542.0826,403.1019 541.4435,403.2513 Q540.8043,403.4007 540.0988,403.4007 Q537.5919,403.4007 536.2721,401.7489 Q534.9523,400.097 534.9523,396.9759 Q534.9523,393.8465 536.2721,392.1947 Q537.5919,390.5428 540.0988,390.5428 Q540.8043,390.5428 541.4518,390.6922 Q542.0992,390.8416 542.6637,391.1405 L542.6637,393.8631 Q542.0328,393.2821 541.4393,393.0123 Q540.8458,392.7425 540.215,392.7425 Q538.8702,392.7425 538.1854,393.8092 Q537.5006,394.8758 537.5006,396.9759 Q537.5006,399.0677 538.1854,400.1344 Q538.8702,401.201 540.215,401.201 Q540.8458,401.201 541.4393,400.9312 Q542.0328,400.6615 542.6637,400.0804 Z " fill="#000000"/><text fill="#000000" font-family="sans-serif" font-size="14" lengthAdjust="spacing" textLength="39.1631" x="560.6905" y="401.951">Stripe</text><line style="stroke:#181818;stroke-width:0.5;" x1="484.63" x2="643.4142" y1="412.66" y2="412.66"/><rect fill="none" height="6" style="stroke:#C82930;stroke-width:1.0;" width="6" x="491.63" y="423.4041"/><text fill="#000000" font-family="sans-serif" font-size="14" lengthAdjust="spacing" textLength="134.7842" x="503.63" y="430.1952">Payment Processing</text><rect fill="none" height="6" style="stroke:#C82930;stroke-width:1.0;" width="6" x="491.63" y="439.8924"/><text fill="#000000" font-family="sans-serif" font-size="14" lengthAdjust="spacing" textLength="121.3857" x="503.63" y="446.6834">Returns Response</text><line style="stroke:#181818;stroke-width:0.5;" x1="484.63" x2="643.4142" y1="453.6366" y2="453.6366"/></g><!--class Email--><g id="elem_Email"><rect codeLine="28" fill="#F1F1F1" height="64.4883" id="Email" rx="2.5" ry="2.5" style="stroke:#181818;stroke-width:0.5;" width="246.0352" x="7" y="546.88"/><ellipse cx="107.5259" cy="562.88" fill="#ADD1B2" rx="11" ry="11" style="stroke:#181818;stroke-width:1.0;"/><path d="M109.999,569.0231 Q109.418,569.3219 108.7788,569.4713 Q108.1396,569.6207 107.4341,569.6207 Q104.9272,569.6207 103.6074,567.9689 Q102.2876,566.317 102.2876,563.1959 Q102.2876,560.0665 103.6074,558.4147 Q104.9272,556.7628 107.4341,556.7628 Q108.1396,556.7628 108.7871,556.9122 Q109.4346,557.0616 109.999,557.3605 L109.999,560.0831 Q109.3682,559.5021 108.7747,559.2323 Q108.1812,558.9625 107.5503,558.9625 Q106.2056,558.9625 105.5208,560.0292 Q104.8359,561.0958 104.8359,563.1959 Q104.8359,565.2877 105.5208,566.3544 Q106.2056,567.421 107.5503,567.421 Q108.1812,567.421 108.7747,567.1512 Q109.3682,566.8815 109.999,566.3004 Z " fill="#000000"/><text fill="#000000" font-family="sans-serif" font-size="14" lengthAdjust="spacing" textLength="36.4834" x="128.0259" y="568.171">Email</text><line style="stroke:#181818;stroke-width:0.5;" x1="8" x2="252.0352" y1="578.88" y2="578.88"/><rect fill="none" height="6" style="stroke:#C82930;stroke-width:1.0;" width="6" x="15" y="589.6241"/><text fill="#000000" font-family="sans-serif" font-size="14" lengthAdjust="spacing" textLength="220.0352" x="27" y="596.4152">Transaction confirmation details</text><line style="stroke:#181818;stroke-width:0.5;" x1="8" x2="252.0352" y1="603.3683" y2="603.3683"/></g><!--link User to Browser--><g id="link_User_Browser"><path codeLine="32" d="M343.16,88.18 C329.85,101.52 321.6,117.5 328.02,134.98 C331.83,145.35 333.9656,150.3988 340.3456,159.7788 " fill="none" id="User-to-Browser" style="stroke:#181818;stroke-width:1.0;"/><polygon fill="#181818" points="343.72,164.74,341.9658,155.0486,340.908,160.6057,335.3509,159.5479,343.72,164.74" style="stroke:#181818;stroke-width:1.0;"/><text fill="#000000" font-family="sans-serif" font-size="13" lengthAdjust="spacing" textLength="112.3472" x="329.02" y="131.5484">Fill Payment Form</text></g><!--link Browser to User--><g id="link_Browser_User"><path codeLine="39" d="M443.39,164.73 C448,149.53 449.93,133.3 446.02,117.98 C443.43,107.85 441.8102,102.927 436.9002,93.537 " fill="none" id="Browser-to-User" style="stroke:#181818;stroke-width:1.0;"/><polygon fill="#181818" points="434.12,88.22,434.7457,98.049,436.4369,92.6508,441.835,94.342,434.12,88.22" style="stroke:#181818;stroke-width:1.0;"/><text fill="#000000" font-family="sans-serif" font-size="13" lengthAdjust="spacing" textLength="133.0405" x="449.02" y="131.5484">Display Confirmation</text></g><!--link Browser to BackendService--><g id="link_Browser_BackendService"><path codeLine="33" d="M321.92,242.79 C230.58,257.07 95.19,284.56 64.02,325.42 C52.59,340.4 54.7321,352.4407 66.7321,367.6407 " fill="none" id="Browser-to-BackendService" style="stroke:#181818;stroke-width:1.0;"/><polygon fill="#181818" points="70.45,372.35,68.0127,362.8075,67.3518,368.4256,61.7337,367.7646,70.45,372.35" style="stroke:#181818;stroke-width:1.0;"/><text fill="#000000" font-family="sans-serif" font-size="13" lengthAdjust="spacing" textLength="84.6904" x="65.02" y="338.9884">Verify Invoice</text></g><!--link BackendService to Browser--><g id="link_BackendService_Browser"><path codeLine="34" d="M167.13,372.36 C181.26,356.15 198.27,338.77 216.02,325.42 C248.06,301.31 281.7753,283.2472 316.3653,267.5672 " fill="none" id="BackendService-to-Browser" style="stroke:#181818;stroke-width:1.0;"/><polygon fill="#181818" points="321.83,265.09,311.9814,265.1627,317.2761,267.1544,315.2844,272.449,321.83,265.09" style="stroke:#181818;stroke-width:1.0;"/><text fill="#000000" font-family="sans-serif" font-size="13" lengthAdjust="spacing" textLength="97.0811" x="217.02" y="338.9884">Invoice Verified</text></g><!--link Browser to Stripe--><g id="link_Browser_Stripe"><path codeLine="35" d="M331.04,295.72 C321.35,311.06 318.13,327.35 329.02,342.42 C363.94,390.75 424.0921,408.731 477.3121,415.791 " fill="none" id="Browser-to-Stripe" style="stroke:#181818;stroke-width:1.0;"/><polygon fill="#181818" points="483.26,416.58,474.8642,411.4312,478.3034,415.9225,473.8121,419.3617,483.26,416.58" style="stroke:#181818;stroke-width:1.0;"/><text fill="#000000" font-family="sans-serif" font-size="13" lengthAdjust="spacing" textLength="111.1602" x="330.02" y="338.9884">Initialize Payment</text></g><!--link Stripe to Browser--><g id="link_Stripe_Browser"><path codeLine="36" d="M598.21,380.53 C609.09,363.01 615.81,342.55 605.02,325.42 C580.61,286.69 541.0918,265.4282 500.1318,251.7682 " fill="none" id="Stripe-to-Browser" style="stroke:#181818;stroke-width:1.0;"/><polygon fill="#181818" points="494.44,249.87,501.7123,256.5118,499.1832,251.4518,504.2432,248.9228,494.44,249.87" style="stroke:#181818;stroke-width:1.0;"/><text fill="#000000" font-family="sans-serif" font-size="13" lengthAdjust="spacing" textLength="96.6938" x="611.02" y="338.9884">Payment Token</text></g><!--link Browser to Stripe--><g id="link_Browser_Stripe"><path codeLine="37" d="M444.39,295.64 C454.48,311.53 465.98,328.09 478.02,342.42 C489.15,355.67 498.0559,364.7699 510.8859,376.3499 " fill="none" id="Browser-to-Stripe-1" style="stroke:#181818;stroke-width:1.0;"/><polygon fill="#181818" points="515.34,380.37,511.339,371.3705,511.6283,377.0199,505.9788,377.3092,515.34,380.37" style="stroke:#181818;stroke-width:1.0;"/><text fill="#000000" font-family="sans-serif" font-size="13" lengthAdjust="spacing" textLength="117.9839" x="479.02" y="338.9884">Complete Payment</text></g><!--link Stripe to Browser--><g id="link_Stripe_Browser"><path codeLine="38" d="M644.79,401.15 C693.68,385.64 742,360.54 716.02,325.42 C689.41,289.45 581.6403,262.7819 500.1403,246.9819 " fill="none" id="Stripe-to-Browser-1" style="stroke:#181818;stroke-width:1.0;"/><polygon fill="#181818" points="494.25,245.84,502.3242,251.4798,499.1586,246.7916,503.8468,243.626,494.25,245.84" style="stroke:#181818;stroke-width:1.0;"/><text fill="#000000" font-family="sans-serif" font-size="13" lengthAdjust="spacing" textLength="117.7744" x="723.02" y="338.9884">Payment Response</text></g><!--link BackendService to Email--><g id="link_BackendService_Email"><path codeLine="40" d="M130.02,470.22 C130.02,495.1 130.02,518.78 130.02,540.7 " fill="none" id="BackendService-to-Email" style="stroke:#181818;stroke-width:1.0;"/><polygon fill="#181818" points="130.02,546.7,134.02,537.7,130.02,541.7,126.02,537.7,130.02,546.7" style="stroke:#181818;stroke-width:1.0;"/><text fill="#000000" font-family="sans-serif" font-size="13" lengthAdjust="spacing" textLength="155.4922" x="131.02" y="513.4484">Send Confirmation Email</text></g><!--SRC=[ZP9DRi8m48NtESNq05o0HILAGuLK8KI0lMKFrQY9RSsuLBJgtPiu3i4fYwuipNl-zERdmU29BCAkNEuNcvVN4dIjH8fYB1m46RuBW1cigAu5jkhIe0smSjp4yZE9hzL5OEdiYRXHWPm5nr0oEov-RcbFx3v7u1zKHgWq8zfOFwgQZ0eeexL2QmHy8WJtdgm3qxFJA4BsRP90wTPgAkGpQKn15jirbDPuHpR4mjgUNISVaUb4EWQAGjaegY7zpibLOF8uQMqxnkZAEmmVRALznJih4q8Fxm5xLbQKZfFGjsCn65gNT3_ZRcQpn-jOvt57-Lm7BVhovkTzVvUXtMAYv-Xy9cWoScg-Sr6WTbrVECGeafRJXepxkBcxgALhV8tXdw3hI6zPXzwJJZIxhtlDzWkOn-FAZp4glm00]--></g></svg>