<svg xmlns="http://www.w3.org/2000/svg" xmlns:xlink="http://www.w3.org/1999/xlink" contentStyleType="text/css" height="776px" preserveAspectRatio="none" style="width:744px;height:776px;background:#FFFFFF;" version="1.1" viewBox="0 0 744 776" width="744px" zoomAndPan="magnify"><defs/><g><!--class User--><g id="elem_User"><rect codeLine="4" fill="#F1F1F1" height="80.9766" id="User" rx="2.5" ry="2.5" style="stroke:#181818;stroke-width:0.5;" width="232.9717" x="207.98" y="7"/><ellipse cx="305.0332" cy="23" fill="#ADD1B2" rx="11" ry="11" style="stroke:#181818;stroke-width:1.0;"/><path d="M307.5064,29.1431 Q306.9253,29.4419 306.2862,29.5913 Q305.647,29.7407 304.9414,29.7407 Q302.4346,29.7407 301.1148,28.0889 Q299.7949,26.437 299.7949,23.3159 Q299.7949,20.1865 301.1148,18.5347 Q302.4346,16.8828 304.9414,16.8828 Q305.647,16.8828 306.2945,17.0322 Q306.9419,17.1816 307.5064,17.4805 L307.5064,20.2031 Q306.8755,19.6221 306.282,19.3523 Q305.6885,19.0825 305.0576,19.0825 Q303.7129,19.0825 303.0281,20.1492 Q302.3433,21.2158 302.3433,23.3159 Q302.3433,25.4077 303.0281,26.4744 Q303.7129,27.541 305.0576,27.541 Q305.6885,27.541 306.282,27.2712 Q306.8755,27.0015 307.5064,26.4204 Z " fill="#000000"/><text fill="#000000" font-family="sans-serif" font-size="14" lengthAdjust="spacing" textLength="30.3652" x="325.5332" y="28.291">User</text><line style="stroke:#181818;stroke-width:0.5;" x1="208.98" x2="439.9517" y1="39" y2="39"/><rect fill="none" height="6" style="stroke:#C82930;stroke-width:1.0;" width="6" x="215.98" y="49.7441"/><text fill="#000000" font-family="sans-serif" font-size="14" lengthAdjust="spacing" textLength="128.126" x="227.98" y="56.5352">Fills Payment Form</text><rect fill="none" height="6" style="stroke:#C82930;stroke-width:1.0;" width="6" x="215.98" y="66.2324"/><text fill="#000000" font-family="sans-serif" font-size="14" lengthAdjust="spacing" textLength="206.9717" x="227.98" y="73.0234">Displays Confirmation or Error</text><line style="stroke:#181818;stroke-width:0.5;" x1="208.98" x2="439.9517" y1="79.9766" y2="79.9766"/></g><!--class Browser--><g id="elem_Browser"><rect codeLine="9" fill="#F1F1F1" height="130.4414" id="Browser" rx="2.5" ry="2.5" style="stroke:#181818;stroke-width:0.5;" width="171.9951" x="238.47" y="164.98"/><ellipse cx="293.3011" cy="180.98" fill="#ADD1B2" rx="11" ry="11" style="stroke:#181818;stroke-width:1.0;"/><path d="M295.7742,187.1231 Q295.1931,187.4219 294.554,187.5713 Q293.9148,187.7207 293.2093,187.7207 Q290.7024,187.7207 289.3826,186.0689 Q288.0628,184.417 288.0628,181.2959 Q288.0628,178.1665 289.3826,176.5147 Q290.7024,174.8628 293.2093,174.8628 Q293.9148,174.8628 294.5623,175.0122 Q295.2097,175.1616 295.7742,175.4605 L295.7742,178.1831 Q295.1433,177.6021 294.5498,177.3323 Q293.9563,177.0625 293.3255,177.0625 Q291.9807,177.0625 291.2959,178.1292 Q290.6111,179.1958 290.6111,181.2959 Q290.6111,183.3877 291.2959,184.4544 Q291.9807,185.521 293.3255,185.521 Q293.9563,185.521 294.5498,185.2512 Q295.1433,184.9815 295.7742,184.4004 Z " fill="#000000"/><text fill="#000000" font-family="sans-serif" font-size="14" lengthAdjust="spacing" textLength="53.833" x="313.8011" y="186.271">Browser</text><line style="stroke:#181818;stroke-width:0.5;" x1="239.47" x2="409.4651" y1="196.98" y2="196.98"/><rect fill="none" height="6" style="stroke:#C82930;stroke-width:1.0;" width="6" x="246.47" y="207.7241"/><text fill="#000000" font-family="sans-serif" font-size="14" lengthAdjust="spacing" textLength="96.9131" x="258.47" y="214.5152">Payment Form</text><rect fill="none" height="6" style="stroke:#C82930;stroke-width:1.0;" width="6" x="246.47" y="224.2124"/><text fill="#000000" font-family="sans-serif" font-size="14" lengthAdjust="spacing" textLength="138.4277" x="258.47" y="231.0034">Confirmation Screen</text><rect fill="none" height="6" style="stroke:#C82930;stroke-width:1.0;" width="6" x="246.47" y="240.7007"/><text fill="#000000" font-family="sans-serif" font-size="14" lengthAdjust="spacing" textLength="101.0283" x="258.47" y="247.4917">Validates Form</text><rect fill="none" height="6" style="stroke:#C82930;stroke-width:1.0;" width="6" x="246.47" y="257.189"/><text fill="#000000" font-family="sans-serif" font-size="14" lengthAdjust="spacing" textLength="145.9951" x="258.47" y="263.98">Sends payment token</text><rect fill="none" height="6" style="stroke:#C82930;stroke-width:1.0;" width="6" x="246.47" y="273.6773"/><text fill="#000000" font-family="sans-serif" font-size="14" lengthAdjust="spacing" textLength="135.8574" x="258.47" y="280.4683">Payment processing</text><line style="stroke:#181818;stroke-width:0.5;" x1="239.47" x2="409.4651" y1="287.4214" y2="287.4214"/></g><!--class BackendService--><g id="elem_BackendService"><rect codeLine="17" fill="#F1F1F1" height="97.4648" id="BackendService" rx="2.5" ry="2.5" style="stroke:#181818;stroke-width:0.5;" width="155.4111" x="232.76" y="530.4"/><ellipse cx="256.5987" cy="546.4" fill="#ADD1B2" rx="11" ry="11" style="stroke:#181818;stroke-width:1.0;"/><path d="M259.0719,552.5431 Q258.4908,552.8419 257.8517,552.9913 Q257.2125,553.1407 256.5069,553.1407 Q254.0001,553.1407 252.6803,551.4889 Q251.3604,549.837 251.3604,546.7159 Q251.3604,543.5865 252.6803,541.9347 Q254.0001,540.2828 256.5069,540.2828 Q257.2125,540.2828 257.86,540.4322 Q258.5074,540.5816 259.0719,540.8805 L259.0719,543.6031 Q258.441,543.0221 257.8475,542.7523 Q257.254,542.4825 256.6231,542.4825 Q255.2784,542.4825 254.5936,543.5492 Q253.9088,544.6158 253.9088,546.7159 Q253.9088,548.8077 254.5936,549.8744 Q255.2784,550.941 256.6231,550.941 Q257.254,550.941 257.8475,550.6712 Q258.441,550.4015 259.0719,549.8204 Z " fill="#000000"/><text fill="#000000" font-family="sans-serif" font-size="14" lengthAdjust="spacing" textLength="103.7695" x="272.5629" y="551.691">BackendService</text><line style="stroke:#181818;stroke-width:0.5;" x1="233.76" x2="387.1711" y1="562.4" y2="562.4"/><rect fill="none" height="6" style="stroke:#C82930;stroke-width:1.0;" width="6" x="240.76" y="573.1441"/><text fill="#000000" font-family="sans-serif" font-size="14" lengthAdjust="spacing" textLength="86.3311" x="252.76" y="579.9352">API Endpoint</text><rect fill="none" height="6" style="stroke:#C82930;stroke-width:1.0;" width="6" x="240.76" y="589.6324"/><text fill="#000000" font-family="sans-serif" font-size="14" lengthAdjust="spacing" textLength="129.4111" x="252.76" y="596.4234">Invoice Verification</text><rect fill="none" height="6" style="stroke:#C82930;stroke-width:1.0;" width="6" x="240.76" y="606.1207"/><text fill="#000000" font-family="sans-serif" font-size="14" lengthAdjust="spacing" textLength="88.2451" x="252.76" y="612.9117">Email Service</text><line style="stroke:#181818;stroke-width:0.5;" x1="233.76" x2="387.1711" y1="619.8648" y2="619.8648"/></g><!--class Stripe--><g id="elem_Stripe"><rect codeLine="23" fill="#F1F1F1" height="80.9766" id="Stripe" rx="2.5" ry="2.5" style="stroke:#181818;stroke-width:0.5;" width="186.6924" x="287.12" y="372.42"/><ellipse cx="356.6346" cy="388.42" fill="#ADD1B2" rx="11" ry="11" style="stroke:#181818;stroke-width:1.0;"/><path d="M359.1078,394.5631 Q358.5267,394.8619 357.8876,395.0113 Q357.2484,395.1607 356.5429,395.1607 Q354.036,395.1607 352.7162,393.5089 Q351.3964,391.857 351.3964,388.7359 Q351.3964,385.6065 352.7162,383.9547 Q354.036,382.3028 356.5429,382.3028 Q357.2484,382.3028 357.8959,382.4522 Q358.5433,382.6016 359.1078,382.9005 L359.1078,385.6231 Q358.4769,385.0421 357.8834,384.7723 Q357.2899,384.5025 356.6591,384.5025 Q355.3143,384.5025 354.6295,385.5692 Q353.9447,386.6358 353.9447,388.7359 Q353.9447,390.8277 354.6295,391.8944 Q355.3143,392.961 356.6591,392.961 Q357.2899,392.961 357.8834,392.6912 Q358.4769,392.4215 359.1078,391.8404 Z " fill="#000000"/><text fill="#000000" font-family="sans-serif" font-size="14" lengthAdjust="spacing" textLength="39.1631" x="377.1346" y="393.711">Stripe</text><line style="stroke:#181818;stroke-width:0.5;" x1="288.12" x2="472.8124" y1="404.42" y2="404.42"/><rect fill="none" height="6" style="stroke:#C82930;stroke-width:1.0;" width="6" x="295.12" y="415.1641"/><text fill="#000000" font-family="sans-serif" font-size="14" lengthAdjust="spacing" textLength="134.7842" x="307.12" y="421.9552">Payment Processing</text><rect fill="none" height="6" style="stroke:#C82930;stroke-width:1.0;" width="6" x="295.12" y="431.6524"/><text fill="#000000" font-family="sans-serif" font-size="14" lengthAdjust="spacing" textLength="160.6924" x="307.12" y="438.4434">Returns Payment Token</text><line style="stroke:#181818;stroke-width:0.5;" x1="288.12" x2="472.8124" y1="445.3966" y2="445.3966"/></g><!--class Email--><g id="elem_Email"><rect codeLine="28" fill="#F1F1F1" height="64.4883" id="Email" rx="2.5" ry="2.5" style="stroke:#181818;stroke-width:0.5;" width="88.3438" x="266.29" y="704.86"/><ellipse cx="290.2272" cy="720.86" fill="#ADD1B2" rx="11" ry="11" style="stroke:#181818;stroke-width:1.0;"/><path d="M292.7003,727.0031 Q292.1192,727.3019 291.4801,727.4513 Q290.8409,727.6007 290.1354,727.6007 Q287.6285,727.6007 286.3087,725.9489 Q284.9889,724.297 284.9889,721.1759 Q284.9889,718.0465 286.3087,716.3947 Q287.6285,714.7428 290.1354,714.7428 Q290.8409,714.7428 291.4884,714.8922 Q292.1358,715.0416 292.7003,715.3405 L292.7003,718.0631 Q292.0694,717.4821 291.4759,717.2123 Q290.8824,716.9425 290.2516,716.9425 Q288.9068,716.9425 288.222,718.0092 Q287.5372,719.0758 287.5372,721.1759 Q287.5372,723.2677 288.222,724.3344 Q288.9068,725.401 290.2516,725.401 Q290.8824,725.401 291.4759,725.1312 Q292.0694,724.8615 292.7003,724.2804 Z " fill="#000000"/><text fill="#000000" font-family="sans-serif" font-size="14" lengthAdjust="spacing" textLength="36.4834" x="306.2132" y="726.151">Email</text><line style="stroke:#181818;stroke-width:0.5;" x1="267.29" x2="353.6338" y1="736.86" y2="736.86"/><rect fill="none" height="6" style="stroke:#C82930;stroke-width:1.0;" width="6" x="274.29" y="747.6041"/><text fill="#000000" font-family="sans-serif" font-size="14" lengthAdjust="spacing" textLength="62.3438" x="286.29" y="754.3952">Email API</text><line style="stroke:#181818;stroke-width:0.5;" x1="267.29" x2="353.6338" y1="761.3483" y2="761.3483"/></g><!--link User to Browser--><g id="link_User_Browser"><path codeLine="32" d="M259.61,88.19 C246.3,101.53 238.05,117.51 244.46,134.98 C248.27,145.35 250.4131,150.4105 256.7931,159.7805 " fill="none" id="User-to-Browser" style="stroke:#181818;stroke-width:1.0;"/><polygon fill="#181818" points="260.17,164.74,258.411,155.0495,257.3559,160.6071,251.7983,159.552,260.17,164.74" style="stroke:#181818;stroke-width:1.0;"/><text fill="#000000" font-family="sans-serif" font-size="13" lengthAdjust="spacing" textLength="112.3472" x="245.46" y="131.5484">Fill Payment Form</text></g><!--link Browser to User--><g id="link_Browser_User"><path codeLine="41" d="M359.84,164.73 C364.44,149.54 366.38,133.3 362.46,117.98 C359.88,107.85 358.2602,102.937 353.3502,93.547 " fill="none" id="Browser-to-User" style="stroke:#181818;stroke-width:1.0;"/><polygon fill="#181818" points="350.57,88.23,351.1957,98.059,352.8869,92.6608,358.285,94.352,350.57,88.23" style="stroke:#181818;stroke-width:1.0;"/><text fill="#000000" font-family="sans-serif" font-size="13" lengthAdjust="spacing" textLength="133.0405" x="365.46" y="131.5484">Display Confirmation</text></g><!--link Browser to BackendService--><g id="link_Browser_BackendService"><path codeLine="33" d="M238.24,246.03 C167.55,263.22 71.86,299.2 25.46,372.42 C6.2,402.82 6,423.12 25.46,453.4 C70.52,523.48 158.8655,553.2181 226.6555,566.7181 " fill="none" id="Browser-to-BackendService" style="stroke:#181818;stroke-width:1.0;"/><polygon fill="#181818" points="232.54,567.89,224.4946,562.2093,227.6363,566.9135,222.9321,570.0552,232.54,567.89" style="stroke:#181818;stroke-width:1.0;"/><text fill="#000000" font-family="sans-serif" font-size="13" lengthAdjust="spacing" textLength="84.6904" x="26.46" y="417.9784">Verify Invoice</text></g><!--link BackendService to Browser--><g id="link_BackendService_Browser"><path codeLine="34" d="M388.4,561.39 C423.03,549.96 461.16,531.1 484.46,500.4 C497.23,483.57 489.9,474.46 491.46,453.4 C495.71,396.05 509.24,369.62 472.46,325.42 C455.51,305.05 438.0646,290.8414 415.7146,276.7414 " fill="none" id="BackendService-to-Browser" style="stroke:#181818;stroke-width:1.0;"/><polygon fill="#181818" points="410.64,273.54,416.1176,281.7251,414.8688,276.2078,420.3861,274.9591,410.64,273.54" style="stroke:#181818;stroke-width:1.0;"/><text fill="#000000" font-family="sans-serif" font-size="13" lengthAdjust="spacing" textLength="97.0811" x="497.46" y="417.9784">Invoice Verified</text></g><!--link Browser to BackendService--><g id="link_Browser_BackendService"><path codeLine="37" d="M238.2,288.75 C211.69,311.38 185.75,339.8 171.46,372.42 C157.03,405.39 159.04,419.62 171.46,453.4 C182.88,484.43 202.5859,506.7905 227.7959,526.9705 " fill="none" id="Browser-to-BackendService-1" style="stroke:#181818;stroke-width:1.0;"/><polygon fill="#181818" points="232.48,530.72,227.9535,521.973,228.5766,527.5954,222.9541,528.2185,232.48,530.72" style="stroke:#181818;stroke-width:1.0;"/><text fill="#000000" font-family="sans-serif" font-size="13" lengthAdjust="spacing" textLength="96.6938" x="172.46" y="417.9784">Payment Token</text></g><!--link BackendService to Browser--><g id="link_BackendService_Browser"><path codeLine="40" d="M388.52,569.78 C459.11,557.53 558.63,527.39 603.46,453.4 C622.11,422.62 622.31,403.08 603.46,372.42 C561.75,304.55 481.9477,269.7334 416.5077,250.9734 " fill="none" id="BackendService-to-Browser-1" style="stroke:#181818;stroke-width:1.0;"/><polygon fill="#181818" points="410.74,249.32,418.2892,255.6453,415.5464,250.6979,420.4938,247.9551,410.74,249.32" style="stroke:#181818;stroke-width:1.0;"/><text fill="#000000" font-family="sans-serif" font-size="13" lengthAdjust="spacing" textLength="117.7744" x="618.46" y="417.9784">Payment Response</text></g><!--link Browser to Stripe--><g id="link_Browser_Stripe"><path codeLine="35" d="M248.5,295.75 C239.29,310.8 236.03,326.95 245.46,342.42 C255.35,358.62 265.1836,368.1591 281.6436,377.8791 " fill="none" id="Browser-to-Stripe" style="stroke:#181818;stroke-width:1.0;"/><polygon fill="#181818" points="286.81,380.93,281.0943,372.9094,282.5046,378.3876,277.0264,379.7979,286.81,380.93" style="stroke:#181818;stroke-width:1.0;"/><text fill="#000000" font-family="sans-serif" font-size="13" lengthAdjust="spacing" textLength="111.1602" x="246.46" y="338.9884">Initialize Payment</text></g><!--link Stripe to Browser--><g id="link_Stripe_Browser"><path codeLine="36" d="M373.69,371.92 C370.78,357.16 367,340.39 362.46,325.42 C359.52,315.71 358.1136,311.2316 354.3936,301.4016 " fill="none" id="Stripe-to-Browser" style="stroke:#181818;stroke-width:1.0;"/><polygon fill="#181818" points="352.27,295.79,351.7144,305.6232,354.0397,300.4663,359.1965,302.7917,352.27,295.79" style="stroke:#181818;stroke-width:1.0;"/><text fill="#000000" font-family="sans-serif" font-size="13" lengthAdjust="spacing" textLength="96.6938" x="367.46" y="338.9884">Payment Token</text></g><!--link BackendService to Stripe--><g id="link_BackendService_Stripe"><path codeLine="38" d="M337.29,530.2 C342.29,520.48 347.26,510.22 351.46,500.4 C357.88,485.4 361.981,474.178 366.801,459.298 " fill="none" id="BackendService-to-Stripe" style="stroke:#181818;stroke-width:1.0;"/><polygon fill="#181818" points="368.65,453.59,362.0712,460.9194,367.1092,458.3467,369.6819,463.3847,368.65,453.59" style="stroke:#181818;stroke-width:1.0;"/><text fill="#000000" font-family="sans-serif" font-size="13" lengthAdjust="spacing" textLength="117.9839" x="358.46" y="496.9684">Complete Payment</text></g><!--link Stripe to BackendService--><g id="link_Stripe_BackendService"><path codeLine="39" d="M286.69,445.85 C258.36,457.51 232.58,470.9 224.46,483.4 C213.94,499.61 216.4113,511.3488 229.6613,525.5788 " fill="none" id="Stripe-to-BackendService" style="stroke:#181818;stroke-width:1.0;"/><polygon fill="#181818" points="233.75,529.97,230.5443,520.6574,230.3427,526.3107,224.6895,526.1091,233.75,529.97" style="stroke:#181818;stroke-width:1.0;"/><text fill="#000000" font-family="sans-serif" font-size="13" lengthAdjust="spacing" textLength="117.7744" x="225.46" y="496.9684">Payment Response</text></g><!--link BackendService to Email--><g id="link_BackendService_Email"><path codeLine="42" d="M310.46,628.2 C310.46,653.08 310.46,676.76 310.46,698.68 " fill="none" id="BackendService-to-Email" style="stroke:#181818;stroke-width:1.0;"/><polygon fill="#181818" points="310.46,704.68,314.46,695.68,310.46,699.68,306.46,695.68,310.46,704.68" style="stroke:#181818;stroke-width:1.0;"/><text fill="#000000" font-family="sans-serif" font-size="13" lengthAdjust="spacing" textLength="155.4922" x="311.46" y="671.4284">Send Confirmation Email</text></g><!--SRC=[XPBHJiCm34NV-nNc0_O3VK0QeqEJq5IrszwZraCMQH8vOMXC_3jjcgvDD-3LlZcvr_P3ZKTI24MssYstBwyPL59OcoHZOM-HuP80B61DKbh8nRb1vM2jkV7bPx96YhE5bLP7uaOuqWeqGyQiEVcUqfvOVux06rH4A2j6LBv-499guT2EqX9LRS44WjFlGJem3UiAhINrDdCWgbPQbyWdgZ0OMUORo5HjD2dd2njrqbtxW4n7ghmXtyWQGHB2wvXSEYQ3isZvQACh5-W-M8r3t7dV4QR_uJBvhNNNIVmc5el7wn1Jlv5uYaFFw-AeQP_cF8HBPlqO7Ky0wuWSedOgSjGkvmi76qdenRGuxvycPz9RZzVFLxen4jtzht_35cYDLlQVzBVgYULzhmbt7ntjFMg_nDHVR7pXllC3]--></g></svg>