<svg xmlns="http://www.w3.org/2000/svg" xmlns:xlink="http://www.w3.org/1999/xlink" contentStyleType="text/css" height="509px" preserveAspectRatio="none" style="width:428px;height:509px;background:#FFFFFF;" version="1.1" viewBox="0 0 428 509" width="428px" zoomAndPan="magnify"><defs/><g><!--class User--><g id="elem_User"><rect codeLine="4" fill="#F1F1F1" height="146.9297" id="User" rx="2.5" ry="2.5" style="stroke:#181818;stroke-width:0.5;" width="200.5898" x="56.1" y="7"/><ellipse cx="136.9623" cy="23" fill="#ADD1B2" rx="11" ry="11" style="stroke:#181818;stroke-width:1.0;"/><path d="M139.4354,29.1431 Q138.8544,29.4419 138.2152,29.5913 Q137.5761,29.7407 136.8705,29.7407 Q134.3637,29.7407 133.0438,28.0889 Q131.724,26.437 131.724,23.3159 Q131.724,20.1865 133.0438,18.5347 Q134.3637,16.8828 136.8705,16.8828 Q137.5761,16.8828 138.2235,17.0322 Q138.871,17.1816 139.4354,17.4805 L139.4354,20.2031 Q138.8046,19.6221 138.2111,19.3523 Q137.6176,19.0825 136.9867,19.0825 Q135.642,19.0825 134.9572,20.1492 Q134.2724,21.2158 134.2724,23.3159 Q134.2724,25.4077 134.9572,26.4744 Q135.642,27.541 136.9867,27.541 Q137.6176,27.541 138.2111,27.2712 Q138.8046,27.0015 139.4354,26.4204 Z " fill="#000000"/><text fill="#000000" font-family="sans-serif" font-size="14" lengthAdjust="spacing" textLength="30.3652" x="157.4623" y="28.291">User</text><line style="stroke:#181818;stroke-width:0.5;" x1="57.1" x2="255.6898" y1="39" y2="39"/><rect fill="none" height="6" style="stroke:#C82930;stroke-width:1.0;" width="6" x="64.1" y="49.7441"/><text fill="#000000" font-family="sans-serif" font-size="14" lengthAdjust="spacing" textLength="128.126" x="76.1" y="56.5352">Fills Payment Form</text><rect fill="none" height="6" style="stroke:#C82930;stroke-width:1.0;" width="6" x="64.1" y="66.2324"/><text fill="#000000" font-family="sans-serif" font-size="14" lengthAdjust="spacing" textLength="101.0283" x="76.1" y="73.0234">Validates Form</text><rect fill="none" height="6" style="stroke:#C82930;stroke-width:1.0;" width="6" x="64.1" y="82.7207"/><text fill="#000000" font-family="sans-serif" font-size="14" lengthAdjust="spacing" textLength="159.6807" x="76.1" y="89.5117">Creates Payment Token</text><rect fill="none" height="6" style="stroke:#C82930;stroke-width:1.0;" width="6" x="64.1" y="99.209"/><text fill="#000000" font-family="sans-serif" font-size="14" lengthAdjust="spacing" textLength="128.2559" x="76.1" y="106">Processes Payment</text><rect fill="none" height="6" style="stroke:#C82930;stroke-width:1.0;" width="6" x="64.1" y="115.6973"/><text fill="#000000" font-family="sans-serif" font-size="14" lengthAdjust="spacing" textLength="150.4111" x="76.1" y="122.4883">Displays Confirmation</text><rect fill="none" height="6" style="stroke:#C82930;stroke-width:1.0;" width="6" x="64.1" y="132.1855"/><text fill="#000000" font-family="sans-serif" font-size="14" lengthAdjust="spacing" textLength="174.5898" x="76.1" y="138.9766">Sends Confirmation Email</text><line style="stroke:#181818;stroke-width:0.5;" x1="57.1" x2="255.6898" y1="145.9297" y2="145.9297"/></g><!--class Browser--><g id="elem_Browser"><rect codeLine="13" fill="#F1F1F1" height="113.9531" id="Browser" rx="2.5" ry="2.5" style="stroke:#181818;stroke-width:0.5;" width="164.4277" x="74.18" y="230.93"/><ellipse cx="125.2274" cy="246.93" fill="#ADD1B2" rx="11" ry="11" style="stroke:#181818;stroke-width:1.0;"/><path d="M127.7005,253.0731 Q127.1195,253.3719 126.4803,253.5213 Q125.8411,253.6707 125.1356,253.6707 Q122.6287,253.6707 121.3089,252.0189 Q119.9891,250.367 119.9891,247.2459 Q119.9891,244.1165 121.3089,242.4647 Q122.6287,240.8128 125.1356,240.8128 Q125.8411,240.8128 126.4886,240.9622 Q127.1361,241.1116 127.7005,241.4105 L127.7005,244.1331 Q127.0696,243.5521 126.4761,243.2823 Q125.8826,243.0125 125.2518,243.0125 Q123.9071,243.0125 123.2222,244.0792 Q122.5374,245.1458 122.5374,247.2459 Q122.5374,249.3377 123.2222,250.4044 Q123.9071,251.471 125.2518,251.471 Q125.8826,251.471 126.4761,251.2012 Q127.0696,250.9315 127.7005,250.3504 Z " fill="#000000"/><text fill="#000000" font-family="sans-serif" font-size="14" lengthAdjust="spacing" textLength="53.833" x="145.7274" y="252.221">Browser</text><line style="stroke:#181818;stroke-width:0.5;" x1="75.18" x2="237.6077" y1="262.93" y2="262.93"/><rect fill="none" height="6" style="stroke:#C82930;stroke-width:1.0;" width="6" x="82.18" y="273.6741"/><text fill="#000000" font-family="sans-serif" font-size="14" lengthAdjust="spacing" textLength="96.9131" x="94.18" y="280.4652">Payment Form</text><rect fill="none" height="6" style="stroke:#C82930;stroke-width:1.0;" width="6" x="82.18" y="290.1624"/><text fill="#000000" font-family="sans-serif" font-size="14" lengthAdjust="spacing" textLength="54.9883" x="94.18" y="296.9534">Stripe.js</text><rect fill="none" height="6" style="stroke:#C82930;stroke-width:1.0;" width="6" x="82.18" y="306.6507"/><text fill="#000000" font-family="sans-serif" font-size="14" lengthAdjust="spacing" textLength="138.4277" x="94.18" y="313.4417">Confirmation Screen</text><rect fill="none" height="6" style="stroke:#C82930;stroke-width:1.0;" width="6" x="82.18" y="323.139"/><text fill="#000000" font-family="sans-serif" font-size="14" lengthAdjust="spacing" textLength="80.418" x="94.18" y="329.93">Email Client</text><line style="stroke:#181818;stroke-width:0.5;" x1="75.18" x2="237.6077" y1="336.8831" y2="336.8831"/></g><!--class Stripe--><g id="elem_Stripe"><rect codeLine="20" fill="#F1F1F1" height="80.9766" id="Stripe" rx="2.5" ry="2.5" style="stroke:#181818;stroke-width:0.5;" width="160.7842" x="7" y="421.88"/><ellipse cx="63.5605" cy="437.88" fill="#ADD1B2" rx="11" ry="11" style="stroke:#181818;stroke-width:1.0;"/><path d="M66.0337,444.0231 Q65.4526,444.3219 64.8135,444.4713 Q64.1743,444.6207 63.4688,444.6207 Q60.9619,444.6207 59.6421,442.9689 Q58.3223,441.317 58.3223,438.1959 Q58.3223,435.0665 59.6421,433.4147 Q60.9619,431.7628 63.4688,431.7628 Q64.1743,431.7628 64.8218,431.9122 Q65.4692,432.0616 66.0337,432.3605 L66.0337,435.0831 Q65.4028,434.5021 64.8093,434.2323 Q64.2158,433.9625 63.585,433.9625 Q62.2402,433.9625 61.5554,435.0292 Q60.8706,436.0958 60.8706,438.1959 Q60.8706,440.2877 61.5554,441.3544 Q62.2402,442.421 63.585,442.421 Q64.2158,442.421 64.8093,442.1512 Q65.4028,441.8815 66.0337,441.3004 Z " fill="#000000"/><text fill="#000000" font-family="sans-serif" font-size="14" lengthAdjust="spacing" textLength="39.1631" x="84.0605" y="443.171">Stripe</text><line style="stroke:#181818;stroke-width:0.5;" x1="8" x2="166.7842" y1="453.88" y2="453.88"/><rect fill="none" height="6" style="stroke:#C82930;stroke-width:1.0;" width="6" x="15" y="464.6241"/><text fill="#000000" font-family="sans-serif" font-size="14" lengthAdjust="spacing" textLength="134.7842" x="27" y="471.4152">Payment Processing</text><rect fill="none" height="6" style="stroke:#C82930;stroke-width:1.0;" width="6" x="15" y="481.1124"/><text fill="#000000" font-family="sans-serif" font-size="14" lengthAdjust="spacing" textLength="121.3857" x="27" y="487.9034">Returns Response</text><line style="stroke:#181818;stroke-width:0.5;" x1="8" x2="166.7842" y1="494.8566" y2="494.8566"/></g><!--class Email--><g id="elem_Email"><rect fill="#F1F1F1" height="48" id="Email" rx="2.5" ry="2.5" style="stroke:#181818;stroke-width:0.5;" width="68.4834" x="281.15" y="438.37"/><ellipse cx="296.15" cy="454.37" fill="#ADD1B2" rx="11" ry="11" style="stroke:#181818;stroke-width:1.0;"/><path d="M298.6231,460.5131 Q298.0421,460.8119 297.4029,460.9613 Q296.7638,461.1107 296.0582,461.1107 Q293.5514,461.1107 292.2315,459.4589 Q290.9117,457.807 290.9117,454.6859 Q290.9117,451.5565 292.2315,449.9047 Q293.5514,448.2528 296.0582,448.2528 Q296.7638,448.2528 297.4112,448.4022 Q298.0587,448.5516 298.6231,448.8505 L298.6231,451.5731 Q297.9923,450.9921 297.3988,450.7223 Q296.8053,450.4525 296.1744,450.4525 Q294.8297,450.4525 294.1449,451.5192 Q293.4601,452.5858 293.4601,454.6859 Q293.4601,456.7777 294.1449,457.8444 Q294.8297,458.911 296.1744,458.911 Q296.8053,458.911 297.3988,458.6412 Q297.9923,458.3715 298.6231,457.7904 Z " fill="#000000"/><text fill="#000000" font-family="sans-serif" font-size="14" lengthAdjust="spacing" textLength="36.4834" x="310.15" y="459.661">Email</text><line style="stroke:#181818;stroke-width:0.5;" x1="282.15" x2="348.6334" y1="470.37" y2="470.37"/><line style="stroke:#181818;stroke-width:0.5;" x1="282.15" x2="348.6334" y1="478.37" y2="478.37"/></g><!--link User to Browser--><g id="link_User_Browser"><path codeLine="25" d="M90.76,154.19 C84.93,163.68 79.92,173.69 76.39,183.93 C70.72,200.41 72.3004,211.3561 82.0304,225.5061 " fill="none" id="User-to-Browser" style="stroke:#181818;stroke-width:1.0;"/><polygon fill="#181818" points="85.43,230.45,83.6265,220.7677,82.597,226.33,77.0346,225.3005,85.43,230.45" style="stroke:#181818;stroke-width:1.0;"/><text fill="#000000" font-family="sans-serif" font-size="13" lengthAdjust="spacing" textLength="112.3472" x="77.39" y="197.4984">Fill Payment Form</text></g><!--link Browser to User--><g id="link_Browser_User"><path codeLine="28" d="M185.18,230.67 C189,220.98 192.3,210.83 194.39,200.93 C197.63,185.6 197.5425,175.2488 193.5825,159.9388 " fill="none" id="Browser-to-User" style="stroke:#181818;stroke-width:1.0;"/><polygon fill="#181818" points="192.08,154.13,190.4612,163.8449,193.3321,158.9707,198.2063,161.8416,192.08,154.13" style="stroke:#181818;stroke-width:1.0;"/><text fill="#000000" font-family="sans-serif" font-size="13" lengthAdjust="spacing" textLength="133.0405" x="196.39" y="197.4984">Display Confirmation</text></g><!--link Browser to Stripe--><g id="link_Browser_Stripe"><path codeLine="26" d="M73.94,320.6 C50.86,333.74 28.52,351.51 15.39,374.88 C6.21,391.24 9.8837,403.1627 23.2537,417.0827 " fill="none" id="Browser-to-Stripe" style="stroke:#181818;stroke-width:1.0;"/><polygon fill="#181818" points="27.41,421.41,24.0604,412.1482,23.9464,417.8039,18.2907,417.69,27.41,421.41" style="stroke:#181818;stroke-width:1.0;"/><text fill="#000000" font-family="sans-serif" font-size="13" lengthAdjust="spacing" textLength="96.6938" x="16.39" y="388.4484">Payment Token</text></g><!--link Stripe to Browser--><g id="link_Stripe_Browser"><path codeLine="27" d="M105,421.45 C109.15,411.81 113.5,401.51 117.39,391.88 C123.49,376.82 127.7151,366.0211 133.4751,350.8111 " fill="none" id="Stripe-to-Browser" style="stroke:#181818;stroke-width:1.0;"/><polygon fill="#181818" points="135.6,345.2,128.6719,352.2001,133.8292,349.8759,136.1534,355.0333,135.6,345.2" style="stroke:#181818;stroke-width:1.0;"/><text fill="#000000" font-family="sans-serif" font-size="13" lengthAdjust="spacing" textLength="117.7744" x="125.39" y="388.4484">Payment Response</text></g><!--link Browser to Email--><g id="link_Browser_Email"><path codeLine="29" d="M222.17,345.3 C232.29,354.85 242.36,364.91 251.39,374.88 C269.58,394.96 284.301,415.0888 296.601,433.0588 " fill="none" id="Browser-to-Email" style="stroke:#181818;stroke-width:1.0;"/><polygon fill="#181818" points="299.99,438.01,298.2073,428.3238,297.1658,433.884,291.6057,432.8425,299.99,438.01" style="stroke:#181818;stroke-width:1.0;"/><text fill="#000000" font-family="sans-serif" font-size="13" lengthAdjust="spacing" textLength="155.4922" x="265.39" y="388.4484">Send Confirmation Email</text></g><!--SRC=[RP11JiCm44NtESLmW720B90Wf6nGLJKjUokPeW77ZcQCK8MuEsJiD75XPUdDzvy__wR74pc4VLCVxhTFpmrqreWKnGAEWWnV1K096x9MO6VE0xe06y-3uXTZgJS1PK4reu9PU_3lw7IoOz-Xo39J-aWoMdCMgBqx4Gyca8_w5bsVOsW6GxRuNeTyOF-vvFoJi0rC8zw-IGotDcixnXHDVQ6sDANAxEF_A_Tq2RbNnNiC7-pazvNHEy79GRihoxjBlaexp0FEiqcN5bLNnIMSEysIoyArqJ5gKgzvhMjTlBdIclzf-GS0]--></g></svg>