<svg xmlns="http://www.w3.org/2000/svg" xmlns:xlink="http://www.w3.org/1999/xlink" contentStyleType="text/css" height="776px" preserveAspectRatio="none" style="width:624px;height:776px;background:#FFFFFF;" version="1.1" viewBox="0 0 624 776" width="624px" zoomAndPan="magnify"><defs/><g><!--class User--><g id="elem_User"><rect codeLine="4" fill="#F1F1F1" height="80.9766" id="User" rx="2.5" ry="2.5" style="stroke:#181818;stroke-width:0.5;" width="232.9717" x="145.55" y="7"/><ellipse cx="242.6032" cy="23" fill="#ADD1B2" rx="11" ry="11" style="stroke:#181818;stroke-width:1.0;"/><path d="M245.0764,29.1431 Q244.4953,29.4419 243.8562,29.5913 Q243.217,29.7407 242.5114,29.7407 Q240.0046,29.7407 238.6848,28.0889 Q237.3649,26.437 237.3649,23.3159 Q237.3649,20.1865 238.6848,18.5347 Q240.0046,16.8828 242.5114,16.8828 Q243.217,16.8828 243.8645,17.0322 Q244.5119,17.1816 245.0764,17.4805 L245.0764,20.2031 Q244.4455,19.6221 243.852,19.3523 Q243.2585,19.0825 242.6276,19.0825 Q241.2829,19.0825 240.5981,20.1492 Q239.9133,21.2158 239.9133,23.3159 Q239.9133,25.4077 240.5981,26.4744 Q241.2829,27.541 242.6276,27.541 Q243.2585,27.541 243.852,27.2712 Q244.4455,27.0015 245.0764,26.4204 Z " fill="#000000"/><text fill="#000000" font-family="sans-serif" font-size="14" lengthAdjust="spacing" textLength="30.3652" x="263.1032" y="28.291">User</text><line style="stroke:#181818;stroke-width:0.5;" x1="146.55" x2="377.5217" y1="39" y2="39"/><rect fill="none" height="6" style="stroke:#C82930;stroke-width:1.0;" width="6" x="153.55" y="49.7441"/><text fill="#000000" font-family="sans-serif" font-size="14" lengthAdjust="spacing" textLength="128.126" x="165.55" y="56.5352">Fills Payment Form</text><rect fill="none" height="6" style="stroke:#C82930;stroke-width:1.0;" width="6" x="153.55" y="66.2324"/><text fill="#000000" font-family="sans-serif" font-size="14" lengthAdjust="spacing" textLength="206.9717" x="165.55" y="73.0234">Displays Confirmation or Error</text><line style="stroke:#181818;stroke-width:0.5;" x1="146.55" x2="377.5217" y1="79.9766" y2="79.9766"/></g><!--class Browser--><g id="elem_Browser"><rect codeLine="9" fill="#F1F1F1" height="130.4414" id="Browser" rx="2.5" ry="2.5" style="stroke:#181818;stroke-width:0.5;" width="171.9951" x="176.04" y="164.98"/><ellipse cx="230.8711" cy="180.98" fill="#ADD1B2" rx="11" ry="11" style="stroke:#181818;stroke-width:1.0;"/><path d="M233.3442,187.1231 Q232.7631,187.4219 232.124,187.5713 Q231.4848,187.7207 230.7793,187.7207 Q228.2724,187.7207 226.9526,186.0689 Q225.6328,184.417 225.6328,181.2959 Q225.6328,178.1665 226.9526,176.5147 Q228.2724,174.8628 230.7793,174.8628 Q231.4848,174.8628 232.1323,175.0122 Q232.7797,175.1616 233.3442,175.4605 L233.3442,178.1831 Q232.7133,177.6021 232.1198,177.3323 Q231.5263,177.0625 230.8955,177.0625 Q229.5507,177.0625 228.8659,178.1292 Q228.1811,179.1958 228.1811,181.2959 Q228.1811,183.3877 228.8659,184.4544 Q229.5507,185.521 230.8955,185.521 Q231.5263,185.521 232.1198,185.2512 Q232.7133,184.9815 233.3442,184.4004 Z " fill="#000000"/><text fill="#000000" font-family="sans-serif" font-size="14" lengthAdjust="spacing" textLength="53.833" x="251.3711" y="186.271">Browser</text><line style="stroke:#181818;stroke-width:0.5;" x1="177.04" x2="347.0351" y1="196.98" y2="196.98"/><rect fill="none" height="6" style="stroke:#C82930;stroke-width:1.0;" width="6" x="184.04" y="207.7241"/><text fill="#000000" font-family="sans-serif" font-size="14" lengthAdjust="spacing" textLength="96.9131" x="196.04" y="214.5152">Payment Form</text><rect fill="none" height="6" style="stroke:#C82930;stroke-width:1.0;" width="6" x="184.04" y="224.2124"/><text fill="#000000" font-family="sans-serif" font-size="14" lengthAdjust="spacing" textLength="138.4277" x="196.04" y="231.0034">Confirmation Screen</text><rect fill="none" height="6" style="stroke:#C82930;stroke-width:1.0;" width="6" x="184.04" y="240.7007"/><text fill="#000000" font-family="sans-serif" font-size="14" lengthAdjust="spacing" textLength="101.0283" x="196.04" y="247.4917">Validates Form</text><rect fill="none" height="6" style="stroke:#C82930;stroke-width:1.0;" width="6" x="184.04" y="257.189"/><text fill="#000000" font-family="sans-serif" font-size="14" lengthAdjust="spacing" textLength="145.9951" x="196.04" y="263.98">Sends payment token</text><rect fill="none" height="6" style="stroke:#C82930;stroke-width:1.0;" width="6" x="184.04" y="273.6773"/><text fill="#000000" font-family="sans-serif" font-size="14" lengthAdjust="spacing" textLength="135.8574" x="196.04" y="280.4683">Payment processing</text><line style="stroke:#181818;stroke-width:0.5;" x1="177.04" x2="347.0351" y1="287.4214" y2="287.4214"/></g><!--class BackendService--><g id="elem_BackendService"><rect codeLine="17" fill="#F1F1F1" height="97.4648" id="BackendService" rx="2.5" ry="2.5" style="stroke:#181818;stroke-width:0.5;" width="155.4111" x="163.33" y="530.4"/><ellipse cx="187.1687" cy="546.4" fill="#ADD1B2" rx="11" ry="11" style="stroke:#181818;stroke-width:1.0;"/><path d="M189.6419,552.5431 Q189.0608,552.8419 188.4217,552.9913 Q187.7825,553.1407 187.0769,553.1407 Q184.5701,553.1407 183.2503,551.4889 Q181.9304,549.837 181.9304,546.7159 Q181.9304,543.5865 183.2503,541.9347 Q184.5701,540.2828 187.0769,540.2828 Q187.7825,540.2828 188.43,540.4322 Q189.0774,540.5816 189.6419,540.8805 L189.6419,543.6031 Q189.011,543.0221 188.4175,542.7523 Q187.824,542.4825 187.1931,542.4825 Q185.8484,542.4825 185.1636,543.5492 Q184.4788,544.6158 184.4788,546.7159 Q184.4788,548.8077 185.1636,549.8744 Q185.8484,550.941 187.1931,550.941 Q187.824,550.941 188.4175,550.6712 Q189.011,550.4015 189.6419,549.8204 Z " fill="#000000"/><text fill="#000000" font-family="sans-serif" font-size="14" lengthAdjust="spacing" textLength="103.7695" x="203.1329" y="551.691">BackendService</text><line style="stroke:#181818;stroke-width:0.5;" x1="164.33" x2="317.7411" y1="562.4" y2="562.4"/><rect fill="none" height="6" style="stroke:#C82930;stroke-width:1.0;" width="6" x="171.33" y="573.1441"/><text fill="#000000" font-family="sans-serif" font-size="14" lengthAdjust="spacing" textLength="86.3311" x="183.33" y="579.9352">API Endpoint</text><rect fill="none" height="6" style="stroke:#C82930;stroke-width:1.0;" width="6" x="171.33" y="589.6324"/><text fill="#000000" font-family="sans-serif" font-size="14" lengthAdjust="spacing" textLength="129.4111" x="183.33" y="596.4234">Invoice Verification</text><rect fill="none" height="6" style="stroke:#C82930;stroke-width:1.0;" width="6" x="171.33" y="606.1207"/><text fill="#000000" font-family="sans-serif" font-size="14" lengthAdjust="spacing" textLength="88.2451" x="183.33" y="612.9117">Email Service</text><line style="stroke:#181818;stroke-width:0.5;" x1="164.33" x2="317.7411" y1="619.8648" y2="619.8648"/></g><!--class Stripe--><g id="elem_Stripe"><rect codeLine="23" fill="#F1F1F1" height="80.9766" id="Stripe" rx="2.5" ry="2.5" style="stroke:#181818;stroke-width:0.5;" width="186.6924" x="126.69" y="372.42"/><ellipse cx="196.2046" cy="388.42" fill="#ADD1B2" rx="11" ry="11" style="stroke:#181818;stroke-width:1.0;"/><path d="M198.6778,394.5631 Q198.0967,394.8619 197.4576,395.0113 Q196.8184,395.1607 196.1129,395.1607 Q193.606,395.1607 192.2862,393.5089 Q190.9664,391.857 190.9664,388.7359 Q190.9664,385.6065 192.2862,383.9547 Q193.606,382.3028 196.1129,382.3028 Q196.8184,382.3028 197.4659,382.4522 Q198.1133,382.6016 198.6778,382.9005 L198.6778,385.6231 Q198.0469,385.0421 197.4534,384.7723 Q196.8599,384.5025 196.2291,384.5025 Q194.8843,384.5025 194.1995,385.5692 Q193.5147,386.6358 193.5147,388.7359 Q193.5147,390.8277 194.1995,391.8944 Q194.8843,392.961 196.2291,392.961 Q196.8599,392.961 197.4534,392.6912 Q198.0469,392.4215 198.6778,391.8404 Z " fill="#000000"/><text fill="#000000" font-family="sans-serif" font-size="14" lengthAdjust="spacing" textLength="39.1631" x="216.7046" y="393.711">Stripe</text><line style="stroke:#181818;stroke-width:0.5;" x1="127.69" x2="312.3824" y1="404.42" y2="404.42"/><rect fill="none" height="6" style="stroke:#C82930;stroke-width:1.0;" width="6" x="134.69" y="415.1641"/><text fill="#000000" font-family="sans-serif" font-size="14" lengthAdjust="spacing" textLength="134.7842" x="146.69" y="421.9552">Payment Processing</text><rect fill="none" height="6" style="stroke:#C82930;stroke-width:1.0;" width="6" x="134.69" y="431.6524"/><text fill="#000000" font-family="sans-serif" font-size="14" lengthAdjust="spacing" textLength="160.6924" x="146.69" y="438.4434">Returns Payment Token</text><line style="stroke:#181818;stroke-width:0.5;" x1="127.69" x2="312.3824" y1="445.3966" y2="445.3966"/></g><!--class Email--><g id="elem_Email"><rect codeLine="28" fill="#F1F1F1" height="64.4883" id="Email" rx="2.5" ry="2.5" style="stroke:#181818;stroke-width:0.5;" width="88.3438" x="196.86" y="704.86"/><ellipse cx="220.7972" cy="720.86" fill="#ADD1B2" rx="11" ry="11" style="stroke:#181818;stroke-width:1.0;"/><path d="M223.2703,727.0031 Q222.6892,727.3019 222.0501,727.4513 Q221.4109,727.6007 220.7054,727.6007 Q218.1985,727.6007 216.8787,725.9489 Q215.5589,724.297 215.5589,721.1759 Q215.5589,718.0465 216.8787,716.3947 Q218.1985,714.7428 220.7054,714.7428 Q221.4109,714.7428 222.0584,714.8922 Q222.7058,715.0416 223.2703,715.3405 L223.2703,718.0631 Q222.6394,717.4821 222.0459,717.2123 Q221.4524,716.9425 220.8216,716.9425 Q219.4768,716.9425 218.792,718.0092 Q218.1072,719.0758 218.1072,721.1759 Q218.1072,723.2677 218.792,724.3344 Q219.4768,725.401 220.8216,725.401 Q221.4524,725.401 222.0459,725.1312 Q222.6394,724.8615 223.2703,724.2804 Z " fill="#000000"/><text fill="#000000" font-family="sans-serif" font-size="14" lengthAdjust="spacing" textLength="36.4834" x="236.7832" y="726.151">Email</text><line style="stroke:#181818;stroke-width:0.5;" x1="197.86" x2="284.2038" y1="736.86" y2="736.86"/><rect fill="none" height="6" style="stroke:#C82930;stroke-width:1.0;" width="6" x="204.86" y="747.6041"/><text fill="#000000" font-family="sans-serif" font-size="14" lengthAdjust="spacing" textLength="62.3438" x="216.86" y="754.3952">Email API</text><line style="stroke:#181818;stroke-width:0.5;" x1="197.86" x2="284.2038" y1="761.3483" y2="761.3483"/></g><!--link User to Browser--><g id="link_User_Browser"><path codeLine="32" d="M197.18,88.19 C183.87,101.53 175.62,117.51 182.04,134.98 C185.85,145.35 187.9831,150.4105 194.3631,159.7805 " fill="none" id="User-to-Browser" style="stroke:#181818;stroke-width:1.0;"/><polygon fill="#181818" points="197.74,164.74,195.981,155.0495,194.9259,160.6071,189.3683,159.552,197.74,164.74" style="stroke:#181818;stroke-width:1.0;"/><text fill="#000000" font-family="sans-serif" font-size="13" lengthAdjust="spacing" textLength="112.3472" x="183.04" y="131.5484">Fill Payment Form</text></g><!--link Browser to User--><g id="link_Browser_User"><path codeLine="40" d="M297.41,164.73 C302.01,149.54 303.95,133.3 300.04,117.98 C297.45,107.85 295.8302,102.937 290.9202,93.547 " fill="none" id="Browser-to-User" style="stroke:#181818;stroke-width:1.0;"/><polygon fill="#181818" points="288.14,88.23,288.7657,98.059,290.4569,92.6608,295.855,94.352,288.14,88.23" style="stroke:#181818;stroke-width:1.0;"/><text fill="#000000" font-family="sans-serif" font-size="13" lengthAdjust="spacing" textLength="133.0405" x="303.04" y="131.5484">Display Confirmation</text></g><!--link Browser to BackendService--><g id="link_Browser_BackendService"><path codeLine="33" d="M175.68,256.55 C120.78,277.77 54.34,314.15 23.04,372.42 C6,404.12 6.32,421.52 23.04,453.4 C51.03,506.78 106.7265,536.8527 157.2265,555.0827 " fill="none" id="Browser-to-BackendService" style="stroke:#181818;stroke-width:1.0;"/><polygon fill="#181818" points="162.87,557.12,155.7629,550.3017,158.167,555.4223,153.0465,557.8265,162.87,557.12" style="stroke:#181818;stroke-width:1.0;"/><text fill="#000000" font-family="sans-serif" font-size="13" lengthAdjust="spacing" textLength="84.6904" x="24.04" y="417.9784">Verify Invoice</text></g><!--link BackendService to Browser--><g id="link_BackendService_Browser"><path codeLine="34" d="M319.03,541.96 C334.67,530.93 349.05,517.16 358.04,500.4 C394.87,431.7 376.53,397.16 346.04,325.42 C341.66,315.13 339.2219,310.0676 332.4719,300.7576 " fill="none" id="BackendService-to-Browser" style="stroke:#181818;stroke-width:1.0;"/><polygon fill="#181818" points="328.95,295.9,330.9944,305.5343,331.8849,299.948,337.4712,300.8385,328.95,295.9" style="stroke:#181818;stroke-width:1.0;"/><text fill="#000000" font-family="sans-serif" font-size="13" lengthAdjust="spacing" textLength="97.0811" x="379.04" y="417.9784">Invoice Verified</text></g><!--link BackendService to Browser--><g id="link_BackendService_Browser"><path codeLine="39" d="M319.16,561.13 C376.04,544.22 449.15,512.04 485.04,453.4 C503.82,422.7 502.39,403.95 485.04,372.42 C455.98,319.63 403.3999,286.2758 353.8199,263.9258 " fill="none" id="BackendService-to-Browser-1" style="stroke:#181818;stroke-width:1.0;"/><polygon fill="#181818" points="348.35,261.46,354.911,268.8053,352.9083,263.5148,358.1987,261.512,348.35,261.46" style="stroke:#181818;stroke-width:1.0;"/><text fill="#000000" font-family="sans-serif" font-size="13" lengthAdjust="spacing" textLength="117.7744" x="499.04" y="417.9784">Payment Response</text></g><!--link Browser to Stripe--><g id="link_Browser_Stripe"><path codeLine="35" d="M175.76,263.04 C148.52,277.66 121.51,298 106.04,325.42 C94.68,345.54 101.6479,359.1017 121.4579,372.4817 " fill="none" id="Browser-to-Stripe" style="stroke:#181818;stroke-width:1.0;"/><polygon fill="#181818" points="126.43,375.84,121.2106,367.4879,122.2866,373.0415,116.733,374.1174,126.43,375.84" style="stroke:#181818;stroke-width:1.0;"/><text fill="#000000" font-family="sans-serif" font-size="13" lengthAdjust="spacing" textLength="111.1602" x="107.04" y="338.9884">Initialize Payment</text></g><!--link Stripe to Browser--><g id="link_Stripe_Browser"><path codeLine="36" d="M229.33,371.92 C234.53,349.55 239.7828,326.9645 245.6928,301.5145 " fill="none" id="Stripe-to-Browser" style="stroke:#181818;stroke-width:1.0;"/><polygon fill="#181818" points="247.05,295.67,241.1179,303.5319,245.919,300.5404,248.9105,305.3415,247.05,295.67" style="stroke:#181818;stroke-width:1.0;"/><text fill="#000000" font-family="sans-serif" font-size="13" lengthAdjust="spacing" textLength="96.6938" x="241.04" y="338.9884">Payment Token</text></g><!--link BackendService to Stripe--><g id="link_BackendService_Stripe"><path codeLine="37" d="M234.88,529.96 C231.77,505.7 228.8217,482.5814 225.8817,459.6114 " fill="none" id="BackendService-to-Stripe" style="stroke:#181818;stroke-width:1.0;"/><polygon fill="#181818" points="225.12,453.66,222.295,463.095,225.7548,458.6195,230.2302,462.0793,225.12,453.66" style="stroke:#181818;stroke-width:1.0;"/><text fill="#000000" font-family="sans-serif" font-size="13" lengthAdjust="spacing" textLength="117.9839" x="232.04" y="496.9684">Complete Payment</text></g><!--link Stripe to BackendService--><g id="link_Stripe_BackendService"><path codeLine="38" d="M126.39,448.07 C104.48,461.7 90.67,479.24 103.04,500.4 C116.49,523.43 134.22,537.4439 157.68,549.3539 " fill="none" id="Stripe-to-BackendService" style="stroke:#181818;stroke-width:1.0;"/><polygon fill="#181818" points="163.03,552.07,156.8156,544.4292,158.5716,549.8066,153.1942,551.5626,163.03,552.07" style="stroke:#181818;stroke-width:1.0;"/><text fill="#000000" font-family="sans-serif" font-size="13" lengthAdjust="spacing" textLength="117.7744" x="104.04" y="496.9684">Payment Response</text></g><!--link BackendService to Email--><g id="link_BackendService_Email"><path codeLine="41" d="M241.04,628.2 C241.04,653.08 241.04,676.76 241.04,698.68 " fill="none" id="BackendService-to-Email" style="stroke:#181818;stroke-width:1.0;"/><polygon fill="#181818" points="241.04,704.68,245.04,695.68,241.04,699.68,237.04,695.68,241.04,704.68" style="stroke:#181818;stroke-width:1.0;"/><text fill="#000000" font-family="sans-serif" font-size="13" lengthAdjust="spacing" textLength="155.4922" x="242.04" y="671.4284">Send Confirmation Email</text></g><!--SRC=[XPBHReCm34NV-Ghl0_Y1FapgEZfLcYfKshv7O2Ph8OcSh1Ehzkyh8HH2aVPgtvpSQ_kfmfeKmY7R7DVxj_SCIYciJPAnSBB8S4q0KjYIb1PoqJQe76mrDxxyIjP8qLhOQ5KJDyAHLg0PCcRDoU-KziBwUmG-e292KJAYylMpa5G9XtQK5gWg2oOGdFuCqe5fM9TeBQcFcGDHtgHLWNoX4eEHTRw3J5L6atA-i5CNtRNFo5HJwGtvHjO8aX1Un-J2CHcSHSj76rtvWEwBrJZ4e_STOVeVhfFVRkuwYTz4cZxVXxZo6ucdEFIyBewwwjEqGxXare_HyGImYiWXQgSYHxVb_E1W8mczc1RdNVZuJjpenaXqoxnve05xG6kqilz4UbHF8frwJJZcw1ANgFrcLluCuxFrdJy0]--></g></svg>