<svg xmlns="http://www.w3.org/2000/svg" xmlns:xlink="http://www.w3.org/1999/xlink" contentStyleType="text/css" height="809px" preserveAspectRatio="none" style="width:786px;height:809px;background:#FFFFFF;" version="1.1" viewBox="0 0 786 809" width="786px" zoomAndPan="magnify"><defs/><g><!--class User--><g id="elem_User"><rect codeLine="4" fill="#F1F1F1" height="80.9766" id="User" rx="2.5" ry="2.5" style="stroke:#181818;stroke-width:0.5;" width="232.9717" x="249.59" y="7"/><ellipse cx="346.6432" cy="23" fill="#ADD1B2" rx="11" ry="11" style="stroke:#181818;stroke-width:1.0;"/><path d="M349.1164,29.1431 Q348.5353,29.4419 347.8962,29.5913 Q347.257,29.7407 346.5514,29.7407 Q344.0446,29.7407 342.7248,28.0889 Q341.4049,26.437 341.4049,23.3159 Q341.4049,20.1865 342.7248,18.5347 Q344.0446,16.8828 346.5514,16.8828 Q347.257,16.8828 347.9045,17.0322 Q348.5519,17.1816 349.1164,17.4805 L349.1164,20.2031 Q348.4855,19.6221 347.892,19.3523 Q347.2985,19.0825 346.6676,19.0825 Q345.3229,19.0825 344.6381,20.1492 Q343.9533,21.2158 343.9533,23.3159 Q343.9533,25.4077 344.6381,26.4744 Q345.3229,27.541 346.6676,27.541 Q347.2985,27.541 347.892,27.2712 Q348.4855,27.0015 349.1164,26.4204 Z " fill="#000000"/><text fill="#000000" font-family="sans-serif" font-size="14" lengthAdjust="spacing" textLength="30.3652" x="367.1432" y="28.291">User</text><line style="stroke:#181818;stroke-width:0.5;" x1="250.59" x2="481.5617" y1="39" y2="39"/><rect fill="none" height="6" style="stroke:#C82930;stroke-width:1.0;" width="6" x="257.59" y="49.7441"/><text fill="#000000" font-family="sans-serif" font-size="14" lengthAdjust="spacing" textLength="128.126" x="269.59" y="56.5352">Fills Payment Form</text><rect fill="none" height="6" style="stroke:#C82930;stroke-width:1.0;" width="6" x="257.59" y="66.2324"/><text fill="#000000" font-family="sans-serif" font-size="14" lengthAdjust="spacing" textLength="206.9717" x="269.59" y="73.0234">Displays Confirmation or Error</text><line style="stroke:#181818;stroke-width:0.5;" x1="250.59" x2="481.5617" y1="79.9766" y2="79.9766"/></g><!--class Browser--><g id="elem_Browser"><rect codeLine="9" fill="#F1F1F1" height="113.9531" id="Browser" rx="2.5" ry="2.5" style="stroke:#181818;stroke-width:0.5;" width="171.9951" x="280.08" y="164.97"/><ellipse cx="334.9111" cy="180.97" fill="#ADD1B2" rx="11" ry="11" style="stroke:#181818;stroke-width:1.0;"/><path d="M337.3842,187.1131 Q336.8031,187.4119 336.164,187.5613 Q335.5248,187.7107 334.8193,187.7107 Q332.3124,187.7107 330.9926,186.0589 Q329.6728,184.407 329.6728,181.2859 Q329.6728,178.1565 330.9926,176.5047 Q332.3124,174.8528 334.8193,174.8528 Q335.5248,174.8528 336.1723,175.0022 Q336.8197,175.1516 337.3842,175.4505 L337.3842,178.1731 Q336.7533,177.5921 336.1598,177.3223 Q335.5663,177.0525 334.9355,177.0525 Q333.5907,177.0525 332.9059,178.1192 Q332.2211,179.1858 332.2211,181.2859 Q332.2211,183.3777 332.9059,184.4444 Q333.5907,185.511 334.9355,185.511 Q335.5663,185.511 336.1598,185.2412 Q336.7533,184.9715 337.3842,184.3904 Z " fill="#000000"/><text fill="#000000" font-family="sans-serif" font-size="14" lengthAdjust="spacing" textLength="53.833" x="355.4111" y="186.261">Browser</text><line style="stroke:#181818;stroke-width:0.5;" x1="281.08" x2="451.0751" y1="196.97" y2="196.97"/><rect fill="none" height="6" style="stroke:#C82930;stroke-width:1.0;" width="6" x="288.08" y="207.7141"/><text fill="#000000" font-family="sans-serif" font-size="14" lengthAdjust="spacing" textLength="96.9131" x="300.08" y="214.5052">Payment Form</text><rect fill="none" height="6" style="stroke:#C82930;stroke-width:1.0;" width="6" x="288.08" y="224.2024"/><text fill="#000000" font-family="sans-serif" font-size="14" lengthAdjust="spacing" textLength="138.4277" x="300.08" y="230.9934">Confirmation Screen</text><rect fill="none" height="6" style="stroke:#C82930;stroke-width:1.0;" width="6" x="288.08" y="240.6907"/><text fill="#000000" font-family="sans-serif" font-size="14" lengthAdjust="spacing" textLength="101.0283" x="300.08" y="247.4817">Validates Form</text><rect fill="none" height="6" style="stroke:#C82930;stroke-width:1.0;" width="6" x="288.08" y="257.179"/><text fill="#000000" font-family="sans-serif" font-size="14" lengthAdjust="spacing" textLength="145.9951" x="300.08" y="263.97">Sends payment token</text><line style="stroke:#181818;stroke-width:0.5;" x1="281.08" x2="451.0751" y1="270.9231" y2="270.9231"/></g><!--class BackendService--><g id="elem_BackendService"><rect codeLine="16" fill="#F1F1F1" height="146.9297" id="BackendService" rx="2.5" ry="2.5" style="stroke:#181818;stroke-width:0.5;" width="161.4063" x="271.38" y="513.9"/><ellipse cx="297.9165" cy="529.9" fill="#ADD1B2" rx="11" ry="11" style="stroke:#181818;stroke-width:1.0;"/><path d="M300.3897,536.0431 Q299.8086,536.3419 299.1695,536.4913 Q298.5303,536.6407 297.8247,536.6407 Q295.3179,536.6407 293.9981,534.9889 Q292.6782,533.337 292.6782,530.2159 Q292.6782,527.0865 293.9981,525.4347 Q295.3179,523.7828 297.8247,523.7828 Q298.5303,523.7828 299.1778,523.9322 Q299.8252,524.0816 300.3897,524.3805 L300.3897,527.1031 Q299.7588,526.5221 299.1653,526.2523 Q298.5718,525.9825 297.9409,525.9825 Q296.5962,525.9825 295.9114,527.0492 Q295.2266,528.1158 295.2266,530.2159 Q295.2266,532.3077 295.9114,533.3744 Q296.5962,534.441 297.9409,534.441 Q298.5718,534.441 299.1653,534.1712 Q299.7588,533.9015 300.3897,533.3204 Z " fill="#000000"/><text fill="#000000" font-family="sans-serif" font-size="14" lengthAdjust="spacing" textLength="103.7695" x="314.4802" y="535.191">BackendService</text><line style="stroke:#181818;stroke-width:0.5;" x1="272.38" x2="431.7863" y1="545.9" y2="545.9"/><rect fill="none" height="6" style="stroke:#C82930;stroke-width:1.0;" width="6" x="279.38" y="556.6441"/><text fill="#000000" font-family="sans-serif" font-size="14" lengthAdjust="spacing" textLength="86.3311" x="291.38" y="563.4352">API Endpoint</text><rect fill="none" height="6" style="stroke:#C82930;stroke-width:1.0;" width="6" x="279.38" y="573.1324"/><text fill="#000000" font-family="sans-serif" font-size="14" lengthAdjust="spacing" textLength="103.708" x="291.38" y="579.9234">Data Validation</text><rect fill="none" height="6" style="stroke:#C82930;stroke-width:1.0;" width="6" x="279.38" y="589.6207"/><text fill="#000000" font-family="sans-serif" font-size="14" lengthAdjust="spacing" textLength="129.4111" x="291.38" y="596.4117">Invoice Verification</text><rect fill="none" height="6" style="stroke:#C82930;stroke-width:1.0;" width="6" x="279.38" y="606.109"/><text fill="#000000" font-family="sans-serif" font-size="14" lengthAdjust="spacing" textLength="134.7842" x="291.38" y="612.9">Payment Processing</text><rect fill="none" height="6" style="stroke:#C82930;stroke-width:1.0;" width="6" x="279.38" y="622.5973"/><text fill="#000000" font-family="sans-serif" font-size="14" lengthAdjust="spacing" textLength="135.4063" x="291.38" y="629.3883">Transaction Storage</text><rect fill="none" height="6" style="stroke:#C82930;stroke-width:1.0;" width="6" x="279.38" y="639.0855"/><text fill="#000000" font-family="sans-serif" font-size="14" lengthAdjust="spacing" textLength="88.2451" x="291.38" y="645.8766">Email Service</text><line style="stroke:#181818;stroke-width:0.5;" x1="272.38" x2="431.7863" y1="652.8297" y2="652.8297"/></g><!--class Stripe--><g id="elem_Stripe"><rect codeLine="25" fill="#F1F1F1" height="80.9766" id="Stripe" rx="2.5" ry="2.5" style="stroke:#181818;stroke-width:0.5;" width="186.6924" x="328.73" y="355.93"/><ellipse cx="398.2446" cy="371.93" fill="#ADD1B2" rx="11" ry="11" style="stroke:#181818;stroke-width:1.0;"/><path d="M400.7178,378.0731 Q400.1367,378.3719 399.4976,378.5213 Q398.8584,378.6707 398.1529,378.6707 Q395.646,378.6707 394.3262,377.0189 Q393.0064,375.367 393.0064,372.2459 Q393.0064,369.1165 394.3262,367.4647 Q395.646,365.8128 398.1529,365.8128 Q398.8584,365.8128 399.5059,365.9622 Q400.1533,366.1116 400.7178,366.4105 L400.7178,369.1331 Q400.0869,368.5521 399.4934,368.2823 Q398.8999,368.0125 398.2691,368.0125 Q396.9243,368.0125 396.2395,369.0792 Q395.5547,370.1458 395.5547,372.2459 Q395.5547,374.3377 396.2395,375.4044 Q396.9243,376.471 398.2691,376.471 Q398.8999,376.471 399.4934,376.2012 Q400.0869,375.9315 400.7178,375.3504 Z " fill="#000000"/><text fill="#000000" font-family="sans-serif" font-size="14" lengthAdjust="spacing" textLength="39.1631" x="418.7446" y="377.221">Stripe</text><line style="stroke:#181818;stroke-width:0.5;" x1="329.73" x2="514.4224" y1="387.93" y2="387.93"/><rect fill="none" height="6" style="stroke:#C82930;stroke-width:1.0;" width="6" x="336.73" y="398.6741"/><text fill="#000000" font-family="sans-serif" font-size="14" lengthAdjust="spacing" textLength="134.7842" x="348.73" y="405.4652">Payment Processing</text><rect fill="none" height="6" style="stroke:#C82930;stroke-width:1.0;" width="6" x="336.73" y="415.1624"/><text fill="#000000" font-family="sans-serif" font-size="14" lengthAdjust="spacing" textLength="160.6924" x="348.73" y="421.9534">Returns Payment Token</text><line style="stroke:#181818;stroke-width:0.5;" x1="329.73" x2="514.4224" y1="428.9066" y2="428.9066"/></g><!--class Email--><g id="elem_Email"><rect codeLine="30" fill="#F1F1F1" height="64.4883" id="Email" rx="2.5" ry="2.5" style="stroke:#181818;stroke-width:0.5;" width="88.3438" x="307.91" y="737.83"/><ellipse cx="331.8472" cy="753.83" fill="#ADD1B2" rx="11" ry="11" style="stroke:#181818;stroke-width:1.0;"/><path d="M334.3203,759.9731 Q333.7392,760.2719 333.1001,760.4213 Q332.4609,760.5707 331.7554,760.5707 Q329.2485,760.5707 327.9287,758.9189 Q326.6089,757.267 326.6089,754.1459 Q326.6089,751.0165 327.9287,749.3647 Q329.2485,747.7128 331.7554,747.7128 Q332.4609,747.7128 333.1084,747.8622 Q333.7558,748.0116 334.3203,748.3105 L334.3203,751.0331 Q333.6894,750.4521 333.0959,750.1823 Q332.5024,749.9125 331.8716,749.9125 Q330.5268,749.9125 329.842,750.9792 Q329.1572,752.0458 329.1572,754.1459 Q329.1572,756.2377 329.842,757.3044 Q330.5268,758.371 331.8716,758.371 Q332.5024,758.371 333.0959,758.1012 Q333.6894,757.8315 334.3203,757.2504 Z " fill="#000000"/><text fill="#000000" font-family="sans-serif" font-size="14" lengthAdjust="spacing" textLength="36.4834" x="347.8332" y="759.121">Email</text><line style="stroke:#181818;stroke-width:0.5;" x1="308.91" x2="395.2537" y1="769.83" y2="769.83"/><rect fill="none" height="6" style="stroke:#C82930;stroke-width:1.0;" width="6" x="315.91" y="780.5741"/><text fill="#000000" font-family="sans-serif" font-size="14" lengthAdjust="spacing" textLength="62.3438" x="327.91" y="787.3652">Email API</text><line style="stroke:#181818;stroke-width:0.5;" x1="308.91" x2="395.2537" y1="794.3183" y2="794.3183"/></g><!--link User to Browser--><g id="link_User_Browser"><path codeLine="34" d="M300.73,88.37 C287.41,101.72 279.27,117.65 286.08,134.97 C290.18,145.41 292.5916,150.5514 299.5316,159.6914 " fill="none" id="User-to-Browser" style="stroke:#181818;stroke-width:1.0;"/><polygon fill="#181818" points="303.16,164.47,300.9032,154.8832,300.1364,160.4878,294.5317,159.721,303.16,164.47" style="stroke:#181818;stroke-width:1.0;"/><text fill="#000000" font-family="sans-serif" font-size="13" lengthAdjust="spacing" textLength="112.3472" x="287.08" y="131.5384">Fill Payment Form</text></g><!--link Browser to User--><g id="link_Browser_User"><path codeLine="43" d="M399.95,164.69 C405.35,149.7 408.02,133.39 404.08,117.97 C401.49,107.85 399.8702,102.927 394.9602,93.537 " fill="none" id="Browser-to-User" style="stroke:#181818;stroke-width:1.0;"/><polygon fill="#181818" points="392.18,88.22,392.8057,98.049,394.4969,92.6508,399.895,94.342,392.18,88.22" style="stroke:#181818;stroke-width:1.0;"/><text fill="#000000" font-family="sans-serif" font-size="13" lengthAdjust="spacing" textLength="133.0405" x="406.08" y="131.5384">Display Confirmation</text></g><!--link Browser to BackendService--><g id="link_Browser_BackendService"><path codeLine="35" d="M279.85,235.29 C209.16,250.47 113.47,283.76 67.08,355.93 C6,450.93 160.9667,522.9884 265.2267,559.4684 " fill="none" id="Browser-to-BackendService" style="stroke:#181818;stroke-width:1.0;"/><polygon fill="#181818" points="270.89,561.45,263.716,554.7021,266.1706,559.7987,261.0739,562.2532,270.89,561.45" style="stroke:#181818;stroke-width:1.0;"/><text fill="#000000" font-family="sans-serif" font-size="13" lengthAdjust="spacing" textLength="84.6904" x="68.08" y="401.4784">Verify Invoice</text></g><!--link BackendService to Browser--><g id="link_BackendService_Browser"><path codeLine="36" d="M433.24,556.38 C466.73,539.97 502.83,516.26 525.08,483.9 C537.08,466.44 531.29,458.02 533.08,436.9 C537.92,379.6 551.75,352.37 514.08,308.93 C497.14,289.39 479.8206,276.2024 457.4706,263.3424 " fill="none" id="BackendService-to-Browser" style="stroke:#181818;stroke-width:1.0;"/><polygon fill="#181818" points="452.27,260.35,458.0759,268.3056,456.6038,262.8436,462.0657,261.3715,452.27,260.35" style="stroke:#181818;stroke-width:1.0;"/><text fill="#000000" font-family="sans-serif" font-size="13" lengthAdjust="spacing" textLength="97.0811" x="540.08" y="401.4784">Invoice Verified</text></g><!--link Browser to BackendService--><g id="link_Browser_BackendService"><path codeLine="39" d="M279.93,276.2 C253.42,297.43 227.46,324.38 213.08,355.93 C198.15,388.67 200.86,403.05 213.08,436.9 C224.69,469.07 243.0626,493.9622 266.7326,517.8022 " fill="none" id="Browser-to-BackendService-1" style="stroke:#181818;stroke-width:1.0;"/><polygon fill="#181818" points="270.96,522.06,267.4574,512.855,267.4371,518.5118,261.7803,518.4916,270.96,522.06" style="stroke:#181818;stroke-width:1.0;"/><text fill="#000000" font-family="sans-serif" font-size="13" lengthAdjust="spacing" textLength="96.6938" x="214.08" y="401.4784">Payment Token</text></g><!--link BackendService to Browser--><g id="link_BackendService_Browser"><path codeLine="42" d="M432.98,569.91 C503,550.92 600.05,512.11 646.08,436.9 C664.87,406.21 665.31,386.35 646.08,355.93 C603.88,289.17 523.8625,256.7384 458.2925,239.9484 " fill="none" id="BackendService-to-Browser-1" style="stroke:#181818;stroke-width:1.0;"/><polygon fill="#181818" points="452.48,238.46,460.2065,244.5675,457.3237,239.7003,462.1909,236.8176,452.48,238.46" style="stroke:#181818;stroke-width:1.0;"/><text fill="#000000" font-family="sans-serif" font-size="13" lengthAdjust="spacing" textLength="117.7744" x="661.08" y="401.4784">Payment Response</text></g><!--link Browser to Stripe--><g id="link_Browser_Stripe"><path codeLine="37" d="M292.67,279.41 C282.05,294.12 277.52,310.25 287.08,325.93 C296.96,342.13 306.7928,351.6605 323.2628,361.3805 " fill="none" id="Browser-to-Stripe" style="stroke:#181818;stroke-width:1.0;"/><polygon fill="#181818" points="328.43,364.43,322.7121,356.4109,324.124,361.8887,318.6461,363.3005,328.43,364.43" style="stroke:#181818;stroke-width:1.0;"/><text fill="#000000" font-family="sans-serif" font-size="13" lengthAdjust="spacing" textLength="111.1602" x="288.08" y="322.4984">Initialize Payment</text></g><!--link Stripe to Browser--><g id="link_Stripe_Browser"><path codeLine="38" d="M415.65,355.78 C412.77,340.9 408.91,323.97 404.08,308.93 C400.94,299.14 399.3549,294.4954 395.2649,284.7154 " fill="none" id="Stripe-to-Browser" style="stroke:#181818;stroke-width:1.0;"/><polygon fill="#181818" points="392.95,279.18,392.7321,289.0264,394.8791,283.7929,400.1127,285.9399,392.95,279.18" style="stroke:#181818;stroke-width:1.0;"/><text fill="#000000" font-family="sans-serif" font-size="13" lengthAdjust="spacing" textLength="96.6938" x="409.08" y="322.4984">Payment Token</text></g><!--link BackendService to Stripe--><g id="link_BackendService_Stripe"><path codeLine="40" d="M381.82,513.52 C385.7,503.6 389.54,493.52 393.08,483.9 C398.65,468.74 402.4907,457.6248 407.3807,442.8848 " fill="none" id="BackendService-to-Stripe" style="stroke:#181818;stroke-width:1.0;"/><polygon fill="#181818" points="409.27,437.19,402.6396,444.4727,407.6956,441.9357,410.2327,446.9917,409.27,437.19" style="stroke:#181818;stroke-width:1.0;"/><text fill="#000000" font-family="sans-serif" font-size="13" lengthAdjust="spacing" textLength="117.9839" x="399.08" y="480.4684">Complete Payment</text></g><!--link Stripe to BackendService--><g id="link_Stripe_BackendService"><path codeLine="41" d="M328.31,429.35 C299.98,441.01 274.19,454.41 266.08,466.9 C254.67,484.48 256.0079,498.094 267.6979,515.224 " fill="none" id="Stripe-to-BackendService" style="stroke:#181818;stroke-width:1.0;"/><polygon fill="#181818" points="271.08,520.18,269.3108,510.4913,268.2616,516.05,262.7029,515.0008,271.08,520.18" style="stroke:#181818;stroke-width:1.0;"/><text fill="#000000" font-family="sans-serif" font-size="13" lengthAdjust="spacing" textLength="117.7744" x="267.08" y="480.4684">Payment Response</text></g><!--link BackendService to Email--><g id="link_BackendService_Email"><path codeLine="44" d="M352.08,661.09 C352.08,687.76 352.08,710.57 352.08,731.72 " fill="none" id="BackendService-to-Email" style="stroke:#181818;stroke-width:1.0;"/><polygon fill="#181818" points="352.08,737.72,356.08,728.72,352.08,732.72,348.08,728.72,352.08,737.72" style="stroke:#181818;stroke-width:1.0;"/><text fill="#000000" font-family="sans-serif" font-size="13" lengthAdjust="spacing" textLength="155.4922" x="353.08" y="704.3984">Send Confirmation Email</text></g><!--SRC=[XLD1Ri8m4Bpd5Ti7y04EbIWD5L9L8HAuMyw2LdNiQDUbIb7_tk0a12UqlSwEPsR7zaE11x88stIPBzvUNbFGHeaaoG3i11dE2S0CLcICm4RL9LeFAyTbW9z9AgDgWQMp1-9IUN8M74FAx3ZvlbLxOlSv24wa8eLCCw8D-5uPAfH76QWPsaAWwXIyUs-eiPNI3LPao2VIs3akDcj8RL4vihuDhxpgvHlJWAtjoLsEx97fG7eOz7atx3IAa3q6E6TbHUasj7UiZXZmj5Hae0iGXyiyKuMZ6aQoM_GVR8V2y-cEhSFvngrPy489jpQRFLuBduVRYnllPu4NjpLlbw_xBfBHF9QE2yCYKkvMlR38KzFq5_OnacuMgyNx_XboH9rcl9elNLaPzFUjVvFTebJEoZ_RJzataNSjf_iZqGE_fzfUuZoyxlWtXCaF]--></g></svg>