<svg xmlns="http://www.w3.org/2000/svg" xmlns:xlink="http://www.w3.org/1999/xlink" contentStyleType="text/css" height="493px" preserveAspectRatio="none" style="width:425px;height:493px;background:#FFFFFF;" version="1.1" viewBox="0 0 425 493" width="425px" zoomAndPan="magnify"><defs/><g><!--class User--><g id="elem_User"><rect codeLine="4" fill="#F1F1F1" height="80.9766" id="User" rx="2.5" ry="2.5" style="stroke:#181818;stroke-width:0.5;" width="232.9717" x="39.91" y="7"/><ellipse cx="136.9632" cy="23" fill="#ADD1B2" rx="11" ry="11" style="stroke:#181818;stroke-width:1.0;"/><path d="M139.4364,29.1431 Q138.8553,29.4419 138.2162,29.5913 Q137.577,29.7407 136.8714,29.7407 Q134.3646,29.7407 133.0448,28.0889 Q131.7249,26.437 131.7249,23.3159 Q131.7249,20.1865 133.0448,18.5347 Q134.3646,16.8828 136.8714,16.8828 Q137.577,16.8828 138.2245,17.0322 Q138.8719,17.1816 139.4364,17.4805 L139.4364,20.2031 Q138.8055,19.6221 138.212,19.3523 Q137.6185,19.0825 136.9876,19.0825 Q135.6429,19.0825 134.9581,20.1492 Q134.2733,21.2158 134.2733,23.3159 Q134.2733,25.4077 134.9581,26.4744 Q135.6429,27.541 136.9876,27.541 Q137.6185,27.541 138.212,27.2712 Q138.8055,27.0015 139.4364,26.4204 Z " fill="#000000"/><text fill="#000000" font-family="sans-serif" font-size="14" lengthAdjust="spacing" textLength="30.3652" x="157.4632" y="28.291">User</text><line style="stroke:#181818;stroke-width:0.5;" x1="40.91" x2="271.8817" y1="39" y2="39"/><rect fill="none" height="6" style="stroke:#C82930;stroke-width:1.0;" width="6" x="47.91" y="49.7441"/><text fill="#000000" font-family="sans-serif" font-size="14" lengthAdjust="spacing" textLength="128.126" x="59.91" y="56.5352">Fills Payment Form</text><rect fill="none" height="6" style="stroke:#C82930;stroke-width:1.0;" width="6" x="47.91" y="66.2324"/><text fill="#000000" font-family="sans-serif" font-size="14" lengthAdjust="spacing" textLength="206.9717" x="59.91" y="73.0234">Displays Confirmation or Error</text><line style="stroke:#181818;stroke-width:0.5;" x1="40.91" x2="271.8817" y1="79.9766" y2="79.9766"/></g><!--class Browser--><g id="elem_Browser"><rect codeLine="9" fill="#F1F1F1" height="163.418" id="Browser" rx="2.5" ry="2.5" style="stroke:#181818;stroke-width:0.5;" width="185.6807" x="63.55" y="164.98"/><ellipse cx="125.2238" cy="180.98" fill="#ADD1B2" rx="11" ry="11" style="stroke:#181818;stroke-width:1.0;"/><path d="M127.697,187.1231 Q127.1159,187.4219 126.4768,187.5713 Q125.8376,187.7207 125.132,187.7207 Q122.6252,187.7207 121.3054,186.0689 Q119.9855,184.417 119.9855,181.2959 Q119.9855,178.1665 121.3054,176.5147 Q122.6252,174.8628 125.132,174.8628 Q125.8376,174.8628 126.4851,175.0122 Q127.1325,175.1616 127.697,175.4605 L127.697,178.1831 Q127.0661,177.6021 126.4726,177.3323 Q125.8791,177.0625 125.2482,177.0625 Q123.9035,177.0625 123.2187,178.1292 Q122.5339,179.1958 122.5339,181.2959 Q122.5339,183.3877 123.2187,184.4544 Q123.9035,185.521 125.2482,185.521 Q125.8791,185.521 126.4726,185.2512 Q127.0661,184.9815 127.697,184.4004 Z " fill="#000000"/><text fill="#000000" font-family="sans-serif" font-size="14" lengthAdjust="spacing" textLength="53.833" x="145.7238" y="186.271">Browser</text><line style="stroke:#181818;stroke-width:0.5;" x1="64.55" x2="248.2307" y1="196.98" y2="196.98"/><rect fill="none" height="6" style="stroke:#C82930;stroke-width:1.0;" width="6" x="71.55" y="207.7241"/><text fill="#000000" font-family="sans-serif" font-size="14" lengthAdjust="spacing" textLength="96.9131" x="83.55" y="214.5152">Payment Form</text><rect fill="none" height="6" style="stroke:#C82930;stroke-width:1.0;" width="6" x="71.55" y="224.2124"/><text fill="#000000" font-family="sans-serif" font-size="14" lengthAdjust="spacing" textLength="54.9883" x="83.55" y="231.0034">Stripe.js</text><rect fill="none" height="6" style="stroke:#C82930;stroke-width:1.0;" width="6" x="71.55" y="240.7007"/><text fill="#000000" font-family="sans-serif" font-size="14" lengthAdjust="spacing" textLength="101.0283" x="83.55" y="247.4917">Validates Form</text><rect fill="none" height="6" style="stroke:#C82930;stroke-width:1.0;" width="6" x="71.55" y="257.189"/><text fill="#000000" font-family="sans-serif" font-size="14" lengthAdjust="spacing" textLength="128.2559" x="83.55" y="263.98">Processes Payment</text><rect fill="none" height="6" style="stroke:#C82930;stroke-width:1.0;" width="6" x="71.55" y="273.6773"/><text fill="#000000" font-family="sans-serif" font-size="14" lengthAdjust="spacing" textLength="159.6807" x="83.55" y="280.4683">Creates Payment Token</text><rect fill="none" height="6" style="stroke:#C82930;stroke-width:1.0;" width="6" x="71.55" y="290.1655"/><text fill="#000000" font-family="sans-serif" font-size="14" lengthAdjust="spacing" textLength="138.4277" x="83.55" y="296.9566">Confirmation Screen</text><rect fill="none" height="6" style="stroke:#C82930;stroke-width:1.0;" width="6" x="71.55" y="306.6538"/><text fill="#000000" font-family="sans-serif" font-size="14" lengthAdjust="spacing" textLength="80.418" x="83.55" y="313.4448">Email Client</text><line style="stroke:#181818;stroke-width:0.5;" x1="64.55" x2="248.2307" y1="320.398" y2="320.398"/></g><!--class Stripe--><g id="elem_Stripe"><rect codeLine="19" fill="#F1F1F1" height="80.9766" id="Stripe" rx="2.5" ry="2.5" style="stroke:#181818;stroke-width:0.5;" width="160.7842" x="7" y="405.39"/><ellipse cx="63.5605" cy="421.39" fill="#ADD1B2" rx="11" ry="11" style="stroke:#181818;stroke-width:1.0;"/><path d="M66.0337,427.5331 Q65.4526,427.8319 64.8135,427.9813 Q64.1743,428.1307 63.4688,428.1307 Q60.9619,428.1307 59.6421,426.4789 Q58.3223,424.827 58.3223,421.7059 Q58.3223,418.5765 59.6421,416.9247 Q60.9619,415.2728 63.4688,415.2728 Q64.1743,415.2728 64.8218,415.4222 Q65.4692,415.5716 66.0337,415.8705 L66.0337,418.5931 Q65.4028,418.0121 64.8093,417.7423 Q64.2158,417.4725 63.585,417.4725 Q62.2402,417.4725 61.5554,418.5392 Q60.8706,419.6058 60.8706,421.7059 Q60.8706,423.7977 61.5554,424.8644 Q62.2402,425.931 63.585,425.931 Q64.2158,425.931 64.8093,425.6612 Q65.4028,425.3915 66.0337,424.8104 Z " fill="#000000"/><text fill="#000000" font-family="sans-serif" font-size="14" lengthAdjust="spacing" textLength="39.1631" x="84.0605" y="426.681">Stripe</text><line style="stroke:#181818;stroke-width:0.5;" x1="8" x2="166.7842" y1="437.39" y2="437.39"/><rect fill="none" height="6" style="stroke:#C82930;stroke-width:1.0;" width="6" x="15" y="448.1341"/><text fill="#000000" font-family="sans-serif" font-size="14" lengthAdjust="spacing" textLength="134.7842" x="27" y="454.9252">Payment Processing</text><rect fill="none" height="6" style="stroke:#C82930;stroke-width:1.0;" width="6" x="15" y="464.6224"/><text fill="#000000" font-family="sans-serif" font-size="14" lengthAdjust="spacing" textLength="121.3857" x="27" y="471.4134">Returns Response</text><line style="stroke:#181818;stroke-width:0.5;" x1="8" x2="166.7842" y1="478.3666" y2="478.3666"/></g><!--class Email--><g id="elem_Email"><rect codeLine="24" fill="#F1F1F1" height="64.4883" id="Email" rx="2.5" ry="2.5" style="stroke:#181818;stroke-width:0.5;" width="88.3438" x="271.22" y="413.64"/><ellipse cx="295.1572" cy="429.64" fill="#ADD1B2" rx="11" ry="11" style="stroke:#181818;stroke-width:1.0;"/><path d="M297.6303,435.7831 Q297.0492,436.0819 296.4101,436.2313 Q295.7709,436.3807 295.0654,436.3807 Q292.5585,436.3807 291.2387,434.7289 Q289.9189,433.077 289.9189,429.9559 Q289.9189,426.8265 291.2387,425.1747 Q292.5585,423.5228 295.0654,423.5228 Q295.7709,423.5228 296.4184,423.6722 Q297.0658,423.8216 297.6303,424.1205 L297.6303,426.8431 Q296.9994,426.2621 296.4059,425.9923 Q295.8124,425.7225 295.1816,425.7225 Q293.8368,425.7225 293.152,426.7892 Q292.4672,427.8558 292.4672,429.9559 Q292.4672,432.0477 293.152,433.1144 Q293.8368,434.181 295.1816,434.181 Q295.8124,434.181 296.4059,433.9112 Q296.9994,433.6415 297.6303,433.0604 Z " fill="#000000"/><text fill="#000000" font-family="sans-serif" font-size="14" lengthAdjust="spacing" textLength="36.4834" x="311.1432" y="434.931">Email</text><line style="stroke:#181818;stroke-width:0.5;" x1="272.22" x2="358.5638" y1="445.64" y2="445.64"/><rect fill="none" height="6" style="stroke:#C82930;stroke-width:1.0;" width="6" x="279.22" y="456.3841"/><text fill="#000000" font-family="sans-serif" font-size="14" lengthAdjust="spacing" textLength="62.3438" x="291.22" y="463.1752">Email API</text><line style="stroke:#181818;stroke-width:0.5;" x1="272.22" x2="358.5638" y1="470.1283" y2="470.1283"/></g><!--link User to Browser--><g id="link_User_Browser"><path codeLine="28" d="M91.96,88.33 C78.93,101.57 70.73,117.46 76.39,134.98 C79.68,145.13 81.3592,149.8889 86.7092,159.4889 " fill="none" id="User-to-Browser" style="stroke:#181818;stroke-width:1.0;"/><polygon fill="#181818" points="89.63,164.73,88.7428,154.9212,87.196,160.3624,81.7547,158.8156,89.63,164.73" style="stroke:#181818;stroke-width:1.0;"/><text fill="#000000" font-family="sans-serif" font-size="13" lengthAdjust="spacing" textLength="112.3472" x="77.39" y="131.5484">Fill Payment Form</text></g><!--link Browser to User--><g id="link_Browser_User"><path codeLine="31" d="M194.15,164.54 C197.44,149.13 198.26,133.1 194.39,117.98 C191.8,107.85 190.1758,102.9293 185.2758,93.5393 " fill="none" id="Browser-to-User" style="stroke:#181818;stroke-width:1.0;"/><polygon fill="#181818" points="182.5,88.22,183.1175,98.0495,184.8132,92.6528,190.2099,94.3484,182.5,88.22" style="stroke:#181818;stroke-width:1.0;"/><text fill="#000000" font-family="sans-serif" font-size="13" lengthAdjust="spacing" textLength="133.0405" x="197.39" y="131.5484">Display Confirmation</text></g><!--link Browser to Stripe--><g id="link_Browser_Stripe"><path codeLine="29" d="M63.17,301.26 C43.91,317.03 26.21,336.14 15.39,358.39 C7.28,375.09 10.9759,386.942 24.0259,400.732 " fill="none" id="Browser-to-Stripe" style="stroke:#181818;stroke-width:1.0;"/><polygon fill="#181818" points="28.15,405.09,24.8692,395.8037,24.7132,401.4584,19.0585,401.3025,28.15,405.09" style="stroke:#181818;stroke-width:1.0;"/><text fill="#000000" font-family="sans-serif" font-size="13" lengthAdjust="spacing" textLength="96.6938" x="16.39" y="371.9584">Payment Token</text></g><!--link Stripe to Browser--><g id="link_Stripe_Browser"><path codeLine="30" d="M105.45,405.14 C109.59,395.49 113.81,385.14 117.39,375.39 C122.87,360.49 126.399,350.1333 131.289,334.5933 " fill="none" id="Stripe-to-Browser" style="stroke:#181818;stroke-width:1.0;"/><polygon fill="#181818" points="133.09,328.87,126.573,336.2543,131.5892,333.6394,134.2041,338.6556,133.09,328.87" style="stroke:#181818;stroke-width:1.0;"/><text fill="#000000" font-family="sans-serif" font-size="13" lengthAdjust="spacing" textLength="117.7744" x="123.39" y="371.9584">Payment Response</text></g><!--link Browser to Email--><g id="link_Browser_Email"><path codeLine="32" d="M225.14,328.64 C233.38,338.61 241.62,348.69 249.39,358.39 C263.8,376.38 275.8475,392.0794 288.2975,408.5894 " fill="none" id="Browser-to-Email" style="stroke:#181818;stroke-width:1.0;"/><polygon fill="#181818" points="291.91,413.38,289.6849,403.7858,288.8996,409.3878,283.2975,408.6025,291.91,413.38" style="stroke:#181818;stroke-width:1.0;"/><text fill="#000000" font-family="sans-serif" font-size="13" lengthAdjust="spacing" textLength="155.4922" x="262.39" y="371.9584">Send Confirmation Email</text></g><!--SRC=[PP5DQiCm48NtFiNq0Eu1l2YahbCAfPWuwLxOapADB9aPbH12xjvQad-KheJUFBvvUdhey4W6OLUL-yt7wti5hLOYMRO81q66QmQGmvQq5gZLfKVZO6kvz_8BoQ3LHQ2qvaZSAqVMW6Mec2rdjpNjcUrv0Vv3DOvfmCTlyRTFfQbJ3cKnr6nR5C4vXbTBHc-RU7jxGXCcwqXDonZrgbUaeTGq8fA48S9TmBYMp9UNT-X-sCZVAOCrWYaXiA-hFPlwRRJuAlFyQMwXy9McDKopqHUp57SFYt9AcYnpfZNe43pnfv9M4b-8Mq23fakxyvDV]--></g></svg>